<svg xmlns="http://www.w3.org/2000/svg" viewBox="0 0 1920 1080" width="1920" height="1080">
<title>System design</title>
<desc>VLegalAI · containerized HybridRAG and GraphRAG legal intelligence platform</desc>
<defs>
  <pattern id="minor-grid" width="12" height="12" patternUnits="userSpaceOnUse">
    <path d="M 12 0 L 0 0 0 12" fill="none" stroke="#E7E6DF" stroke-width="0.65"/>
  </pattern>
  <pattern id="major-grid" width="60" height="60" patternUnits="userSpaceOnUse">
    <rect width="60" height="60" fill="url(#minor-grid)"/>
    <path d="M 60 0 L 0 0 0 60" fill="none" stroke="#D8D7D0" stroke-width="0.9"/>
  </pattern>
  <marker id="arrow-ink" markerWidth="9" markerHeight="7" refX="8" refY="3.5" orient="auto"><path d="M0,0 L9,3.5 L0,7 Z" fill="#4B5563"/></marker>
  <marker id="arrow-data" markerWidth="9" markerHeight="7" refX="8" refY="3.5" orient="auto"><path d="M0,0 L9,3.5 L0,7 Z" fill="#069A8E"/></marker>
  <marker id="arrow-async" markerWidth="9" markerHeight="7" refX="8" refY="3.5" orient="auto"><path d="M0,0 L9,3.5 L0,7 Z" fill="#8B69D4"/></marker>
  <marker id="arrow-subtle" markerWidth="9" markerHeight="7" refX="8" refY="3.5" orient="auto"><path d="M0,0 L9,3.5 L0,7 Z" fill="#89919D"/></marker>
</defs>
<rect x="0" y="0" width="1920" height="1080" fill="#F7F6EF"/>
<text x="42" y="96" text-anchor="start" font-family="DejaVu Serif, serif" font-size="76" font-weight="400" fill="#242424">System design</text>
<text x="46" y="128" text-anchor="start" font-family="DejaVu Sans, sans-serif" font-size="14" font-weight="400" fill="#667085">VLegalAI · containerized HybridRAG and GraphRAG legal intelligence platform</text>
<rect x="70" y="150" width="1800" height="895" fill="url(#major-grid)" stroke="#D8D7D0" stroke-width="1"/>
<g>
  <rect x="280" y="190" width="390" height="520" fill="none" stroke="#6F8FF7" stroke-width="2" stroke-dasharray="9 7"/>
  <rect x="403" y="177" width="144" height="26" fill="#F7F6EF"/>
  <text x="475" y="196" text-anchor="middle" font-family="DejaVu Sans, sans-serif" font-size="18" font-weight="700" fill="#242424">Frontend</text>
</g>
<g>
  <rect x="710" y="190" width="790" height="520" fill="none" stroke="#D96FC7" stroke-width="2" stroke-dasharray="9 7"/>
  <rect x="1033" y="177" width="144" height="26" fill="#F7F6EF"/>
  <text x="1105" y="196" text-anchor="middle" font-family="DejaVu Sans, sans-serif" font-size="18" font-weight="700" fill="#242424">Backend &amp; AI</text>
</g>
<g>
  <rect x="1540" y="190" width="280" height="520" fill="none" stroke="#6F8FF7" stroke-width="2" stroke-dasharray="4 5"/>
  <rect x="1608" y="177" width="144" height="26" fill="#F7F6EF"/>
  <text x="1680" y="196" text-anchor="middle" font-family="DejaVu Sans, sans-serif" font-size="18" font-weight="700" fill="#242424">Data Stores</text>
</g>
<g>
  <rect x="680" y="790" width="760" height="210" fill="none" stroke="#E58A3A" stroke-width="2" stroke-dasharray="6 5"/>
  <rect x="903.2" y="777" width="313.59999999999997" height="26" fill="#F7F6EF"/>
  <text x="1060" y="796" text-anchor="middle" font-family="DejaVu Sans, sans-serif" font-size="18" font-weight="700" fill="#242424">Controlled External Services</text>
</g>
<g>
  <rect x="1480" y="790" width="340" height="210" fill="none" stroke="#8B69D4" stroke-width="2" stroke-dasharray="6 5"/>
  <rect x="1549.2" y="777" width="201.6" height="26" fill="#F7F6EF"/>
  <text x="1650" y="796" text-anchor="middle" font-family="DejaVu Sans, sans-serif" font-size="18" font-weight="700" fill="#242424">Build &amp; Operations</text>
</g>
<svg x="115" y="360" width="100" height="100" viewBox="0 0 24 24" preserveAspectRatio="xMidYMid meet" overflow="visible" aria-hidden="true">

<g fill="none" stroke="#242424" stroke-linecap="round" stroke-linejoin="round" stroke-width="2"><path d="M16 21v-2a4 4 0 0 0-4-4H6a4 4 0 0 0-4 4v2M16 3.128a4 4 0 0 1 0 7.744M22 21v-2a4 4 0 0 0-3-3.87"/><circle cx="9" cy="7" r="4"/></g>
</svg>
<text x="165" y="480" text-anchor="middle" font-family="DejaVu Sans, sans-serif" font-size="20" font-weight="700" fill="#242424">Users</text>
<text x="165" y="505" text-anchor="middle" font-family="DejaVu Sans, sans-serif" font-size="12" font-weight="400" fill="#667085">Citizen / Legal Professional</text>
<g>
  <svg x="358" y="220" width="44" height="44" viewBox="0 0 256 228" preserveAspectRatio="xMidYMid meet" overflow="visible" aria-label="React">
<title>React</title>
<path fill="#00D8FF" d="M210.483 73.824a172 172 0 0 0-8.24-2.597c.465-1.9.893-3.777 1.273-5.621c6.238-30.281 2.16-54.676-11.769-62.708c-13.355-7.7-35.196.329-57.254 19.526a171 171 0 0 0-6.375 5.848a156 156 0 0 0-4.241-3.917C100.759 3.829 77.587-4.822 63.673 3.233C50.33 10.957 46.379 33.89 51.995 62.588a171 171 0 0 0 1.892 8.48c-3.28.932-6.445 1.924-9.474 2.98C17.309 83.498 0 98.307 0 113.668c0 15.865 18.582 31.778 46.812 41.427a146 146 0 0 0 6.921 2.165a168 168 0 0 0-2.01 9.138c-5.354 28.2-1.173 50.591 12.134 58.266c13.744 7.926 36.812-.22 59.273-19.855a146 146 0 0 0 5.342-4.923a168 168 0 0 0 6.92 6.314c21.758 18.722 43.246 26.282 56.54 18.586c13.731-7.949 18.194-32.003 12.4-61.268a145 145 0 0 0-1.535-6.842c1.62-.48 3.21-.974 4.76-1.488c29.348-9.723 48.443-25.443 48.443-41.52c0-15.417-17.868-30.326-45.517-39.844m-6.365 70.984q-2.102.694-4.3 1.345c-3.24-10.257-7.612-21.163-12.963-32.432c5.106-11 9.31-21.767 12.459-31.957c2.619.758 5.16 1.557 7.61 2.4c23.69 8.156 38.14 20.213 38.14 29.504c0 9.896-15.606 22.743-40.946 31.14m-10.514 20.834c2.562 12.94 2.927 24.64 1.23 33.787c-1.524 8.219-4.59 13.698-8.382 15.893c-8.067 4.67-25.32-1.4-43.927-17.412a157 157 0 0 1-6.437-5.87c7.214-7.889 14.423-17.06 21.459-27.246c12.376-1.098 24.068-2.894 34.671-5.345q.785 3.162 1.386 6.193M87.276 214.515c-7.882 2.783-14.16 2.863-17.955.675c-8.075-4.657-11.432-22.636-6.853-46.752a157 157 0 0 1 1.869-8.499c10.486 2.32 22.093 3.988 34.498 4.994c7.084 9.967 14.501 19.128 21.976 27.15a135 135 0 0 1-4.877 4.492c-9.933 8.682-19.886 14.842-28.658 17.94M50.35 144.747c-12.483-4.267-22.792-9.812-29.858-15.863c-6.35-5.437-9.555-10.836-9.555-15.216c0-9.322 13.897-21.212 37.076-29.293c2.813-.98 5.757-1.905 8.812-2.773c3.204 10.42 7.406 21.315 12.477 32.332c-5.137 11.18-9.399 22.249-12.634 32.792a135 135 0 0 1-6.318-1.979m12.378-84.26c-4.811-24.587-1.616-43.134 6.425-47.789c8.564-4.958 27.502 2.111 47.463 19.835a144 144 0 0 1 3.841 3.545c-7.438 7.987-14.787 17.08-21.808 26.988c-12.04 1.116-23.565 2.908-34.161 5.309a160 160 0 0 1-1.76-7.887m110.427 27.268a348 348 0 0 0-7.785-12.803c8.168 1.033 15.994 2.404 23.343 4.08c-2.206 7.072-4.956 14.465-8.193 22.045a381 381 0 0 0-7.365-13.322m-45.032-43.861c5.044 5.465 10.096 11.566 15.065 18.186a322 322 0 0 0-30.257-.006c4.974-6.559 10.069-12.652 15.192-18.18M82.802 87.83a323 323 0 0 0-7.227 13.238c-3.184-7.553-5.909-14.98-8.134-22.152c7.304-1.634 15.093-2.97 23.209-3.984a322 322 0 0 0-7.848 12.897m8.081 65.352c-8.385-.936-16.291-2.203-23.593-3.793c2.26-7.3 5.045-14.885 8.298-22.6a321 321 0 0 0 7.257 13.246c2.594 4.48 5.28 8.868 8.038 13.147m37.542 31.03c-5.184-5.592-10.354-11.779-15.403-18.433c4.902.192 9.899.29 14.978.29c5.218 0 10.376-.117 15.453-.343c-4.985 6.774-10.018 12.97-15.028 18.486m52.198-57.817c3.422 7.8 6.306 15.345 8.596 22.52c-7.422 1.694-15.436 3.058-23.88 4.071a382 382 0 0 0 7.859-13.026a347 347 0 0 0 7.425-13.565m-16.898 8.101a359 359 0 0 1-12.281 19.815a329 329 0 0 1-23.444.823c-7.967 0-15.716-.248-23.178-.732a310 310 0 0 1-12.513-19.846h.001a307 307 0 0 1-10.923-20.627a310 310 0 0 1 10.89-20.637l-.001.001a307 307 0 0 1 12.413-19.761c7.613-.576 15.42-.876 23.31-.876H128c7.926 0 15.743.303 23.354.883a329 329 0 0 1 12.335 19.695a359 359 0 0 1 11.036 20.54a330 330 0 0 1-11 20.722m22.56-122.124c8.572 4.944 11.906 24.881 6.52 51.026q-.518 2.504-1.15 5.09c-10.622-2.452-22.155-4.275-34.23-5.408c-7.034-10.017-14.323-19.124-21.64-27.008a161 161 0 0 1 5.888-5.4c18.9-16.447 36.564-22.941 44.612-18.3M128 90.808c12.625 0 22.86 10.235 22.86 22.86s-10.235 22.86-22.86 22.86s-22.86-10.235-22.86-22.86s10.235-22.86 22.86-22.86"/>
</svg>
  <text x="380" y="284" text-anchor="middle" font-family="DejaVu Sans, sans-serif" font-size="13" font-weight="600" fill="#242424">React</text>
  
</g>
<g>
  <svg x="443" y="220" width="44" height="44" viewBox="0 0 256 256" preserveAspectRatio="xMidYMid meet" overflow="visible" aria-label="TypeScript">
<title>TypeScript</title>
<path fill="#3178C6" d="M20 0h216c11.046 0 20 8.954 20 20v216c0 11.046-8.954 20-20 20H20c-11.046 0-20-8.954-20-20V20C0 8.954 8.954 0 20 0"/><path fill="#FFF" d="M150.518 200.475v27.62q6.738 3.453 15.938 5.179T185.849 235q9.934 0 18.874-1.899t15.678-6.257q6.738-4.359 10.669-11.394q3.93-7.033 3.93-17.391q0-7.51-2.246-13.163a30.8 30.8 0 0 0-6.479-10.055q-4.232-4.402-10.149-7.898t-13.347-6.602q-5.442-2.245-9.761-4.359t-7.342-4.316q-3.024-2.2-4.665-4.661t-1.641-5.567q0-2.848 1.468-5.135q1.469-2.288 4.147-3.927t6.565-2.547q3.887-.906 8.638-.906q3.456 0 7.299.518q3.844.517 7.732 1.597a54 54 0 0 1 7.558 2.719a41.7 41.7 0 0 1 6.781 3.797v-25.807q-6.306-2.417-13.778-3.582T198.633 107q-9.847 0-18.658 2.115q-8.811 2.114-15.506 6.602q-6.694 4.49-10.582 11.437Q150 134.102 150 143.769q0 12.342 7.127 21.06t21.638 14.759a292 292 0 0 1 10.625 4.575q4.924 2.244 8.509 4.66t5.658 5.265t2.073 6.474a9.9 9.9 0 0 1-1.296 4.963q-1.295 2.287-3.93 3.97t-6.565 2.632t-9.2.95q-8.983 0-17.794-3.151t-16.327-9.451m-46.036-68.733H140V109H41v22.742h35.345V233h28.137z"/>
</svg>
  <text x="465" y="284" text-anchor="middle" font-family="DejaVu Sans, sans-serif" font-size="13" font-weight="600" fill="#242424">TypeScript</text>
  
</g>
<g>
  <svg x="533" y="220" width="44" height="44" viewBox="0 0 24 24" preserveAspectRatio="xMidYMid meet" overflow="visible" aria-label="Caddy">
<title>Caddy</title>
<path fill="#1F88C0" d="M11.094.47c-.842 0-1.696.092-2.552.288a11.4 11.4 0 0 0-4.87 2.423a10.6 10.6 0 0 0-2.36 2.826A10 10 0 0 0 .305 8.582c-.398 1.62-.4 3.336-.043 5.048c.085.405.183.809.31 1.212a11.9 11.9 0 0 0 1.662 3.729a3 3 0 0 0-.086.427a3.323 3.323 0 0 0 2.848 3.71a3.3 3.3 0 0 0 1.947-.346c1.045.51 2.17.864 3.339 1.04a11.7 11.7 0 0 0 4.285-.155a11.6 11.6 0 0 0 4.936-2.485a10.6 10.6 0 0 0 2.352-2.894a11.2 11.2 0 0 0 1.356-4.424a11.2 11.2 0 0 0-.498-4.335q.263-.116.486-.293h.001c.402-.322.693-.794.777-1.342a2.146 2.146 0 0 0-1.79-2.434a2.1 2.1 0 0 0-1.205.171q-.059-.064-.113-.13a11.7 11.7 0 0 0-3.476-2.93a13 13 0 0 0-1.76-.81a13.6 13.6 0 0 0-2.06-.613a12 12 0 0 0-2.48-.258Zm.714.328a10 10 0 0 1 1.028.042a9.9 9.9 0 0 1 2.743.639c.984.39 1.89.958 2.707 1.632a10.8 10.8 0 0 1 2.091 2.328q.038.06.07.12a2.12 2.12 0 0 0-.435 2.646c-.158.114-.97.692-1.634 1.183c-.414.308-.733.557-.733.557l.581.68s.296-.276.665-.638c.572-.562 1.229-1.233 1.395-1.403a2.12 2.12 0 0 0 1.907.677a11.2 11.2 0 0 1-.013 4.046a11.4 11.4 0 0 1-1.475 3.897a12.3 12.3 0 0 1-2.079 2.587c-1.19 1.125-2.633 2.022-4.306 2.531a10.8 10.8 0 0 1-3.973.484a11 11 0 0 1-3.057-.652a3.3 3.3 0 0 0 1.417-2.294a3.3 3.3 0 0 0-.294-1.842c.18-.162.403-.363.656-.6c1.015-.955 2.353-2.303 2.353-2.303l-.47-.599s-1.63.972-2.801 1.728c-.307.198-.573.378-.777.517a3.3 3.3 0 0 0-1.516-.611a3.33 3.33 0 0 0-3.487 2.017a10 10 0 0 1-.695-1.078A11 11 0 0 1 .728 14.8a10 10 0 0 1-.2-1.212c-.164-1.653.103-3.258.629-4.754a13 13 0 0 1 1.087-2.288c.57-.968 1.248-1.872 2.069-2.656A11 11 0 0 1 11.808.797Zm-.147 3.257a3.84 3.84 0 0 0-3.82 3.82v2.36h-.94c-.751 0-1.377.625-1.377 1.377v3.8h1.46v-3.718h9.354v6.264H10.02v1.46h6.4c.751 0 1.377-.625 1.377-1.377v-6.43a1.39 1.39 0 0 0-1.377-1.377h-.94v-2.36a3.84 3.84 0 0 0-3.82-3.819zm0 1.46a2.37 2.37 0 0 1 2.36 2.36v2.36H9.3v-2.36a2.37 2.37 0 0 1 2.36-2.36zm10.141.392a1.253 1.253 0 0 1 1.296 1.434a1.24 1.24 0 0 1-.453.78c-.266.213-.61.318-.968.264a1.253 1.253 0 0 1-1.045-1.42a1.255 1.255 0 0 1 1.17-1.058M5.384 17.425a2.02 2.02 0 0 1 1.917 1.298c.116.3.159.628.114.967a2.015 2.015 0 0 1-2.249 1.728a2.016 2.016 0 0 1-1.727-2.25a2.02 2.02 0 0 1 1.945-1.743"/>
</svg>
  <text x="555" y="284" text-anchor="middle" font-family="DejaVu Sans, sans-serif" font-size="13" font-weight="600" fill="#242424">Caddy</text>
  
</g>
<g>
  <svg x="608" y="220" width="44" height="44" viewBox="0 0 256 185" preserveAspectRatio="xMidYMid meet" overflow="visible" aria-label="Docker">
<title>Docker</title>
<path fill="#2396ED" d="M250.716 70.497c-5.765-4-18.976-5.5-29.304-3.5c-1.2-10-6.725-18.749-16.333-26.499l-5.524-4l-3.844 5.75c-4.803 7.5-7.205 18-6.485 28c.24 3.499 1.441 9.749 5.044 15.249c-3.362 2-10.328 4.5-19.455 4.5H1.155l-.48 2c-1.682 9.999-1.682 41.248 18.014 65.247c14.892 18.249 36.99 27.499 66.053 27.499c62.93 0 109.528-30.25 131.386-84.997c8.647.25 27.142 0 36.51-18.75c.24-.5.72-1.5 2.401-5.249l.961-2zM139.986 0h-26.42v24.999h26.42zm0 29.999h-26.42v24.999h26.42zm-31.225 0h-26.42v24.999h26.42zm-31.225 0H51.115v24.999h26.421zM46.311 59.998H19.89v24.999h26.42zm31.225 0H51.115v24.999h26.421zm31.225 0h-26.42v24.999h26.42zm31.226 0h-26.422v24.999h26.422zm31.225 0H144.79v24.999h26.422z"/>
</svg>
  <text x="630" y="284" text-anchor="middle" font-family="DejaVu Sans, sans-serif" font-size="13" font-weight="600" fill="#242424">Docker</text>
  
</g>
<g>
  <rect x="335" y="330" width="280" height="105" rx="3" fill="#FFFFFF" stroke="#6F8FF7" stroke-width="1.6"/>
  <svg x="347" y="368.5" width="28" height="28" viewBox="0 0 24 24" preserveAspectRatio="xMidYMid meet" overflow="visible" aria-hidden="true">

<g fill="none" stroke="#242424" stroke-linecap="round" stroke-linejoin="round" stroke-width="2"><rect width="20" height="14" x="2" y="3" rx="2"/><path d="M8 21h8m-4-4v4"/></g>
</svg>
  <text x="489" y="358" text-anchor="middle" font-family="DejaVu Sans, sans-serif" font-size="16" font-weight="700" fill="#242424">Web Application</text>
  <text x="489" y="382" text-anchor="middle" font-family="DejaVu Sans, sans-serif" font-size="12" font-weight="400" fill="#667085"><tspan x="489" dy="0">Saved workspace · guest sessionStorage</tspan></text>
</g>
<g>
  <rect x="335" y="485" width="280" height="100" rx="3" fill="#FFFFFF" stroke="#6F8FF7" stroke-width="1.6"/>
  <svg x="347" y="521" width="28" height="28" viewBox="0 0 24 24" preserveAspectRatio="xMidYMid meet" overflow="visible" aria-hidden="true">

<path fill="#1F88C0" d="M11.094.47c-.842 0-1.696.092-2.552.288a11.4 11.4 0 0 0-4.87 2.423a10.6 10.6 0 0 0-2.36 2.826A10 10 0 0 0 .305 8.582c-.398 1.62-.4 3.336-.043 5.048c.085.405.183.809.31 1.212a11.9 11.9 0 0 0 1.662 3.729a3 3 0 0 0-.086.427a3.323 3.323 0 0 0 2.848 3.71a3.3 3.3 0 0 0 1.947-.346c1.045.51 2.17.864 3.339 1.04a11.7 11.7 0 0 0 4.285-.155a11.6 11.6 0 0 0 4.936-2.485a10.6 10.6 0 0 0 2.352-2.894a11.2 11.2 0 0 0 1.356-4.424a11.2 11.2 0 0 0-.498-4.335q.263-.116.486-.293h.001c.402-.322.693-.794.777-1.342a2.146 2.146 0 0 0-1.79-2.434a2.1 2.1 0 0 0-1.205.171q-.059-.064-.113-.13a11.7 11.7 0 0 0-3.476-2.93a13 13 0 0 0-1.76-.81a13.6 13.6 0 0 0-2.06-.613a12 12 0 0 0-2.48-.258Zm.714.328a10 10 0 0 1 1.028.042a9.9 9.9 0 0 1 2.743.639c.984.39 1.89.958 2.707 1.632a10.8 10.8 0 0 1 2.091 2.328q.038.06.07.12a2.12 2.12 0 0 0-.435 2.646c-.158.114-.97.692-1.634 1.183c-.414.308-.733.557-.733.557l.581.68s.296-.276.665-.638c.572-.562 1.229-1.233 1.395-1.403a2.12 2.12 0 0 0 1.907.677a11.2 11.2 0 0 1-.013 4.046a11.4 11.4 0 0 1-1.475 3.897a12.3 12.3 0 0 1-2.079 2.587c-1.19 1.125-2.633 2.022-4.306 2.531a10.8 10.8 0 0 1-3.973.484a11 11 0 0 1-3.057-.652a3.3 3.3 0 0 0 1.417-2.294a3.3 3.3 0 0 0-.294-1.842c.18-.162.403-.363.656-.6c1.015-.955 2.353-2.303 2.353-2.303l-.47-.599s-1.63.972-2.801 1.728c-.307.198-.573.378-.777.517a3.3 3.3 0 0 0-1.516-.611a3.33 3.33 0 0 0-3.487 2.017a10 10 0 0 1-.695-1.078A11 11 0 0 1 .728 14.8a10 10 0 0 1-.2-1.212c-.164-1.653.103-3.258.629-4.754a13 13 0 0 1 1.087-2.288c.57-.968 1.248-1.872 2.069-2.656A11 11 0 0 1 11.808.797Zm-.147 3.257a3.84 3.84 0 0 0-3.82 3.82v2.36h-.94c-.751 0-1.377.625-1.377 1.377v3.8h1.46v-3.718h9.354v6.264H10.02v1.46h6.4c.751 0 1.377-.625 1.377-1.377v-6.43a1.39 1.39 0 0 0-1.377-1.377h-.94v-2.36a3.84 3.84 0 0 0-3.82-3.819zm0 1.46a2.37 2.37 0 0 1 2.36 2.36v2.36H9.3v-2.36a2.37 2.37 0 0 1 2.36-2.36zm10.141.392a1.253 1.253 0 0 1 1.296 1.434a1.24 1.24 0 0 1-.453.78c-.266.213-.61.318-.968.264a1.253 1.253 0 0 1-1.045-1.42a1.255 1.255 0 0 1 1.17-1.058M5.384 17.425a2.02 2.02 0 0 1 1.917 1.298c.116.3.159.628.114.967a2.015 2.015 0 0 1-2.249 1.728a2.016 2.016 0 0 1-1.727-2.25a2.02 2.02 0 0 1 1.945-1.743"/>
</svg>
  <text x="489" y="513" text-anchor="middle" font-family="DejaVu Sans, sans-serif" font-size="16" font-weight="700" fill="#242424">Caddy Edge</text>
  <text x="489" y="537" text-anchor="middle" font-family="DejaVu Sans, sans-serif" font-size="12" font-weight="400" fill="#667085"><tspan x="489" dy="0">TLS · security headers · /api routing</tspan></text>
</g>
<g>
  <rect x="335" y="625" width="280" height="60" rx="3" fill="#FFFFFF" stroke="#6F8FF7" stroke-width="1.6"/>
  <svg x="347" y="641" width="28" height="28" viewBox="0 0 256 185" preserveAspectRatio="xMidYMid meet" overflow="visible" aria-hidden="true">

<path fill="#2396ED" d="M250.716 70.497c-5.765-4-18.976-5.5-29.304-3.5c-1.2-10-6.725-18.749-16.333-26.499l-5.524-4l-3.844 5.75c-4.803 7.5-7.205 18-6.485 28c.24 3.499 1.441 9.749 5.044 15.249c-3.362 2-10.328 4.5-19.455 4.5H1.155l-.48 2c-1.682 9.999-1.682 41.248 18.014 65.247c14.892 18.249 36.99 27.499 66.053 27.499c62.93 0 109.528-30.25 131.386-84.997c8.647.25 27.142 0 36.51-18.75c.24-.5.72-1.5 2.401-5.249l.961-2zM139.986 0h-26.42v24.999h26.42zm0 29.999h-26.42v24.999h26.42zm-31.225 0h-26.42v24.999h26.42zm-31.225 0H51.115v24.999h26.421zM46.311 59.998H19.89v24.999h26.42zm31.225 0H51.115v24.999h26.421zm31.225 0h-26.42v24.999h26.42zm31.226 0h-26.422v24.999h26.422zm31.225 0H144.79v24.999h26.422z"/>
</svg>
  <text x="489" y="661" text-anchor="middle" font-family="DejaVu Sans, sans-serif" font-size="16" font-weight="700" fill="#242424">Frontend Container</text>
  
</g>
<g>
  <svg x="836" y="210" width="48" height="48" viewBox="0 0 256 256" preserveAspectRatio="xMidYMid meet" overflow="visible" aria-label="FastAPI">
<title>FastAPI</title>
<path fill="#009688" d="M128 0C57.33 0 0 57.33 0 128s57.33 128 128 128s128-57.33 128-128S198.67 0 128 0m-6.67 230.605v-80.288H76.699l64.128-124.922v80.288h42.966z"/>
</svg>
  <text x="860" y="278" text-anchor="middle" font-family="DejaVu Sans, sans-serif" font-size="13" font-weight="600" fill="#242424">FastAPI</text>
  
</g>
<g>
  <svg x="931" y="210" width="48" height="48" viewBox="0 0 24 24" preserveAspectRatio="xMidYMid meet" overflow="visible" aria-label="Celery">
<title>Celery</title>
<path fill="#37814A" d="M2.303 0A2.3 2.3 0 0 0 0 2.303v19.394A2.3 2.3 0 0 0 2.303 24h19.394A2.3 2.3 0 0 0 24 21.697V2.303A2.3 2.3 0 0 0 21.697 0zm8.177 3.072c4.098 0 7.028 1.438 7.68 1.764l-1.194 2.55c-2.442-1.057-4.993-1.41-5.672-1.41c-1.574 0-2.17.922-2.17 1.763v8.494c0 .869.596 1.791 2.17 1.791c.679 0 3.23-.38 5.672-1.41l1.194 2.496c-.435.271-3.637 1.818-7.68 1.818c-1.112 0-4.64-.244-4.64-4.64V7.713c0-4.397 3.528-4.64 4.64-4.64z"/>
</svg>
  <text x="955" y="278" text-anchor="middle" font-family="DejaVu Sans, sans-serif" font-size="13" font-weight="600" fill="#242424">Celery</text>
  
</g>
<g>
  <svg x="1026" y="210" width="48" height="48" viewBox="0 0 24 24" preserveAspectRatio="xMidYMid meet" overflow="visible" aria-label="Qwen3">
<title>Qwen3</title>
<path fill="#FF6A00" d="M3.996 4.517h5.291L8.01 6.324L4.153 7.506a1.67 1.67 0 0 0-1.165 1.601v5.786a1.67 1.67 0 0 0 1.165 1.6l3.857 1.183l1.277 1.807H3.996A3.996 3.996 0 0 1 0 15.487V8.513a3.996 3.996 0 0 1 3.996-3.996m16.008 0h-5.291l1.277 1.807l3.857 1.182c.715.227 1.17.889 1.165 1.601v5.786a1.67 1.67 0 0 1-1.165 1.6l-3.857 1.183l-1.277 1.807h5.291A3.996 3.996 0 0 0 24 15.487V8.513a3.996 3.996 0 0 0-3.996-3.996m-4.007 8.345H8.002v-1.804h7.995Z"/>
</svg>
  <text x="1050" y="278" text-anchor="middle" font-family="DejaVu Sans, sans-serif" font-size="13" font-weight="600" fill="#242424">Qwen3</text>
  
</g>
<g>
  <svg x="1121" y="210" width="48" height="48" viewBox="0 0 24 24" preserveAspectRatio="xMidYMid meet" overflow="visible" aria-label="BGE-M3">
<title>BGE-M3</title>
<path fill="#FF9D00" d="M12.025 1.13c-5.77 0-10.449 4.647-10.449 10.378c0 1.112.178 2.181.503 3.185c.064-.222.203-.444.416-.577a.96.96 0 0 1 .524-.15c.293 0 .584.124.84.284c.278.173.48.408.71.694c.226.282.458.611.684.951v-.014c.017-.324.106-.622.264-.874s.403-.487.762-.543c.3-.047.596.06.787.203s.31.313.4.467c.15.257.212.468.233.542c.01.026.653 1.552 1.657 2.54c.616.605 1.01 1.223 1.082 1.912c.055.537-.096 1.059-.38 1.572c.637.121 1.294.187 1.967.187c.657 0 1.298-.063 1.921-.178c-.287-.517-.44-1.041-.384-1.581c.07-.69.465-1.307 1.081-1.913c1.004-.987 1.647-2.513 1.657-2.539c.021-.074.083-.285.233-.542c.09-.154.208-.323.4-.467a1.08 1.08 0 0 1 .787-.203c.359.056.604.29.762.543s.247.55.265.874v.015c.225-.34.457-.67.683-.952c.23-.286.432-.52.71-.694c.257-.16.547-.284.84-.285a.97.97 0 0 1 .524.151c.228.143.373.388.43.625l.006.04a10.3 10.3 0 0 0 .534-3.273c0-5.731-4.678-10.378-10.449-10.378M8.327 6.583a1.5 1.5 0 0 1 .713.174a1.487 1.487 0 0 1 .617 2.013c-.183.343-.762-.214-1.102-.094c-.38.134-.532.914-.917.71a1.487 1.487 0 0 1 .69-2.803m7.486 0a1.487 1.487 0 0 1 .689 2.803c-.385.204-.536-.576-.916-.71c-.34-.12-.92.437-1.103.094a1.487 1.487 0 0 1 .617-2.013a1.5 1.5 0 0 1 .713-.174m-10.68 1.55a.96.96 0 1 1 0 1.921a.96.96 0 0 1 0-1.92m13.838 0a.96.96 0 1 1 0 1.92a.96.96 0 0 1 0-1.92M8.489 11.458c.588.01 1.965 1.157 3.572 1.164c1.607-.007 2.984-1.155 3.572-1.164c.196-.003.305.12.305.454c0 .886-.424 2.328-1.563 3.202c-.22-.756-1.396-1.366-1.63-1.32q-.011.001-.02.006l-.044.026l-.01.008l-.03.024q-.018.017-.035.036l-.032.04a1 1 0 0 0-.058.09l-.014.025q-.049.088-.11.19a1 1 0 0 1-.083.116a1.2 1.2 0 0 1-.173.18q-.035.029-.075.058a1.3 1.3 0 0 1-.251-.243a1 1 0 0 1-.076-.107c-.124-.193-.177-.363-.337-.444c-.034-.016-.104-.008-.2.022q-.094.03-.216.087q-.06.028-.125.063l-.13.074q-.067.04-.136.086a3 3 0 0 0-.135.096a3 3 0 0 0-.26.219a2 2 0 0 0-.12.121a2 2 0 0 0-.106.128l-.002.002a2 2 0 0 0-.09.132l-.001.001a1.2 1.2 0 0 0-.105.212q-.013.036-.024.073c-1.139-.875-1.563-2.317-1.563-3.203c0-.334.109-.457.305-.454m.836 10.354c.824-1.19.766-2.082-.365-3.194c-1.13-1.112-1.789-2.738-1.789-2.738s-.246-.945-.806-.858s-.97 1.499.202 2.362c1.173.864-.233 1.45-.685.64c-.45-.812-1.683-2.896-2.322-3.295s-1.089-.175-.938.647s2.822 2.813 2.562 3.244s-1.176-.506-1.176-.506s-2.866-2.567-3.49-1.898s.473 1.23 2.037 2.16c1.564.932 1.686 1.178 1.464 1.53s-3.675-2.511-4-1.297c-.323 1.214 3.524 1.567 3.287 2.405c-.238.839-2.71-1.587-3.216-.642c-.506.946 3.49 2.056 3.522 2.064c1.29.33 4.568 1.028 5.713-.624m5.349 0c-.824-1.19-.766-2.082.365-3.194c1.13-1.112 1.789-2.738 1.789-2.738s.246-.945.806-.858s.97 1.499-.202 2.362c-1.173.864.233 1.45.685.64c.451-.812 1.683-2.896 2.322-3.295s1.089-.175.938.647s-2.822 2.813-2.562 3.244s1.176-.506 1.176-.506s2.866-2.567 3.49-1.898s-.473 1.23-2.037 2.16c-1.564.932-1.686 1.178-1.464 1.53s3.675-2.511 4-1.297c.323 1.214-3.524 1.567-3.287 2.405c.238.839 2.71-1.587 3.216-.642c.506.946-3.49 2.056-3.522 2.064c-1.29.33-4.568 1.028-5.713-.624"/>
</svg>
  <text x="1145" y="278" text-anchor="middle" font-family="DejaVu Sans, sans-serif" font-size="13" font-weight="600" fill="#242424">BGE-M3</text>
  
</g>
<g>
  <svg x="1216" y="210" width="48" height="48" viewBox="0 0 256 262" preserveAspectRatio="xMidYMid meet" overflow="visible" aria-label="OIDC">
<title>OIDC</title>
<path fill="#4285F4" d="M255.878 133.451c0-10.734-.871-18.567-2.756-26.69H130.55v48.448h71.947c-1.45 12.04-9.283 30.172-26.69 42.356l-.244 1.622l38.755 30.023l2.685.268c24.659-22.774 38.875-56.282 38.875-96.027"/><path fill="#34A853" d="M130.55 261.1c35.248 0 64.839-11.605 86.453-31.622l-41.196-31.913c-11.024 7.688-25.82 13.055-45.257 13.055c-34.523 0-63.824-22.773-74.269-54.25l-1.531.13l-40.298 31.187l-.527 1.465C35.393 231.798 79.49 261.1 130.55 261.1"/><path fill="#FBBC05" d="M56.281 156.37c-2.756-8.123-4.351-16.827-4.351-25.82c0-8.994 1.595-17.697 4.206-25.82l-.073-1.73L15.26 71.312l-1.335.635C5.077 89.644 0 109.517 0 130.55s5.077 40.905 13.925 58.602z"/><path fill="#EB4335" d="M130.55 50.479c24.514 0 41.05 10.589 50.479 19.438l36.844-35.974C195.245 12.91 165.798 0 130.55 0C79.49 0 35.393 29.301 13.925 71.947l42.211 32.783c10.59-31.477 39.891-54.251 74.414-54.251"/>
</svg>
  <text x="1240" y="278" text-anchor="middle" font-family="DejaVu Sans, sans-serif" font-size="13" font-weight="600" fill="#242424">OIDC</text>
  
</g>
<g>
  <svg x="1311" y="210" width="48" height="48" viewBox="0 0 256 185" preserveAspectRatio="xMidYMid meet" overflow="visible" aria-label="Docker">
<title>Docker</title>
<path fill="#2396ED" d="M250.716 70.497c-5.765-4-18.976-5.5-29.304-3.5c-1.2-10-6.725-18.749-16.333-26.499l-5.524-4l-3.844 5.75c-4.803 7.5-7.205 18-6.485 28c.24 3.499 1.441 9.749 5.044 15.249c-3.362 2-10.328 4.5-19.455 4.5H1.155l-.48 2c-1.682 9.999-1.682 41.248 18.014 65.247c14.892 18.249 36.99 27.499 66.053 27.499c62.93 0 109.528-30.25 131.386-84.997c8.647.25 27.142 0 36.51-18.75c.24-.5.72-1.5 2.401-5.249l.961-2zM139.986 0h-26.42v24.999h26.42zm0 29.999h-26.42v24.999h26.42zm-31.225 0h-26.42v24.999h26.42zm-31.225 0H51.115v24.999h26.421zM46.311 59.998H19.89v24.999h26.42zm31.225 0H51.115v24.999h26.421zm31.225 0h-26.42v24.999h26.42zm31.226 0h-26.422v24.999h26.422zm31.225 0H144.79v24.999h26.422z"/>
</svg>
  <text x="1335" y="278" text-anchor="middle" font-family="DejaVu Sans, sans-serif" font-size="13" font-weight="600" fill="#242424">Docker</text>
  
</g>
<g>
  <rect x="750" y="330" width="330" height="165" fill="#FFFFFF" fill-opacity="0.58" stroke="#D96FC7" stroke-width="1.4" stroke-dasharray="4 4"/>
  <text x="762" y="353" text-anchor="start" font-family="DejaVu Sans, sans-serif" font-size="14" font-weight="700" fill="#242424">Presentation Layer</text>
</g>
<g>
  <rect x="785" y="380" width="125" height="70" rx="3" fill="#FFFFFF" stroke="#D96FC7" stroke-width="1.6"/>
  
  <text x="847.5" y="408" text-anchor="middle" font-family="DejaVu Sans, sans-serif" font-size="16" font-weight="700" fill="#242424">Auth &amp; CRUD</text>
  <text x="847.5" y="432" text-anchor="middle" font-family="DejaVu Sans, sans-serif" font-size="12" font-weight="400" fill="#667085"><tspan x="847.5" dy="0">OIDC · sessions</tspan></text>
</g>
<g>
  <rect x="930" y="380" width="125" height="70" rx="3" fill="#FFFFFF" stroke="#D96FC7" stroke-width="1.6"/>
  
  <text x="992.5" y="408" text-anchor="middle" font-family="DejaVu Sans, sans-serif" font-size="16" font-weight="700" fill="#242424">Chat API</text>
  <text x="992.5" y="432" text-anchor="middle" font-family="DejaVu Sans, sans-serif" font-size="12" font-weight="400" fill="#667085"><tspan x="992.5" dy="0">/api/chat</tspan></text>
</g>
<g>
  <rect x="750" y="525" width="330" height="150" fill="#FFFFFF" fill-opacity="0.58" stroke="#D96FC7" stroke-width="1.4" stroke-dasharray="4 4"/>
  <text x="762" y="548" text-anchor="start" font-family="DejaVu Sans, sans-serif" font-size="14" font-weight="700" fill="#242424">Business Services</text>
</g>
<g>
  <rect x="780" y="570" width="130" height="70" rx="3" fill="#FFFFFF" stroke="#D96FC7" stroke-width="1.6"/>
  
  <text x="845" y="598" text-anchor="middle" font-family="DejaVu Sans, sans-serif" font-size="16" font-weight="700" fill="#242424">Legal Tools</text>
  <text x="845" y="622" text-anchor="middle" font-family="DejaVu Sans, sans-serif" font-size="12" font-weight="400" fill="#667085"><tspan x="845" dy="0">contracts · articles</tspan></text>
</g>
<g>
  <rect x="925" y="570" width="130" height="70" rx="3" fill="#FFFFFF" stroke="#D96FC7" stroke-width="1.6"/>
  
  <text x="990" y="598" text-anchor="middle" font-family="DejaVu Sans, sans-serif" font-size="16" font-weight="700" fill="#242424">Chat Service</text>
  <text x="990" y="622" text-anchor="middle" font-family="DejaVu Sans, sans-serif" font-size="12" font-weight="400" fill="#667085"><tspan x="990" dy="0">memory · cache</tspan></text>
</g>
<g>
  <rect x="1120" y="330" width="340" height="345" fill="#FFFFFF" fill-opacity="0.58" stroke="#8B69D4" stroke-width="1.4" stroke-dasharray="4 4"/>
  <text x="1132" y="353" text-anchor="start" font-family="DejaVu Sans, sans-serif" font-size="14" font-weight="700" fill="#242424">Local AI Runtime</text>
</g>
<g>
  <rect x="1150" y="380" width="125" height="75" rx="3" fill="#FFFFFF" stroke="#8B69D4" stroke-width="1.6"/>
  <svg x="1162" y="403.5" width="28" height="28" viewBox="0 0 24 24" preserveAspectRatio="xMidYMid meet" overflow="visible" aria-hidden="true">

<path fill="#FF6A00" d="M3.996 4.517h5.291L8.01 6.324L4.153 7.506a1.67 1.67 0 0 0-1.165 1.601v5.786a1.67 1.67 0 0 0 1.165 1.6l3.857 1.183l1.277 1.807H3.996A3.996 3.996 0 0 1 0 15.487V8.513a3.996 3.996 0 0 1 3.996-3.996m16.008 0h-5.291l1.277 1.807l3.857 1.182c.715.227 1.17.889 1.165 1.601v5.786a1.67 1.67 0 0 1-1.165 1.6l-3.857 1.183l-1.277 1.807h5.291A3.996 3.996 0 0 0 24 15.487V8.513a3.996 3.996 0 0 0-3.996-3.996m-4.007 8.345H8.002v-1.804h7.995Z"/>
</svg>
  <text x="1226.5" y="408" text-anchor="middle" font-family="DejaVu Sans, sans-serif" font-size="16" font-weight="700" fill="#242424">Qwen3-14B</text>
  <text x="1226.5" y="432" text-anchor="middle" font-family="DejaVu Sans, sans-serif" font-size="12" font-weight="400" fill="#667085"><tspan x="1226.5" dy="0">generation</tspan></text>
</g>
<g>
  <rect x="1300" y="380" width="125" height="75" rx="3" fill="#FFFFFF" stroke="#8B69D4" stroke-width="1.6"/>
  <svg x="1312" y="403.5" width="28" height="28" viewBox="0 0 24 24" preserveAspectRatio="xMidYMid meet" overflow="visible" aria-hidden="true">

<path fill="#FF9D00" d="M12.025 1.13c-5.77 0-10.449 4.647-10.449 10.378c0 1.112.178 2.181.503 3.185c.064-.222.203-.444.416-.577a.96.96 0 0 1 .524-.15c.293 0 .584.124.84.284c.278.173.48.408.71.694c.226.282.458.611.684.951v-.014c.017-.324.106-.622.264-.874s.403-.487.762-.543c.3-.047.596.06.787.203s.31.313.4.467c.15.257.212.468.233.542c.01.026.653 1.552 1.657 2.54c.616.605 1.01 1.223 1.082 1.912c.055.537-.096 1.059-.38 1.572c.637.121 1.294.187 1.967.187c.657 0 1.298-.063 1.921-.178c-.287-.517-.44-1.041-.384-1.581c.07-.69.465-1.307 1.081-1.913c1.004-.987 1.647-2.513 1.657-2.539c.021-.074.083-.285.233-.542c.09-.154.208-.323.4-.467a1.08 1.08 0 0 1 .787-.203c.359.056.604.29.762.543s.247.55.265.874v.015c.225-.34.457-.67.683-.952c.23-.286.432-.52.71-.694c.257-.16.547-.284.84-.285a.97.97 0 0 1 .524.151c.228.143.373.388.43.625l.006.04a10.3 10.3 0 0 0 .534-3.273c0-5.731-4.678-10.378-10.449-10.378M8.327 6.583a1.5 1.5 0 0 1 .713.174a1.487 1.487 0 0 1 .617 2.013c-.183.343-.762-.214-1.102-.094c-.38.134-.532.914-.917.71a1.487 1.487 0 0 1 .69-2.803m7.486 0a1.487 1.487 0 0 1 .689 2.803c-.385.204-.536-.576-.916-.71c-.34-.12-.92.437-1.103.094a1.487 1.487 0 0 1 .617-2.013a1.5 1.5 0 0 1 .713-.174m-10.68 1.55a.96.96 0 1 1 0 1.921a.96.96 0 0 1 0-1.92m13.838 0a.96.96 0 1 1 0 1.92a.96.96 0 0 1 0-1.92M8.489 11.458c.588.01 1.965 1.157 3.572 1.164c1.607-.007 2.984-1.155 3.572-1.164c.196-.003.305.12.305.454c0 .886-.424 2.328-1.563 3.202c-.22-.756-1.396-1.366-1.63-1.32q-.011.001-.02.006l-.044.026l-.01.008l-.03.024q-.018.017-.035.036l-.032.04a1 1 0 0 0-.058.09l-.014.025q-.049.088-.11.19a1 1 0 0 1-.083.116a1.2 1.2 0 0 1-.173.18q-.035.029-.075.058a1.3 1.3 0 0 1-.251-.243a1 1 0 0 1-.076-.107c-.124-.193-.177-.363-.337-.444c-.034-.016-.104-.008-.2.022q-.094.03-.216.087q-.06.028-.125.063l-.13.074q-.067.04-.136.086a3 3 0 0 0-.135.096a3 3 0 0 0-.26.219a2 2 0 0 0-.12.121a2 2 0 0 0-.106.128l-.002.002a2 2 0 0 0-.09.132l-.001.001a1.2 1.2 0 0 0-.105.212q-.013.036-.024.073c-1.139-.875-1.563-2.317-1.563-3.203c0-.334.109-.457.305-.454m.836 10.354c.824-1.19.766-2.082-.365-3.194c-1.13-1.112-1.789-2.738-1.789-2.738s-.246-.945-.806-.858s-.97 1.499.202 2.362c1.173.864-.233 1.45-.685.64c-.45-.812-1.683-2.896-2.322-3.295s-1.089-.175-.938.647s2.822 2.813 2.562 3.244s-1.176-.506-1.176-.506s-2.866-2.567-3.49-1.898s.473 1.23 2.037 2.16c1.564.932 1.686 1.178 1.464 1.53s-3.675-2.511-4-1.297c-.323 1.214 3.524 1.567 3.287 2.405c-.238.839-2.71-1.587-3.216-.642c-.506.946 3.49 2.056 3.522 2.064c1.29.33 4.568 1.028 5.713-.624m5.349 0c-.824-1.19-.766-2.082.365-3.194c1.13-1.112 1.789-2.738 1.789-2.738s.246-.945.806-.858s.97 1.499-.202 2.362c-1.173.864.233 1.45.685.64c.451-.812 1.683-2.896 2.322-3.295s1.089-.175.938.647s-2.822 2.813-2.562 3.244s1.176-.506 1.176-.506s2.866-2.567 3.49-1.898s-.473 1.23-2.037 2.16c-1.564.932-1.686 1.178-1.464 1.53s3.675-2.511 4-1.297c.323 1.214-3.524 1.567-3.287 2.405c.238.839 2.71-1.587 3.216-.642c.506.946-3.49 2.056-3.522 2.064c-1.29.33-4.568 1.028-5.713-.624"/>
</svg>
  <text x="1376.5" y="408" text-anchor="middle" font-family="DejaVu Sans, sans-serif" font-size="16" font-weight="700" fill="#242424">BGE-M3</text>
  <text x="1376.5" y="432" text-anchor="middle" font-family="DejaVu Sans, sans-serif" font-size="12" font-weight="400" fill="#667085"><tspan x="1376.5" dy="0">1024-d vectors</tspan></text>
</g>
<g>
  <rect x="1150" y="500" width="125" height="75" rx="3" fill="#FFFFFF" stroke="#8B69D4" stroke-width="1.6"/>
  <svg x="1162" y="523.5" width="28" height="28" viewBox="0 0 24 24" preserveAspectRatio="xMidYMid meet" overflow="visible" aria-hidden="true">

<path fill="#37814A" d="M2.303 0A2.3 2.3 0 0 0 0 2.303v19.394A2.3 2.3 0 0 0 2.303 24h19.394A2.3 2.3 0 0 0 24 21.697V2.303A2.3 2.3 0 0 0 21.697 0zm8.177 3.072c4.098 0 7.028 1.438 7.68 1.764l-1.194 2.55c-2.442-1.057-4.993-1.41-5.672-1.41c-1.574 0-2.17.922-2.17 1.763v8.494c0 .869.596 1.791 2.17 1.791c.679 0 3.23-.38 5.672-1.41l1.194 2.496c-.435.271-3.637 1.818-7.68 1.818c-1.112 0-4.64-.244-4.64-4.64V7.713c0-4.397 3.528-4.64 4.64-4.64z"/>
</svg>
  <text x="1226.5" y="528" text-anchor="middle" font-family="DejaVu Sans, sans-serif" font-size="16" font-weight="700" fill="#242424">Celery Worker</text>
  <text x="1226.5" y="552" text-anchor="middle" font-family="DejaVu Sans, sans-serif" font-size="12" font-weight="400" fill="#667085"><tspan x="1226.5" dy="0">verification</tspan></text>
</g>
<g>
  <rect x="1300" y="500" width="125" height="75" rx="3" fill="#FFFFFF" stroke="#8B69D4" stroke-width="1.6"/>
  <svg x="1312" y="523.5" width="28" height="28" viewBox="0 0 24 24" preserveAspectRatio="xMidYMid meet" overflow="visible" aria-hidden="true">

<g fill="none" stroke="#E58A3A" stroke-linecap="round" stroke-linejoin="round" stroke-width="2"><path d="M12 6v6h4"/><circle cx="12" cy="12" r="10"/></g>
</svg>
  <text x="1376.5" y="528" text-anchor="middle" font-family="DejaVu Sans, sans-serif" font-size="16" font-weight="700" fill="#242424">Celery Beat</text>
  <text x="1376.5" y="552" text-anchor="middle" font-family="DejaVu Sans, sans-serif" font-size="12" font-weight="400" fill="#667085"><tspan x="1376.5" dy="0">24-hour jobs</tspan></text>
</g>
<g>
  <rect x="1150" y="605" width="275" height="45" rx="3" fill="#FFFFFF" stroke="#8B69D4" stroke-width="1.6"/>
  <svg x="1162" y="613.5" width="28" height="28" viewBox="0 0 24 24" preserveAspectRatio="xMidYMid meet" overflow="visible" aria-hidden="true">

<g fill="none" stroke="#242424" stroke-linecap="round" stroke-linejoin="round" stroke-width="2"><path d="M21 8a2 2 0 0 0-1-1.73l-7-4a2 2 0 0 0-2 0l-7 4A2 2 0 0 0 3 8v8a2 2 0 0 0 1 1.73l7 4a2 2 0 0 0 2 0l7-4A2 2 0 0 0 21 16Z"/><path d="m3.3 7l8.7 5l8.7-5M12 22V12"/></g>
</svg>
  <text x="1301.5" y="633.5" text-anchor="middle" font-family="DejaVu Sans, sans-serif" font-size="16" font-weight="700" fill="#242424">Read-only model volumes</text>
  
</g>
<g>
  <rect x="1585" y="298" width="190" height="124" fill="#FFFFFF" stroke="#4B5563" stroke-width="1.7"/>
  <ellipse cx="1680" cy="298" rx="95" ry="18" fill="#FFFFFF" stroke="#4B5563" stroke-width="1.7"/>
  <ellipse cx="1680" cy="422" rx="95" ry="18" fill="#FFFFFF" stroke="#4B5563" stroke-width="1.7"/>
  <svg x="1653" y="315" width="54" height="54" viewBox="0 0 256 264" preserveAspectRatio="xMidYMid meet" overflow="visible" aria-hidden="true">

<path d="M255.008 158.086c-1.535-4.649-5.556-7.887-10.756-8.664c-2.452-.366-5.26-.21-8.583.475c-5.792 1.195-10.089 1.65-13.225 1.738c11.837-19.985 21.462-42.775 27.003-64.228c8.96-34.689 4.172-50.492-1.423-57.64C233.217 10.847 211.614.683 185.552.372c-13.903-.17-26.108 2.575-32.475 4.549c-5.928-1.046-12.302-1.63-18.99-1.738c-12.537-.2-23.614 2.533-33.079 8.15c-5.24-1.772-13.65-4.27-23.362-5.864c-22.842-3.75-41.252-.828-54.718 8.685C6.622 25.672-.937 45.684.461 73.634c.444 8.874 5.408 35.874 13.224 61.48c4.492 14.718 9.282 26.94 14.237 36.33c7.027 13.315 14.546 21.156 22.987 23.972c4.731 1.576 13.327 2.68 22.368-4.85c1.146 1.388 2.675 2.767 4.704 4.048c2.577 1.625 5.728 2.953 8.875 3.74c11.341 2.835 21.964 2.126 31.027-1.848c.056 1.612.099 3.152.135 4.482c.06 2.157.12 4.272.199 6.25c.537 13.374 1.447 23.773 4.143 31.049c.148.4.347 1.01.557 1.657c1.345 4.118 3.594 11.012 9.316 16.411c5.925 5.593 13.092 7.308 19.656 7.308c3.292 0 6.433-.432 9.188-1.022c9.82-2.105 20.973-5.311 29.041-16.799c7.628-10.86 11.336-27.217 12.007-52.99q.13-1.094.244-2.088l.16-1.362l1.797.158l.463.031c10.002.456 22.232-1.665 29.743-5.154c5.935-2.754 24.954-12.795 20.476-26.351"/><path fill="#336791" d="M237.906 160.722c-29.74 6.135-31.785-3.934-31.785-3.934c31.4-46.593 44.527-105.736 33.2-120.211c-30.904-39.485-84.399-20.811-85.292-20.327l-.287.052c-5.876-1.22-12.451-1.946-19.842-2.067c-13.456-.22-23.664 3.528-31.41 9.402c0 0-95.43-39.314-90.991 49.444c.944 18.882 27.064 142.873 58.218 105.422c11.387-13.695 22.39-25.274 22.39-25.274c5.464 3.63 12.006 5.482 18.864 4.817l.533-.452c-.166 1.7-.09 3.363.213 5.332c-8.026 8.967-5.667 10.541-21.711 13.844c-16.235 3.346-6.698 9.302-.471 10.86c7.549 1.887 25.013 4.561 36.813-11.958l-.47 1.885c3.144 2.519 5.352 16.383 4.982 28.952c-.37 12.568-.617 21.197 1.86 27.937c2.479 6.74 4.948 21.905 26.04 17.386c17.623-3.777 26.756-13.564 28.027-29.89c.901-11.606 2.942-9.89 3.07-20.267l1.637-4.912c1.887-15.733.3-20.809 11.157-18.448l2.64.232c7.99.363 18.45-1.286 24.589-4.139c13.218-6.134 21.058-16.377 8.024-13.686z"/><path fill="#FFF" d="M108.076 81.525c-2.68-.373-5.107-.028-6.335.902c-.69.523-.904 1.129-.962 1.546c-.154 1.105.62 2.327 1.096 2.957c1.346 1.784 3.312 3.01 5.258 3.28q.423.059.842.058c3.245 0 6.196-2.527 6.456-4.392c.325-2.336-3.066-3.893-6.355-4.35m88.784.073c-.256-1.831-3.514-2.353-6.606-1.923c-3.088.43-6.082 1.824-5.832 3.659c.2 1.427 2.777 3.863 5.827 3.863q.387 0 .78-.054c2.036-.282 3.53-1.575 4.24-2.32c1.08-1.136 1.706-2.402 1.591-3.225"/><path fill="#FFF" d="M247.802 160.025c-1.134-3.429-4.784-4.532-10.848-3.28c-18.005 3.716-24.453 1.142-26.57-.417c13.995-21.32 25.508-47.092 31.719-71.137c2.942-11.39 4.567-21.968 4.7-30.59c.147-9.463-1.465-16.417-4.789-20.665c-13.402-17.125-33.072-26.311-56.882-26.563c-16.369-.184-30.199 4.005-32.88 5.183c-5.646-1.404-11.801-2.266-18.502-2.376c-12.288-.199-22.91 2.743-31.704 8.74c-3.82-1.422-13.692-4.811-25.765-6.756c-20.872-3.36-37.458-.814-49.294 7.571c-14.123 10.006-20.643 27.892-19.38 53.16c.425 8.501 5.269 34.653 12.913 59.698c10.062 32.964 21 51.625 32.508 55.464c1.347.449 2.9.763 4.613.763c4.198 0 9.345-1.892 14.7-8.33a530 530 0 0 1 20.261-22.926c4.524 2.428 9.494 3.784 14.577 3.92q.016.2.035.398a118 118 0 0 0-2.57 3.175c-3.522 4.471-4.255 5.402-15.592 7.736c-3.225.666-11.79 2.431-11.916 8.435c-.136 6.56 10.125 9.315 11.294 9.607c4.074 1.02 7.999 1.523 11.742 1.523c9.103 0 17.114-2.992 23.516-8.781c-.197 23.386.778 46.43 3.586 53.451c2.3 5.748 7.918 19.795 25.664 19.794c2.604 0 5.47-.303 8.623-.979c18.521-3.97 26.564-12.156 29.675-30.203c1.665-9.645 4.522-32.676 5.866-45.03c2.836.885 6.487 1.29 10.434 1.289c8.232 0 17.731-1.749 23.688-4.514c6.692-3.108 18.768-10.734 16.578-17.36m-44.106-83.48c-.061 3.647-.563 6.958-1.095 10.414c-.573 3.717-1.165 7.56-1.314 12.225c-.147 4.54.42 9.26.968 13.825c1.108 9.22 2.245 18.712-2.156 28.078a37 37 0 0 1-1.95-4.009c-.547-1.326-1.735-3.456-3.38-6.404c-6.399-11.476-21.384-38.35-13.713-49.316c2.285-3.264 8.084-6.62 22.64-4.813m-17.644-61.787c21.334.471 38.21 8.452 50.158 23.72c9.164 11.711-.927 64.998-30.14 110.969a171 171 0 0 0-.886-1.117l-.37-.462c7.549-12.467 6.073-24.802 4.759-35.738c-.54-4.488-1.05-8.727-.92-12.709c.134-4.22.692-7.84 1.232-11.34c.663-4.313 1.338-8.776 1.152-14.037c.139-.552.195-1.204.122-1.978c-.475-5.045-6.235-20.144-17.975-33.81c-6.422-7.475-15.787-15.84-28.574-21.482c5.5-1.14 13.021-2.203 21.442-2.016M66.674 175.778c-5.9 7.094-9.974 5.734-11.314 5.288c-8.73-2.912-18.86-21.364-27.791-50.624c-7.728-25.318-12.244-50.777-12.602-57.916c-1.128-22.578 4.345-38.313 16.268-46.769c19.404-13.76 51.306-5.524 64.125-1.347c-.184.182-.376.352-.558.537c-21.036 21.244-20.537 57.54-20.485 59.759c-.002.856.07 2.068.168 3.735c.362 6.105 1.036 17.467-.764 30.334c-1.672 11.957 2.014 23.66 10.111 32.109a36 36 0 0 0 2.617 2.468c-3.604 3.86-11.437 12.396-19.775 22.426m22.479-29.993c-6.526-6.81-9.49-16.282-8.133-25.99c1.9-13.592 1.199-25.43.822-31.79c-.053-.89-.1-1.67-.127-2.285c3.073-2.725 17.314-10.355 27.47-8.028c4.634 1.061 7.458 4.217 8.632 9.645c6.076 28.103.804 39.816-3.432 49.229c-.873 1.939-1.698 3.772-2.402 5.668l-.546 1.466c-1.382 3.706-2.668 7.152-3.465 10.424c-6.938-.02-13.687-2.984-18.819-8.34m1.065 37.9c-2.026-.506-3.848-1.385-4.917-2.114c.893-.42 2.482-.992 5.238-1.56c13.337-2.745 15.397-4.683 19.895-10.394c1.031-1.31 2.2-2.794 3.819-4.602l.002-.002c2.411-2.7 3.514-2.242 5.514-1.412c1.621.67 3.2 2.702 3.84 4.938c.303 1.056.643 3.06-.47 4.62c-9.396 13.156-23.088 12.987-32.921 10.526m69.799 64.952c-16.316 3.496-22.093-4.829-25.9-14.346c-2.457-6.144-3.665-33.85-2.808-64.447c.011-.407-.047-.8-.159-1.17a15.4 15.4 0 0 0-.456-2.162c-1.274-4.452-4.379-8.176-8.104-9.72c-1.48-.613-4.196-1.738-7.46-.903c.696-2.868 1.903-6.107 3.212-9.614l.549-1.475c.618-1.663 1.394-3.386 2.214-5.21c4.433-9.848 10.504-23.337 3.915-53.81c-2.468-11.414-10.71-16.988-23.204-15.693c-7.49.775-14.343 3.797-17.761 5.53c-.735.372-1.407.732-2.035 1.082c.954-11.5 4.558-32.992 18.04-46.59c8.489-8.56 19.794-12.788 33.568-12.56c27.14.444 44.544 14.372 54.366 25.979c8.464 10.001 13.047 20.076 14.876 25.51c-13.755-1.399-23.11 1.316-27.852 8.096c-10.317 14.748 5.644 43.372 13.315 57.129c1.407 2.521 2.621 4.7 3.003 5.626c2.498 6.054 5.732 10.096 8.093 13.046c.724.904 1.426 1.781 1.96 2.547c-4.166 1.201-11.649 3.976-10.967 17.847c-.55 6.96-4.461 39.546-6.448 51.059c-2.623 15.21-8.22 20.875-23.957 24.25m68.104-77.936c-4.26 1.977-11.389 3.46-18.161 3.779c-7.48.35-11.288-.838-12.184-1.569c-.42-8.644 2.797-9.547 6.202-10.503c.535-.15 1.057-.297 1.561-.473q.469.383 1.032.756c6.012 3.968 16.735 4.396 31.874 1.271l.166-.033c-2.042 1.909-5.536 4.471-10.49 6.772"/>
</svg>
  <text x="1680" y="385" text-anchor="middle" font-family="DejaVu Sans, sans-serif" font-size="16" font-weight="700" fill="#242424">PostgreSQL 16</text>
  <text x="1680" y="404" text-anchor="middle" font-family="DejaVu Sans, sans-serif" font-size="11" font-weight="400" fill="#667085"><tspan x="1680" dy="0">pgvector · BM25 · system of record</tspan></text>
</g>
<g>
  <rect x="1585" y="498" width="190" height="114" fill="#FFFFFF" stroke="#4B5563" stroke-width="1.7"/>
  <ellipse cx="1680" cy="498" rx="95" ry="18" fill="#FFFFFF" stroke="#4B5563" stroke-width="1.7"/>
  <ellipse cx="1680" cy="612" rx="95" ry="18" fill="#FFFFFF" stroke="#4B5563" stroke-width="1.7"/>
  <svg x="1653" y="515" width="54" height="54" viewBox="0 0 512 170" preserveAspectRatio="xMidYMid meet" overflow="visible" aria-hidden="true">

<path d="M95.217 35.541h.235c-27.905 0-46.665 16.074-46.665 47.703v19.278a26 26 0 0 1 9.097-2.12a17.7 17.7 0 0 1 9.145 2.12V83.244c0-20.364 11.266-31.11 28.282-31.11s28.282 10.746 28.282 31.11v49.305h18.242V83.244c0-31.63-18.855-47.703-46.618-47.703m56.705 49.824h-.188c0-28.942 20.881-49.824 50.907-49.824c30.027 0 50.39 21.023 50.39 49.824v6.457h-82.018c2.133 15.633 15.87 27.036 31.628 26.256c12.35 0 20.93-3.724 26.303-11.785h19.986c-7.495 17.677-24.653 28.942-46.619 28.942c-29.507 0-50.389-20.881-50.389-49.87m82.537-9.428c-3.446-14.478-16.77-24.406-31.629-23.568c-14.729-.81-27.877 9.166-31.063 23.568zm28.612 9.428c0-28.336 20.396-49.144 49.65-49.808l1.446-.016a49.02 49.02 0 0 1 50.955 49.824c0 28.989-20.929 49.87-50.955 49.87s-51.096-20.881-51.096-49.87m83.055 0a30.922 30.922 0 0 0-32.666-32.666a31.487 31.487 0 0 0-32.713 32.666a30.97 30.97 0 0 0 32.713 32.713c19.845.565 32.666-13.387 32.666-32.713m159.463-43.413v90.03c0 23.57-9.144 35.4-32.713 35.4h-3.77v-15.507h2.168c11.784 0 16.073-5.374 16.073-18.855V41.952zm-61.136-18.384a22.39 22.39 0 0 1 15.555 21.448v58.072h10.7v16.074h-10.7v22.531h-18.242v-22.531h-46.1a22.72 22.72 0 0 1-20.928-11.784a19.75 19.75 0 0 1 2.687-21.448l41.197-54.16a22.63 22.63 0 0 1 25.831-8.202m-5.986 17.3h-1.603a4.71 4.71 0 0 0-3.77 2.168L392.46 96.112a3.9 3.9 0 0 0-1.084 2.687a4.714 4.714 0 0 0 4.714 4.713h45.58V45.157c0-3.205-2.12-4.29-3.204-4.29"/><path fill="#018BFF" d="M496.445 0c-8.591 0-15.555 6.964-15.555 15.555s6.964 15.555 15.555 15.555S512 24.146 512 15.555S505.036 0 496.445 0M56.847 109.499a12.77 12.77 0 0 0-9.144 3.205l-17.158-11.219a11.4 11.4 0 0 0 .566-4.289a15.555 15.555 0 1 0-15.555 15.508a12.5 12.5 0 0 0 9.097-3.205l17.158 11.784c-.425 1.388-.6 2.84-.519 4.29c-.086 1.449.09 2.902.519 4.289l-17.158 11.831a14.47 14.47 0 0 0-9.097-3.252a15.555 15.555 0 1 0 15.555 15.555c.091-1.453-.1-2.91-.566-4.29l17.158-11.784a14.42 14.42 0 0 0 9.144 3.205a15.51 15.51 0 0 0 15.509-15.555c.054-8.68-6.831-15.817-15.509-16.073"/>
</svg>
  <text x="1680" y="585" text-anchor="middle" font-family="DejaVu Sans, sans-serif" font-size="16" font-weight="700" fill="#242424">Neo4j 5.26</text>
  <text x="1680" y="604" text-anchor="middle" font-family="DejaVu Sans, sans-serif" font-size="11" font-weight="400" fill="#667085"><tspan x="1680" dy="0">legal graph projection</tspan></text>
</g>
<g>
  <rect x="1585" y="650" width="190" height="40" rx="3" fill="#FFFFFF" stroke="#6F8FF7" stroke-width="1.6"/>
  <svg x="1597" y="656" width="28" height="28" viewBox="0 0 256 185" preserveAspectRatio="xMidYMid meet" overflow="visible" aria-hidden="true">

<path fill="#2396ED" d="M250.716 70.497c-5.765-4-18.976-5.5-29.304-3.5c-1.2-10-6.725-18.749-16.333-26.499l-5.524-4l-3.844 5.75c-4.803 7.5-7.205 18-6.485 28c.24 3.499 1.441 9.749 5.044 15.249c-3.362 2-10.328 4.5-19.455 4.5H1.155l-.48 2c-1.682 9.999-1.682 41.248 18.014 65.247c14.892 18.249 36.99 27.499 66.053 27.499c62.93 0 109.528-30.25 131.386-84.997c8.647.25 27.142 0 36.51-18.75c.24-.5.72-1.5 2.401-5.249l.961-2zM139.986 0h-26.42v24.999h26.42zm0 29.999h-26.42v24.999h26.42zm-31.225 0h-26.42v24.999h26.42zm-31.225 0H51.115v24.999h26.421zM46.311 59.998H19.89v24.999h26.42zm31.225 0H51.115v24.999h26.421zm31.225 0h-26.42v24.999h26.42zm31.226 0h-26.422v24.999h26.422zm31.225 0H144.79v24.999h26.422z"/>
</svg>
  <text x="1694" y="676" text-anchor="middle" font-family="DejaVu Sans, sans-serif" font-size="16" font-weight="700" fill="#242424">Docker volumes</text>
  
</g>
<g>
  <svg x="741" y="825" width="48" height="48" viewBox="0 0 256 262" preserveAspectRatio="xMidYMid meet" overflow="visible" aria-label="Google OIDC">
<title>Google OIDC</title>
<path fill="#4285F4" d="M255.878 133.451c0-10.734-.871-18.567-2.756-26.69H130.55v48.448h71.947c-1.45 12.04-9.283 30.172-26.69 42.356l-.244 1.622l38.755 30.023l2.685.268c24.659-22.774 38.875-56.282 38.875-96.027"/><path fill="#34A853" d="M130.55 261.1c35.248 0 64.839-11.605 86.453-31.622l-41.196-31.913c-11.024 7.688-25.82 13.055-45.257 13.055c-34.523 0-63.824-22.773-74.269-54.25l-1.531.13l-40.298 31.187l-.527 1.465C35.393 231.798 79.49 261.1 130.55 261.1"/><path fill="#FBBC05" d="M56.281 156.37c-2.756-8.123-4.351-16.827-4.351-25.82c0-8.994 1.595-17.697 4.206-25.82l-.073-1.73L15.26 71.312l-1.335.635C5.077 89.644 0 109.517 0 130.55s5.077 40.905 13.925 58.602z"/><path fill="#EB4335" d="M130.55 50.479c24.514 0 41.05 10.589 50.479 19.438l36.844-35.974C195.245 12.91 165.798 0 130.55 0C79.49 0 35.393 29.301 13.925 71.947l42.211 32.783c10.59-31.477 39.891-54.251 74.414-54.251"/>
</svg>
  <text x="765" y="893" text-anchor="middle" font-family="DejaVu Sans, sans-serif" font-size="13" font-weight="600" fill="#242424">Google OIDC</text>
  
</g>
<g>
  <svg x="901" y="825" width="48" height="48" viewBox="0 0 24 24" preserveAspectRatio="xMidYMid meet" overflow="visible" aria-label="Tavily">
<title>Tavily</title>
<g fill="none" stroke="#069A8E" stroke-linecap="round" stroke-linejoin="round" stroke-width="2"><path d="m21 21l-4.34-4.34"/><circle cx="11" cy="11" r="8"/></g>
</svg>
  <text x="925" y="893" text-anchor="middle" font-family="DejaVu Sans, sans-serif" font-size="13" font-weight="600" fill="#242424">Tavily</text>
  
</g>
<g>
  <svg x="1061" y="825" width="48" height="48" viewBox="0 0 24 24" preserveAspectRatio="xMidYMid meet" overflow="visible" aria-label="Hugging Face">
<title>Hugging Face</title>
<path fill="#FF9D00" d="M12.025 1.13c-5.77 0-10.449 4.647-10.449 10.378c0 1.112.178 2.181.503 3.185c.064-.222.203-.444.416-.577a.96.96 0 0 1 .524-.15c.293 0 .584.124.84.284c.278.173.48.408.71.694c.226.282.458.611.684.951v-.014c.017-.324.106-.622.264-.874s.403-.487.762-.543c.3-.047.596.06.787.203s.31.313.4.467c.15.257.212.468.233.542c.01.026.653 1.552 1.657 2.54c.616.605 1.01 1.223 1.082 1.912c.055.537-.096 1.059-.38 1.572c.637.121 1.294.187 1.967.187c.657 0 1.298-.063 1.921-.178c-.287-.517-.44-1.041-.384-1.581c.07-.69.465-1.307 1.081-1.913c1.004-.987 1.647-2.513 1.657-2.539c.021-.074.083-.285.233-.542c.09-.154.208-.323.4-.467a1.08 1.08 0 0 1 .787-.203c.359.056.604.29.762.543s.247.55.265.874v.015c.225-.34.457-.67.683-.952c.23-.286.432-.52.71-.694c.257-.16.547-.284.84-.285a.97.97 0 0 1 .524.151c.228.143.373.388.43.625l.006.04a10.3 10.3 0 0 0 .534-3.273c0-5.731-4.678-10.378-10.449-10.378M8.327 6.583a1.5 1.5 0 0 1 .713.174a1.487 1.487 0 0 1 .617 2.013c-.183.343-.762-.214-1.102-.094c-.38.134-.532.914-.917.71a1.487 1.487 0 0 1 .69-2.803m7.486 0a1.487 1.487 0 0 1 .689 2.803c-.385.204-.536-.576-.916-.71c-.34-.12-.92.437-1.103.094a1.487 1.487 0 0 1 .617-2.013a1.5 1.5 0 0 1 .713-.174m-10.68 1.55a.96.96 0 1 1 0 1.921a.96.96 0 0 1 0-1.92m13.838 0a.96.96 0 1 1 0 1.92a.96.96 0 0 1 0-1.92M8.489 11.458c.588.01 1.965 1.157 3.572 1.164c1.607-.007 2.984-1.155 3.572-1.164c.196-.003.305.12.305.454c0 .886-.424 2.328-1.563 3.202c-.22-.756-1.396-1.366-1.63-1.32q-.011.001-.02.006l-.044.026l-.01.008l-.03.024q-.018.017-.035.036l-.032.04a1 1 0 0 0-.058.09l-.014.025q-.049.088-.11.19a1 1 0 0 1-.083.116a1.2 1.2 0 0 1-.173.18q-.035.029-.075.058a1.3 1.3 0 0 1-.251-.243a1 1 0 0 1-.076-.107c-.124-.193-.177-.363-.337-.444c-.034-.016-.104-.008-.2.022q-.094.03-.216.087q-.06.028-.125.063l-.13.074q-.067.04-.136.086a3 3 0 0 0-.135.096a3 3 0 0 0-.26.219a2 2 0 0 0-.12.121a2 2 0 0 0-.106.128l-.002.002a2 2 0 0 0-.09.132l-.001.001a1.2 1.2 0 0 0-.105.212q-.013.036-.024.073c-1.139-.875-1.563-2.317-1.563-3.203c0-.334.109-.457.305-.454m.836 10.354c.824-1.19.766-2.082-.365-3.194c-1.13-1.112-1.789-2.738-1.789-2.738s-.246-.945-.806-.858s-.97 1.499.202 2.362c1.173.864-.233 1.45-.685.64c-.45-.812-1.683-2.896-2.322-3.295s-1.089-.175-.938.647s2.822 2.813 2.562 3.244s-1.176-.506-1.176-.506s-2.866-2.567-3.49-1.898s.473 1.23 2.037 2.16c1.564.932 1.686 1.178 1.464 1.53s-3.675-2.511-4-1.297c-.323 1.214 3.524 1.567 3.287 2.405c-.238.839-2.71-1.587-3.216-.642c-.506.946 3.49 2.056 3.522 2.064c1.29.33 4.568 1.028 5.713-.624m5.349 0c-.824-1.19-.766-2.082.365-3.194c1.13-1.112 1.789-2.738 1.789-2.738s.246-.945.806-.858s.97 1.499-.202 2.362c-1.173.864.233 1.45.685.64c.451-.812 1.683-2.896 2.322-3.295s1.089-.175.938.647s-2.822 2.813-2.562 3.244s1.176-.506 1.176-.506s2.866-2.567 3.49-1.898s-.473 1.23-2.037 2.16c-1.564.932-1.686 1.178-1.464 1.53s3.675-2.511 4-1.297c.323 1.214-3.524 1.567-3.287 2.405c.238.839 2.71-1.587 3.216-.642c.506.946-3.49 2.056-3.522 2.064c-1.29.33-4.568 1.028-5.713-.624"/>
</svg>
  <text x="1085" y="893" text-anchor="middle" font-family="DejaVu Sans, sans-serif" font-size="13" font-weight="600" fill="#242424">Hugging Face</text>
  
</g>
<g>
  <svg x="1246" y="825" width="48" height="48" viewBox="0 0 24 24" preserveAspectRatio="xMidYMid meet" overflow="visible" aria-label="Official Legal Sources">
<title>Official Legal Sources</title>
<g fill="none" stroke="#8B69D4" stroke-linecap="round" stroke-linejoin="round" stroke-width="2"><path d="M12 3v18m7-13l3 8a5 5 0 0 1-6 0zV7"/><path d="M3 7h1a17 17 0 0 0 8-2a17 17 0 0 0 8 2h1M5 8l3 8a5 5 0 0 1-6 0zV7m2 14h10"/></g>
</svg>
  <text x="1270" y="893" text-anchor="middle" font-family="DejaVu Sans, sans-serif" font-size="13" font-weight="600" fill="#242424">Official Legal Sources</text>
  
</g>
<g>
  <svg x="1521" y="825" width="48" height="48" viewBox="0 0 24 24" preserveAspectRatio="xMidYMid meet" overflow="visible" aria-label="SQLite">
<title>SQLite</title>
<path fill="#0F80CC" d="M21.678.521c-1.032-.92-2.28-.55-3.513.544a9 9 0 0 0-.547.535c-2.109 2.237-4.066 6.38-4.674 9.544c.237.48.422 1.093.544 1.561a13 13 0 0 1 .164.703s-.019-.071-.096-.296l-.05-.146l-.033-.08c-.138-.32-.518-.995-.686-1.289c-.143.423-.27.818-.376 1.176c.484.884.778 2.4.778 2.4s-.025-.099-.147-.442c-.107-.303-.644-1.244-.772-1.464c-.217.804-.304 1.346-.226 1.478c.152.256.296.698.422 1.186c.286 1.1.485 2.44.485 2.44l.017.224a22 22 0 0 0 .056 2.748c.095 1.146.273 2.13.5 2.657l.155-.084c-.334-1.038-.47-2.399-.41-3.967c.09-2.398.642-5.29 1.661-8.304c1.723-4.55 4.113-8.201 6.3-9.945c-1.993 1.8-4.692 7.63-5.5 9.788c-.904 2.416-1.545 4.684-1.931 6.857c.666-2.037 2.821-2.912 2.821-2.912s1.057-1.304 2.292-3.166c-.74.169-1.955.458-2.362.629c-.6.251-.762.337-.762.337s1.945-1.184 3.613-1.72C21.695 7.9 24.195 2.767 21.678.521m-18.573.543A1.84 1.84 0 0 0 1.27 2.9v16.608a1.84 1.84 0 0 0 1.835 1.834h9.418a23 23 0 0 1-.052-2.707c-.006-.062-.011-.141-.016-.2a27 27 0 0 0-.473-2.378c-.121-.47-.275-.898-.369-1.057c-.116-.197-.098-.31-.097-.432c0-.12.015-.245.037-.386a10 10 0 0 1 .234-1.045l.217-.028c-.017-.035-.014-.065-.031-.097l-.041-.381a33 33 0 0 1 .382-1.194l.2-.019c-.008-.016-.01-.038-.018-.053l-.043-.316c.63-3.28 2.587-7.443 4.8-9.791c.066-.069.133-.128.198-.194Z"/>
</svg>
  <text x="1545" y="893" text-anchor="middle" font-family="DejaVu Sans, sans-serif" font-size="13" font-weight="600" fill="#242424">SQLite</text>
  
</g>
<g>
  <svg x="1621" y="825" width="48" height="48" viewBox="0 0 24 24" preserveAspectRatio="xMidYMid meet" overflow="visible" aria-label="JSONL">
<title>JSONL</title>
<g fill="none" stroke="#242424" stroke-linecap="round" stroke-linejoin="round" stroke-width="2"><path d="M6 22a2 2 0 0 1-2-2V4a2 2 0 0 1 2-2h8a2.4 2.4 0 0 1 1.704.706l3.588 3.588A2.4 2.4 0 0 1 20 8v12a2 2 0 0 1-2 2z"/><path d="M14 2v5a1 1 0 0 0 1 1h5M10 9H8m8 4H8m8 4H8"/></g>
</svg>
  <text x="1645" y="893" text-anchor="middle" font-family="DejaVu Sans, sans-serif" font-size="13" font-weight="600" fill="#242424">JSONL</text>
  
</g>
<g>
  <svg x="1716" y="825" width="48" height="48" viewBox="0 0 24 24" preserveAspectRatio="xMidYMid meet" overflow="visible" aria-label="Alembic">
<title>Alembic</title>
<path fill="#3776AB" d="m14.25.18l.9.2l.73.26l.59.3l.45.32l.34.34l.25.34l.16.33l.1.3l.04.26l.02.2l-.01.13V8.5l-.05.63l-.13.55l-.21.46l-.26.38l-.3.31l-.33.25l-.35.19l-.35.14l-.33.1l-.3.07l-.26.04l-.21.02H8.77l-.69.05l-.59.14l-.5.22l-.41.27l-.33.32l-.27.35l-.2.36l-.15.37l-.1.35l-.07.32l-.04.27l-.02.21v3.06H3.17l-.21-.03l-.28-.07l-.32-.12l-.35-.18l-.36-.26l-.36-.36l-.35-.46l-.32-.59l-.28-.73l-.21-.88l-.14-1.05l-.05-1.23l.06-1.22l.16-1.04l.24-.87l.32-.71l.36-.57l.4-.44l.42-.33l.42-.24l.4-.16l.36-.1l.32-.05l.24-.01h.16l.06.01h8.16v-.83H6.18l-.01-2.75l-.02-.37l.05-.34l.11-.31l.17-.28l.25-.26l.31-.23l.38-.2l.44-.18l.51-.15l.58-.12l.64-.1l.71-.06l.77-.04l.84-.02l1.27.05zm-6.3 1.98l-.23.33l-.08.41l.08.41l.23.34l.33.22l.41.09l.41-.09l.33-.22l.23-.34l.08-.41l-.08-.41l-.23-.33l-.33-.22l-.41-.09l-.41.09zm13.09 3.95l.28.06l.32.12l.35.18l.36.27l.36.35l.35.47l.32.59l.28.73l.21.88l.14 1.04l.05 1.23l-.06 1.23l-.16 1.04l-.24.86l-.32.71l-.36.57l-.4.45l-.42.33l-.42.24l-.4.16l-.36.09l-.32.05l-.24.02l-.16-.01h-8.22v.82h5.84l.01 2.76l.02.36l-.05.34l-.11.31l-.17.29l-.25.25l-.31.24l-.38.2l-.44.17l-.51.15l-.58.13l-.64.09l-.71.07l-.77.04l-.84.01l-1.27-.04l-1.07-.14l-.9-.2l-.73-.25l-.59-.3l-.45-.33l-.34-.34l-.25-.34l-.16-.33l-.1-.3l-.04-.25l-.02-.2l.01-.13v-5.34l.05-.64l.13-.54l.21-.46l.26-.38l.3-.32l.33-.24l.35-.2l.35-.14l.33-.1l.3-.06l.26-.04l.21-.02l.13-.01h5.84l.69-.05l.59-.14l.5-.21l.41-.28l.33-.32l.27-.35l.2-.36l.15-.36l.1-.35l.07-.32l.04-.28l.02-.21V6.07h2.09l.14.01zm-6.47 14.25l-.23.33l-.08.41l.08.41l.23.33l.33.23l.41.08l.41-.08l.33-.23l.23-.33l.08-.41l-.08-.41l-.23-.33l-.33-.23l-.41-.08l-.41.08z"/>
</svg>
  <text x="1740" y="893" text-anchor="middle" font-family="DejaVu Sans, sans-serif" font-size="13" font-weight="600" fill="#242424">Alembic</text>
  
</g>
<g>
  <rect x="1515" y="925" width="270" height="50" rx="3" fill="#FFFFFF" stroke="#8B69D4" stroke-width="1.6"/>
  <svg x="1527" y="936" width="28" height="28" viewBox="0 0 24 24" preserveAspectRatio="xMidYMid meet" overflow="visible" aria-hidden="true">

<g fill="none" stroke="#242424" stroke-linecap="round" stroke-linejoin="round" stroke-width="2"><rect width="8" height="8" x="3" y="3" rx="2"/><path d="M7 11v4a2 2 0 0 0 2 2h4"/><rect width="8" height="8" x="13" y="13" rx="2"/></g>
</svg>
  <text x="1664" y="956" text-anchor="middle" font-family="DejaVu Sans, sans-serif" font-size="16" font-weight="700" fill="#242424">Reindex · migrate · model init</text>
  
</g>
<g>
  <path d="M 215 405 L 280 405 L 280 382 L 335 382" fill="none" stroke="#4B5563" stroke-width="1.6" marker-end="url(#arrow-ink)"/>
  <g>
  <rect x="243" y="377" width="54" height="22" rx="2" fill="#F7F6EF" fill-opacity="0.96"/>
  <text x="270" y="393" text-anchor="middle" font-family="DejaVu Sans, sans-serif" font-size="11" font-weight="500" fill="#667085">HTTPS</text>
</g>
</g>
<g>
  <path d="M 475 435 L 475 485" fill="none" stroke="#4B5563" stroke-width="1.6" marker-end="url(#arrow-ink)"/>
  
</g>
<g>
  <path d="M 475 585 L 475 625" fill="none" stroke="#4B5563" stroke-width="1.6" marker-end="url(#arrow-ink)"/>
  
</g>
<g>
  <path d="M 615 535 L 690 535 L 690 415 L 785 415" fill="none" stroke="#069A8E" stroke-width="1.6" marker-end="url(#arrow-data)"/>
  <g>
  <rect x="660.4" y="384" width="59.2" height="22" rx="2" fill="#F7F6EF" fill-opacity="0.96"/>
  <text x="690" y="400" text-anchor="middle" font-family="DejaVu Sans, sans-serif" font-size="11" font-weight="500" fill="#667085">/api/*</text>
</g>
</g>
<g>
  <path d="M 910 415 L 930 415" fill="none" stroke="#069A8E" stroke-width="1.6" marker-end="url(#arrow-data)"/>
  
</g>
<g>
  <path d="M 992 450 L 992 570" fill="none" stroke="#4B5563" stroke-width="1.6" marker-end="url(#arrow-ink)"/>
  
</g>
<g>
  <path d="M 910 605 L 925 605" fill="none" stroke="#4B5563" stroke-width="1.6" marker-end="url(#arrow-ink)"/>
  
</g>
<g>
  <path d="M 1055 605 L 1100 605 L 1100 418 L 1150 418" fill="none" stroke="#069A8E" stroke-width="1.6" marker-end="url(#arrow-data)"/>
  
</g>
<g>
  <path d="M 1055 605 L 1100 605 L 1100 538 L 1150 538" fill="none" stroke="#8B69D4" stroke-width="1.6" stroke-dasharray="7 6" marker-end="url(#arrow-async)"/>
  
</g>
<g>
  <path d="M 1275 418 L 1300 418" fill="none" stroke="#069A8E" stroke-width="1.6" marker-end="url(#arrow-data)"/>
  
</g>
<g>
  <path d="M 1080 410 L 1520 410 L 1520 360 L 1585 360" fill="none" stroke="#4B5563" stroke-width="1.6" marker-end="url(#arrow-ink)"/>
  <g>
  <rect x="1395.2" y="382" width="109.60000000000001" height="22" rx="2" fill="#F7F6EF" fill-opacity="0.96"/>
  <text x="1450" y="398" text-anchor="middle" font-family="DejaVu Sans, sans-serif" font-size="11" font-weight="500" fill="#667085">SQL / vectors</text>
</g>
</g>
<g>
  <path d="M 1080 600 L 1505 600 L 1505 555 L 1585 555" fill="none" stroke="#069A8E" stroke-width="1.6" marker-end="url(#arrow-data)"/>
  <g>
  <rect x="1377.2" y="571" width="145.6" height="22" rx="2" fill="#F7F6EF" fill-opacity="0.96"/>
  <text x="1450" y="587" text-anchor="middle" font-family="DejaVu Sans, sans-serif" font-size="11" font-weight="500" fill="#667085">node_id / chunk_id</text>
</g>
</g>
<g>
  <path d="M 1212 575 L 1212 790 L 925 790 L 925 825" fill="none" stroke="#8B69D4" stroke-width="1.6" stroke-dasharray="7 6" marker-end="url(#arrow-async)"/>
  <g>
  <rect x="1094.6" y="762" width="80.8" height="22" rx="2" fill="#F7F6EF" fill-opacity="0.96"/>
  <text x="1135" y="778" text-anchor="middle" font-family="DejaVu Sans, sans-serif" font-size="11" font-weight="500" fill="#667085">freshness</text>
</g>
</g>
<g>
  <path d="M 1338 455 L 1338 790 L 1085 790 L 1085 825" fill="none" stroke="#89919D" stroke-width="1.6" stroke-dasharray="4 5" marker-end="url(#arrow-subtle)"/>
  <g>
  <rect x="1216" y="762" width="88" height="22" rx="2" fill="#F7F6EF" fill-opacity="0.96"/>
  <text x="1260" y="778" text-anchor="middle" font-family="DejaVu Sans, sans-serif" font-size="11" font-weight="500" fill="#667085">model init</text>
</g>
</g>
<g>
  <path d="M 1270 873 L 1270 900 L 1420 900 L 1420 360 L 1585 360" fill="none" stroke="#89919D" stroke-width="1.6" stroke-dasharray="4 5" marker-end="url(#arrow-subtle)"/>
  <g>
  <rect x="1409.4" y="869" width="131.2" height="22" rx="2" fill="#F7F6EF" fill-opacity="0.96"/>
  <text x="1475" y="885" text-anchor="middle" font-family="DejaVu Sans, sans-serif" font-size="11" font-weight="500" fill="#667085">verified sources</text>
</g>
</g>
<g>
  <path d="M 1645 873 L 1645 925" fill="none" stroke="#89919D" stroke-width="1.6" stroke-dasharray="4 5" marker-end="url(#arrow-subtle)"/>
  
</g>
<g>
  <path d="M 1650 925 L 1500 925 L 1500 555 L 1585 555" fill="none" stroke="#8B69D4" stroke-width="1.6" stroke-dasharray="7 6" marker-end="url(#arrow-async)"/>
  <g>
  <rect x="1456" y="722" width="124" height="22" rx="2" fill="#F7F6EF" fill-opacity="0.96"/>
  <text x="1518" y="738" text-anchor="middle" font-family="DejaVu Sans, sans-serif" font-size="11" font-weight="500" fill="#667085">projection sync</text>
</g>
</g>
</svg>