<svg xmlns="http://www.w3.org/2000/svg" viewBox="0 0 1920 1080" width="1920" height="1080">
<title>Application workflow</title>
<desc>VLegalAI · guest and authenticated journeys converge on the same verified legal intelligence</desc>
<defs>
  <pattern id="minor-grid" width="12" height="12" patternUnits="userSpaceOnUse">
    <path d="M 12 0 L 0 0 0 12" fill="none" stroke="#E7E6DF" stroke-width="0.65"/>
  </pattern>
  <pattern id="major-grid" width="60" height="60" patternUnits="userSpaceOnUse">
    <rect width="60" height="60" fill="url(#minor-grid)"/>
    <path d="M 60 0 L 0 0 0 60" fill="none" stroke="#D8D7D0" stroke-width="0.9"/>
  </pattern>
  <marker id="arrow-ink" markerWidth="9" markerHeight="7" refX="8" refY="3.5" orient="auto"><path d="M0,0 L9,3.5 L0,7 Z" fill="#4B5563"/></marker>
  <marker id="arrow-data" markerWidth="9" markerHeight="7" refX="8" refY="3.5" orient="auto"><path d="M0,0 L9,3.5 L0,7 Z" fill="#069A8E"/></marker>
  <marker id="arrow-async" markerWidth="9" markerHeight="7" refX="8" refY="3.5" orient="auto"><path d="M0,0 L9,3.5 L0,7 Z" fill="#8B69D4"/></marker>
  <marker id="arrow-subtle" markerWidth="9" markerHeight="7" refX="8" refY="3.5" orient="auto"><path d="M0,0 L9,3.5 L0,7 Z" fill="#89919D"/></marker>
</defs>
<rect x="0" y="0" width="1920" height="1080" fill="#F7F6EF"/>
<text x="42" y="96" text-anchor="start" font-family="DejaVu Serif, serif" font-size="76" font-weight="400" fill="#242424">Application workflow</text>
<text x="46" y="128" text-anchor="start" font-family="DejaVu Sans, sans-serif" font-size="14" font-weight="400" fill="#667085">VLegalAI · guest and authenticated journeys converge on the same verified legal intelligence</text>
<rect x="70" y="150" width="1800" height="895" fill="url(#major-grid)" stroke="#D8D7D0" stroke-width="1"/>
<svg x="95" y="250" width="74" height="74" viewBox="0 0 24 24" preserveAspectRatio="xMidYMid meet" overflow="visible" aria-hidden="true">

<g fill="none" stroke="#242424" stroke-linecap="round" stroke-linejoin="round" stroke-width="2"><path d="M16 21v-2a4 4 0 0 0-4-4H6a4 4 0 0 0-4 4v2M16 3.128a4 4 0 0 1 0 7.744M22 21v-2a4 4 0 0 0-3-3.87"/><circle cx="9" cy="7" r="4"/></g>
</svg>
<text x="132" y="345" text-anchor="middle" font-family="DejaVu Sans, sans-serif" font-size="18" font-weight="700" fill="#242424">User</text>
<g>
  <rect x="215" y="255" width="190" height="80" rx="3" fill="#FFFFFF" stroke="#6F8FF7" stroke-width="1.6"/>
  <svg x="227" y="281" width="28" height="28" viewBox="0 0 256 228" preserveAspectRatio="xMidYMid meet" overflow="visible" aria-hidden="true">

<path fill="#00D8FF" d="M210.483 73.824a172 172 0 0 0-8.24-2.597c.465-1.9.893-3.777 1.273-5.621c6.238-30.281 2.16-54.676-11.769-62.708c-13.355-7.7-35.196.329-57.254 19.526a171 171 0 0 0-6.375 5.848a156 156 0 0 0-4.241-3.917C100.759 3.829 77.587-4.822 63.673 3.233C50.33 10.957 46.379 33.89 51.995 62.588a171 171 0 0 0 1.892 8.48c-3.28.932-6.445 1.924-9.474 2.98C17.309 83.498 0 98.307 0 113.668c0 15.865 18.582 31.778 46.812 41.427a146 146 0 0 0 6.921 2.165a168 168 0 0 0-2.01 9.138c-5.354 28.2-1.173 50.591 12.134 58.266c13.744 7.926 36.812-.22 59.273-19.855a146 146 0 0 0 5.342-4.923a168 168 0 0 0 6.92 6.314c21.758 18.722 43.246 26.282 56.54 18.586c13.731-7.949 18.194-32.003 12.4-61.268a145 145 0 0 0-1.535-6.842c1.62-.48 3.21-.974 4.76-1.488c29.348-9.723 48.443-25.443 48.443-41.52c0-15.417-17.868-30.326-45.517-39.844m-6.365 70.984q-2.102.694-4.3 1.345c-3.24-10.257-7.612-21.163-12.963-32.432c5.106-11 9.31-21.767 12.459-31.957c2.619.758 5.16 1.557 7.61 2.4c23.69 8.156 38.14 20.213 38.14 29.504c0 9.896-15.606 22.743-40.946 31.14m-10.514 20.834c2.562 12.94 2.927 24.64 1.23 33.787c-1.524 8.219-4.59 13.698-8.382 15.893c-8.067 4.67-25.32-1.4-43.927-17.412a157 157 0 0 1-6.437-5.87c7.214-7.889 14.423-17.06 21.459-27.246c12.376-1.098 24.068-2.894 34.671-5.345q.785 3.162 1.386 6.193M87.276 214.515c-7.882 2.783-14.16 2.863-17.955.675c-8.075-4.657-11.432-22.636-6.853-46.752a157 157 0 0 1 1.869-8.499c10.486 2.32 22.093 3.988 34.498 4.994c7.084 9.967 14.501 19.128 21.976 27.15a135 135 0 0 1-4.877 4.492c-9.933 8.682-19.886 14.842-28.658 17.94M50.35 144.747c-12.483-4.267-22.792-9.812-29.858-15.863c-6.35-5.437-9.555-10.836-9.555-15.216c0-9.322 13.897-21.212 37.076-29.293c2.813-.98 5.757-1.905 8.812-2.773c3.204 10.42 7.406 21.315 12.477 32.332c-5.137 11.18-9.399 22.249-12.634 32.792a135 135 0 0 1-6.318-1.979m12.378-84.26c-4.811-24.587-1.616-43.134 6.425-47.789c8.564-4.958 27.502 2.111 47.463 19.835a144 144 0 0 1 3.841 3.545c-7.438 7.987-14.787 17.08-21.808 26.988c-12.04 1.116-23.565 2.908-34.161 5.309a160 160 0 0 1-1.76-7.887m110.427 27.268a348 348 0 0 0-7.785-12.803c8.168 1.033 15.994 2.404 23.343 4.08c-2.206 7.072-4.956 14.465-8.193 22.045a381 381 0 0 0-7.365-13.322m-45.032-43.861c5.044 5.465 10.096 11.566 15.065 18.186a322 322 0 0 0-30.257-.006c4.974-6.559 10.069-12.652 15.192-18.18M82.802 87.83a323 323 0 0 0-7.227 13.238c-3.184-7.553-5.909-14.98-8.134-22.152c7.304-1.634 15.093-2.97 23.209-3.984a322 322 0 0 0-7.848 12.897m8.081 65.352c-8.385-.936-16.291-2.203-23.593-3.793c2.26-7.3 5.045-14.885 8.298-22.6a321 321 0 0 0 7.257 13.246c2.594 4.48 5.28 8.868 8.038 13.147m37.542 31.03c-5.184-5.592-10.354-11.779-15.403-18.433c4.902.192 9.899.29 14.978.29c5.218 0 10.376-.117 15.453-.343c-4.985 6.774-10.018 12.97-15.028 18.486m52.198-57.817c3.422 7.8 6.306 15.345 8.596 22.52c-7.422 1.694-15.436 3.058-23.88 4.071a382 382 0 0 0 7.859-13.026a347 347 0 0 0 7.425-13.565m-16.898 8.101a359 359 0 0 1-12.281 19.815a329 329 0 0 1-23.444.823c-7.967 0-15.716-.248-23.178-.732a310 310 0 0 1-12.513-19.846h.001a307 307 0 0 1-10.923-20.627a310 310 0 0 1 10.89-20.637l-.001.001a307 307 0 0 1 12.413-19.761c7.613-.576 15.42-.876 23.31-.876H128c7.926 0 15.743.303 23.354.883a329 329 0 0 1 12.335 19.695a359 359 0 0 1 11.036 20.54a330 330 0 0 1-11 20.722m22.56-122.124c8.572 4.944 11.906 24.881 6.52 51.026q-.518 2.504-1.15 5.09c-10.622-2.452-22.155-4.275-34.23-5.408c-7.034-10.017-14.323-19.124-21.64-27.008a161 161 0 0 1 5.888-5.4c18.9-16.447 36.564-22.941 44.612-18.3M128 90.808c12.625 0 22.86 10.235 22.86 22.86s-10.235 22.86-22.86 22.86s-22.86-10.235-22.86-22.86s10.235-22.86 22.86-22.86"/>
</svg>
  <text x="324" y="283" text-anchor="middle" font-family="DejaVu Sans, sans-serif" font-size="16" font-weight="700" fill="#242424">Open VLegalAI</text>
  <text x="324" y="307" text-anchor="middle" font-family="DejaVu Sans, sans-serif" font-size="12" font-weight="400" fill="#667085"><tspan x="324" dy="0">React workspace</tspan></text>
</g>
<g>
  <polygon points="545,245 635,295 545,345 455,295" fill="#FFFFFF" stroke="#E58A3A" stroke-width="1.6"/>
  <text x="545" y="289" text-anchor="middle" font-family="DejaVu Sans, sans-serif" font-size="15" font-weight="700" fill="#242424">Google session</text>
  <text x="545" y="311" text-anchor="middle" font-family="DejaVu Sans, sans-serif" font-size="11" font-weight="400" fill="#667085"><tspan x="545" dy="0">available?</tspan></text>
</g>
<g>
  <rect x="90" y="440" width="820" height="435" fill="none" stroke="#6F8FF7" stroke-width="2" stroke-dasharray="9 7"/>
  <rect x="416" y="427" width="168" height="26" fill="#F7F6EF"/>
  <text x="500" y="446" text-anchor="middle" font-family="DejaVu Sans, sans-serif" font-size="18" font-weight="700" fill="#242424">Guest Workspace</text>
</g>
<g>
  <circle cx="130" cy="500" r="18" fill="#6F8FF7"/>
  <text x="130" y="506" text-anchor="middle" font-family="DejaVu Sans, sans-serif" font-size="15" font-weight="800" fill="#FFFFFF">1</text>
  <text x="158" y="506" text-anchor="start" font-family="DejaVu Sans, sans-serif" font-size="18" font-weight="700" fill="#242424">Temporary legal research</text>
</g>
<g>
  <rect x="125" y="545" width="185" height="85" rx="3" fill="#FFFFFF" stroke="#6F8FF7" stroke-width="1.6"/>
  <svg x="137" y="573.5" width="28" height="28" viewBox="0 0 24 24" preserveAspectRatio="xMidYMid meet" overflow="visible" aria-hidden="true">

<g fill="none" stroke="#242424" stroke-linecap="round" stroke-linejoin="round" stroke-width="2"><rect width="18" height="18" x="3" y="3" rx="2"/><path d="M3 9h18"/></g>
</svg>
  <text x="231.5" y="573" text-anchor="middle" font-family="DejaVu Sans, sans-serif" font-size="16" font-weight="700" fill="#242424">Browser Memory</text>
  <text x="231.5" y="597" text-anchor="middle" font-family="DejaVu Sans, sans-serif" font-size="12" font-weight="400" fill="#667085"><tspan x="231.5" dy="0">sessionStorage</tspan><tspan x="231.5" dy="17">completed messages</tspan></text>
</g>
<g>
  <rect x="345" y="545" width="185" height="85" rx="3" fill="#FFFFFF" stroke="#6F8FF7" stroke-width="1.6"/>
  <svg x="357" y="573.5" width="28" height="28" viewBox="0 0 24 24" preserveAspectRatio="xMidYMid meet" overflow="visible" aria-hidden="true">

<path fill="none" stroke="#6F8FF7" stroke-linecap="round" stroke-linejoin="round" stroke-width="2" d="M22 17a2 2 0 0 1-2 2H6.828a2 2 0 0 0-1.414.586l-2.202 2.202A.71.71 0 0 1 2 21.286V5a2 2 0 0 1 2-2h16a2 2 0 0 1 2 2zM7 11h10M7 15h6M7 7h8"/>
</svg>
  <text x="451.5" y="573" text-anchor="middle" font-family="DejaVu Sans, sans-serif" font-size="16" font-weight="700" fill="#242424">Ask Question</text>
  <text x="451.5" y="597" text-anchor="middle" font-family="DejaVu Sans, sans-serif" font-size="12" font-weight="400" fill="#667085"><tspan x="451.5" dy="0">send recent history</tspan></text>
</g>
<g>
  <rect x="565" y="545" width="185" height="85" rx="3" fill="#FFFFFF" stroke="#6F8FF7" stroke-width="1.6"/>
  <svg x="577" y="573.5" width="28" height="28" viewBox="0 0 24 24" preserveAspectRatio="xMidYMid meet" overflow="visible" aria-hidden="true">

<g fill="none" stroke="#E58A3A" stroke-linecap="round" stroke-linejoin="round" stroke-width="2"><path d="M12 6v6h4"/><circle cx="12" cy="12" r="10"/></g>
</svg>
  <text x="671.5" y="573" text-anchor="middle" font-family="DejaVu Sans, sans-serif" font-size="16" font-weight="700" fill="#242424">Guest Rate Limit</text>
  <text x="671.5" y="597" text-anchor="middle" font-family="DejaVu Sans, sans-serif" font-size="12" font-weight="400" fill="#667085"><tspan x="671.5" dy="0">hashed ID + IP</tspan><tspan x="671.5" dy="17">minute / hour windows</tspan></text>
</g>
<g>
  <rect x="675" y="700" width="190" height="90" rx="3" fill="#FFFFFF" stroke="#6F8FF7" stroke-width="1.6"/>
  <svg x="687" y="731" width="28" height="28" viewBox="0 0 24 24" preserveAspectRatio="xMidYMid meet" overflow="visible" aria-hidden="true">

<g fill="none" stroke="#4A9B73" stroke-linecap="round" stroke-linejoin="round" stroke-width="2"><circle cx="12" cy="12" r="10"/><path d="m9 12l2 2l4-4"/></g>
</svg>
  <text x="784" y="728" text-anchor="middle" font-family="DejaVu Sans, sans-serif" font-size="16" font-weight="700" fill="#242424">Temporary Answer</text>
  <text x="784" y="752" text-anchor="middle" font-family="DejaVu Sans, sans-serif" font-size="12" font-weight="400" fill="#667085"><tspan x="784" dy="0">grounded + verified</tspan><tspan x="784" dy="17">no conversation rows</tspan></text>
</g>
<g>
  <rect x="125" y="700" width="470" height="115" rx="3" fill="#F7F6EF" stroke="#6F8FF7" stroke-width="1.5" stroke-dasharray="5 4"/>
  <svg x="139" y="714" width="28" height="28" viewBox="0 0 24 24" preserveAspectRatio="xMidYMid meet" overflow="visible" aria-hidden="true">

<g fill="none" stroke="#4A9B73" stroke-linecap="round" stroke-linejoin="round" stroke-width="2"><circle cx="12" cy="16" r="1"/><rect width="18" height="12" x="3" y="10" rx="2"/><path d="M7 10V7a5 5 0 0 1 10 0v3"/></g>
</svg>
  <text x="177" y="728" text-anchor="start" font-family="DejaVu Sans, sans-serif" font-size="14" font-weight="700" fill="#242424">Guest persistence boundary</text>
  <text x="143" y="754" text-anchor="start" font-family="DejaVu Sans, sans-serif" font-size="11" font-weight="400" fill="#667085"><tspan x="143" dy="0">Chat stays in the browser.</tspan><tspan x="143" dy="16">Only rate-limit counters are written to PostgreSQL.</tspan><tspan x="143" dy="16">Refresh / close clears the temporary workspace.</tspan></text>
</g>
<g>
  <rect x="950" y="195" width="880" height="680" fill="none" stroke="#D96FC7" stroke-width="2" stroke-dasharray="9 7"/>
  <rect x="1261.2" y="182" width="257.59999999999997" height="26" fill="#F7F6EF"/>
  <text x="1390" y="201" text-anchor="middle" font-family="DejaVu Sans, sans-serif" font-size="18" font-weight="700" fill="#242424">Authenticated Workspace</text>
</g>
<g>
  <circle cx="990" cy="250" r="18" fill="#D96FC7"/>
  <text x="990" y="256" text-anchor="middle" font-family="DejaVu Sans, sans-serif" font-size="15" font-weight="800" fill="#FFFFFF">2</text>
  <text x="1018" y="256" text-anchor="start" font-family="DejaVu Sans, sans-serif" font-size="18" font-weight="700" fill="#242424">Google OIDC + durable workspace</text>
</g>
<g>
  <svg x="1023" y="300" width="44" height="44" viewBox="0 0 256 262" preserveAspectRatio="xMidYMid meet" overflow="visible" aria-label="Google OIDC">
<title>Google OIDC</title>
<path fill="#4285F4" d="M255.878 133.451c0-10.734-.871-18.567-2.756-26.69H130.55v48.448h71.947c-1.45 12.04-9.283 30.172-26.69 42.356l-.244 1.622l38.755 30.023l2.685.268c24.659-22.774 38.875-56.282 38.875-96.027"/><path fill="#34A853" d="M130.55 261.1c35.248 0 64.839-11.605 86.453-31.622l-41.196-31.913c-11.024 7.688-25.82 13.055-45.257 13.055c-34.523 0-63.824-22.773-74.269-54.25l-1.531.13l-40.298 31.187l-.527 1.465C35.393 231.798 79.49 261.1 130.55 261.1"/><path fill="#FBBC05" d="M56.281 156.37c-2.756-8.123-4.351-16.827-4.351-25.82c0-8.994 1.595-17.697 4.206-25.82l-.073-1.73L15.26 71.312l-1.335.635C5.077 89.644 0 109.517 0 130.55s5.077 40.905 13.925 58.602z"/><path fill="#EB4335" d="M130.55 50.479c24.514 0 41.05 10.589 50.479 19.438l36.844-35.974C195.245 12.91 165.798 0 130.55 0C79.49 0 35.393 29.301 13.925 71.947l42.211 32.783c10.59-31.477 39.891-54.251 74.414-54.251"/>
</svg>
  <text x="1045" y="364" text-anchor="middle" font-family="DejaVu Sans, sans-serif" font-size="13" font-weight="600" fill="#242424">Google OIDC</text>
  <text x="1045" y="380" text-anchor="middle" font-family="DejaVu Sans, sans-serif" font-size="10" font-weight="400" fill="#667085">Authorization Code + PKCE</text>
</g>
<g>
  <rect x="1165" y="295" width="210" height="85" rx="3" fill="#FFFFFF" stroke="#D96FC7" stroke-width="1.6"/>
  <svg x="1177" y="323.5" width="28" height="28" viewBox="0 0 24 24" preserveAspectRatio="xMidYMid meet" overflow="visible" aria-hidden="true">

<g fill="none" stroke="#E58A3A" stroke-linecap="round" stroke-linejoin="round" stroke-width="2"><path d="M2.586 17.414A2 2 0 0 0 2 18.828V21a1 1 0 0 0 1 1h3a1 1 0 0 0 1-1v-1a1 1 0 0 1 1-1h1a1 1 0 0 0 1-1v-1a1 1 0 0 1 1-1h.172a2 2 0 0 0 1.414-.586l.814-.814a6.5 6.5 0 1 0-4-4z"/><circle cx="16.5" cy="7.5" r=".5" fill="#E58A3A"/></g>
</svg>
  <text x="1284" y="323" text-anchor="middle" font-family="DejaVu Sans, sans-serif" font-size="16" font-weight="700" fill="#242424">Account Session</text>
  <text x="1284" y="347" text-anchor="middle" font-family="DejaVu Sans, sans-serif" font-size="12" font-weight="400" fill="#667085"><tspan x="1284" dy="0">upsert user + SSO identity</tspan><tspan x="1284" dy="17">HttpOnly cookie</tspan></text>
</g>
<g>
  <polygon points="1520,285 1610,337.5 1520,390 1430,337.5" fill="#FFFFFF" stroke="#D96FC7" stroke-width="1.6"/>
  <text x="1520" y="331.5" text-anchor="middle" font-family="DejaVu Sans, sans-serif" font-size="15" font-weight="700" fill="#242424">Choose</text>
  <text x="1520" y="353.5" text-anchor="middle" font-family="DejaVu Sans, sans-serif" font-size="11" font-weight="400" fill="#667085"><tspan x="1520" dy="0">workspace</tspan></text>
</g>
<g>
  <rect x="995" y="465" width="185" height="90" rx="3" fill="#FFFFFF" stroke="#D96FC7" stroke-width="1.6"/>
  <svg x="1007" y="496" width="28" height="28" viewBox="0 0 24 24" preserveAspectRatio="xMidYMid meet" overflow="visible" aria-hidden="true">

<path fill="none" stroke="#6F8FF7" stroke-linecap="round" stroke-linejoin="round" stroke-width="2" d="M22 17a2 2 0 0 1-2 2H6.828a2 2 0 0 0-1.414.586l-2.202 2.202A.71.71 0 0 1 2 21.286V5a2 2 0 0 1 2-2h16a2 2 0 0 1 2 2zM7 11h10M7 15h6M7 7h8"/>
</svg>
  <text x="1101.5" y="493" text-anchor="middle" font-family="DejaVu Sans, sans-serif" font-size="16" font-weight="700" fill="#242424">Saved Chat</text>
  <text x="1101.5" y="517" text-anchor="middle" font-family="DejaVu Sans, sans-serif" font-size="12" font-weight="400" fill="#667085"><tspan x="1101.5" dy="0">decrypt summary</tspan><tspan x="1101.5" dy="17">+ recent messages</tspan></text>
</g>
<g>
  <rect x="1205" y="465" width="185" height="90" rx="3" fill="#FFFFFF" stroke="#D96FC7" stroke-width="1.6"/>
  <svg x="1217" y="496" width="28" height="28" viewBox="0 0 24 24" preserveAspectRatio="xMidYMid meet" overflow="visible" aria-hidden="true">

<g fill="none" stroke="#242424" stroke-linecap="round" stroke-linejoin="round" stroke-width="2"><path d="M15 2h-4a2 2 0 0 0-2 2v11a2 2 0 0 0 2 2h8a2 2 0 0 0 2-2V8"/><path d="M16.706 2.706A2.4 2.4 0 0 0 15 2v5a1 1 0 0 0 1 1h5a2.4 2.4 0 0 0-.706-1.706zM5 7a2 2 0 0 0-2 2v11a2 2 0 0 0 2 2h8a2 2 0 0 0 1.732-1"/></g>
</svg>
  <text x="1311.5" y="493" text-anchor="middle" font-family="DejaVu Sans, sans-serif" font-size="16" font-weight="700" fill="#242424">Contracts</text>
  <text x="1311.5" y="517" text-anchor="middle" font-family="DejaVu Sans, sans-serif" font-size="12" font-weight="400" fill="#667085"><tspan x="1311.5" dy="0">draft · review</tspan><tspan x="1311.5" dy="17">compare · save artifact</tspan></text>
</g>
<g>
  <rect x="1415" y="465" width="185" height="90" rx="3" fill="#FFFFFF" stroke="#D96FC7" stroke-width="1.6"/>
  <svg x="1427" y="496" width="28" height="28" viewBox="0 0 24 24" preserveAspectRatio="xMidYMid meet" overflow="visible" aria-hidden="true">

<g fill="none" stroke="#6F8FF7" stroke-linecap="round" stroke-linejoin="round" stroke-width="2"><circle cx="12" cy="12" r="10"/><path d="M12 2a14.5 14.5 0 0 0 0 20a14.5 14.5 0 0 0 0-20M2 12h20"/></g>
</svg>
  <text x="1521.5" y="493" text-anchor="middle" font-family="DejaVu Sans, sans-serif" font-size="16" font-weight="700" fill="#242424">Articles</text>
  <text x="1521.5" y="517" text-anchor="middle" font-family="DejaVu Sans, sans-serif" font-size="12" font-weight="400" fill="#667085"><tspan x="1521.5" dy="0">web research</tspan><tspan x="1521.5" dy="17">reviewer saves</tspan></text>
</g>
<g>
  <rect x="1625" y="465" width="165" height="90" rx="3" fill="#FFFFFF" stroke="#D96FC7" stroke-width="1.6"/>
  <svg x="1637" y="496" width="28" height="28" viewBox="0 0 24 24" preserveAspectRatio="xMidYMid meet" overflow="visible" aria-hidden="true">

<g fill="none" stroke="#242424" stroke-linecap="round" stroke-linejoin="round" stroke-width="2"><path d="M6 22a2 2 0 0 1-2-2V4a2 2 0 0 1 2-2h8a2.4 2.4 0 0 1 1.704.706l3.588 3.588A2.4 2.4 0 0 1 20 8v12a2 2 0 0 1-2 2z"/><path d="M14 2v5a1 1 0 0 0 1 1h5M10 9H8m8 4H8m8 4H8"/></g>
</svg>
  <text x="1721.5" y="493" text-anchor="middle" font-family="DejaVu Sans, sans-serif" font-size="16" font-weight="700" fill="#242424">Signature</text>
  <text x="1721.5" y="517" text-anchor="middle" font-family="DejaVu Sans, sans-serif" font-size="12" font-weight="400" fill="#667085"><tspan x="1721.5" dy="0">packet · signers</tspan><tspan x="1721.5" dy="17">audit log</tspan></text>
</g>
<g>
  <rect x="990" y="630" width="800" height="190" fill="#FFFFFF" fill-opacity="0.58" stroke="#069A8E" stroke-width="1.4" stroke-dasharray="4 4"/>
  <text x="1002" y="653" text-anchor="start" font-family="DejaVu Sans, sans-serif" font-size="14" font-weight="700" fill="#242424">Shared Legal Intelligence</text>
</g>
<g>
  <rect x="1025" y="685" width="195" height="85" rx="3" fill="#FFFFFF" stroke="#069A8E" stroke-width="1.6"/>
  <svg x="1037" y="713.5" width="28" height="28" viewBox="0 0 24 24" preserveAspectRatio="xMidYMid meet" overflow="visible" aria-hidden="true">

<g fill="none" stroke="#069A8E" stroke-linecap="round" stroke-linejoin="round" stroke-width="2"><path d="m21 21l-4.34-4.34"/><circle cx="11" cy="11" r="8"/></g>
</svg>
  <text x="1136.5" y="713" text-anchor="middle" font-family="DejaVu Sans, sans-serif" font-size="16" font-weight="700" fill="#242424">HybridRAG</text>
  <text x="1136.5" y="737" text-anchor="middle" font-family="DejaVu Sans, sans-serif" font-size="12" font-weight="400" fill="#667085"><tspan x="1136.5" dy="0">dense + BM25 + graph</tspan></text>
</g>
<g>
  <rect x="1250" y="685" width="195" height="85" rx="3" fill="#FFFFFF" stroke="#069A8E" stroke-width="1.6"/>
  <svg x="1262" y="713.5" width="28" height="28" viewBox="0 0 24 24" preserveAspectRatio="xMidYMid meet" overflow="visible" aria-hidden="true">

<g fill="none" stroke="#4A9B73" stroke-linecap="round" stroke-linejoin="round" stroke-width="2"><path d="M20 13c0 5-3.5 7.5-7.66 8.95a1 1 0 0 1-.67-.01C7.5 20.5 4 18 4 13V6a1 1 0 0 1 1-1c2 0 4.5-1.2 6.24-2.72a1.17 1.17 0 0 1 1.52 0C14.51 3.81 17 5 19 5a1 1 0 0 1 1 1z"/><path d="m9 12l2 2l4-4"/></g>
</svg>
  <text x="1361.5" y="713" text-anchor="middle" font-family="DejaVu Sans, sans-serif" font-size="16" font-weight="700" fill="#242424">Freshness Check</text>
  <text x="1361.5" y="737" text-anchor="middle" font-family="DejaVu Sans, sans-serif" font-size="12" font-weight="400" fill="#667085"><tspan x="1361.5" dy="0">official sources</tspan><tspan x="1361.5" dy="17">status verdict</tspan></text>
</g>
<g>
  <rect x="1475" y="685" width="280" height="85" rx="3" fill="#FFFFFF" stroke="#069A8E" stroke-width="1.6"/>
  <svg x="1487" y="713.5" width="28" height="28" viewBox="0 0 256 264" preserveAspectRatio="xMidYMid meet" overflow="visible" aria-hidden="true">

<path d="M255.008 158.086c-1.535-4.649-5.556-7.887-10.756-8.664c-2.452-.366-5.26-.21-8.583.475c-5.792 1.195-10.089 1.65-13.225 1.738c11.837-19.985 21.462-42.775 27.003-64.228c8.96-34.689 4.172-50.492-1.423-57.64C233.217 10.847 211.614.683 185.552.372c-13.903-.17-26.108 2.575-32.475 4.549c-5.928-1.046-12.302-1.63-18.99-1.738c-12.537-.2-23.614 2.533-33.079 8.15c-5.24-1.772-13.65-4.27-23.362-5.864c-22.842-3.75-41.252-.828-54.718 8.685C6.622 25.672-.937 45.684.461 73.634c.444 8.874 5.408 35.874 13.224 61.48c4.492 14.718 9.282 26.94 14.237 36.33c7.027 13.315 14.546 21.156 22.987 23.972c4.731 1.576 13.327 2.68 22.368-4.85c1.146 1.388 2.675 2.767 4.704 4.048c2.577 1.625 5.728 2.953 8.875 3.74c11.341 2.835 21.964 2.126 31.027-1.848c.056 1.612.099 3.152.135 4.482c.06 2.157.12 4.272.199 6.25c.537 13.374 1.447 23.773 4.143 31.049c.148.4.347 1.01.557 1.657c1.345 4.118 3.594 11.012 9.316 16.411c5.925 5.593 13.092 7.308 19.656 7.308c3.292 0 6.433-.432 9.188-1.022c9.82-2.105 20.973-5.311 29.041-16.799c7.628-10.86 11.336-27.217 12.007-52.99q.13-1.094.244-2.088l.16-1.362l1.797.158l.463.031c10.002.456 22.232-1.665 29.743-5.154c5.935-2.754 24.954-12.795 20.476-26.351"/><path fill="#336791" d="M237.906 160.722c-29.74 6.135-31.785-3.934-31.785-3.934c31.4-46.593 44.527-105.736 33.2-120.211c-30.904-39.485-84.399-20.811-85.292-20.327l-.287.052c-5.876-1.22-12.451-1.946-19.842-2.067c-13.456-.22-23.664 3.528-31.41 9.402c0 0-95.43-39.314-90.991 49.444c.944 18.882 27.064 142.873 58.218 105.422c11.387-13.695 22.39-25.274 22.39-25.274c5.464 3.63 12.006 5.482 18.864 4.817l.533-.452c-.166 1.7-.09 3.363.213 5.332c-8.026 8.967-5.667 10.541-21.711 13.844c-16.235 3.346-6.698 9.302-.471 10.86c7.549 1.887 25.013 4.561 36.813-11.958l-.47 1.885c3.144 2.519 5.352 16.383 4.982 28.952c-.37 12.568-.617 21.197 1.86 27.937c2.479 6.74 4.948 21.905 26.04 17.386c17.623-3.777 26.756-13.564 28.027-29.89c.901-11.606 2.942-9.89 3.07-20.267l1.637-4.912c1.887-15.733.3-20.809 11.157-18.448l2.64.232c7.99.363 18.45-1.286 24.589-4.139c13.218-6.134 21.058-16.377 8.024-13.686z"/><path fill="#FFF" d="M108.076 81.525c-2.68-.373-5.107-.028-6.335.902c-.69.523-.904 1.129-.962 1.546c-.154 1.105.62 2.327 1.096 2.957c1.346 1.784 3.312 3.01 5.258 3.28q.423.059.842.058c3.245 0 6.196-2.527 6.456-4.392c.325-2.336-3.066-3.893-6.355-4.35m88.784.073c-.256-1.831-3.514-2.353-6.606-1.923c-3.088.43-6.082 1.824-5.832 3.659c.2 1.427 2.777 3.863 5.827 3.863q.387 0 .78-.054c2.036-.282 3.53-1.575 4.24-2.32c1.08-1.136 1.706-2.402 1.591-3.225"/><path fill="#FFF" d="M247.802 160.025c-1.134-3.429-4.784-4.532-10.848-3.28c-18.005 3.716-24.453 1.142-26.57-.417c13.995-21.32 25.508-47.092 31.719-71.137c2.942-11.39 4.567-21.968 4.7-30.59c.147-9.463-1.465-16.417-4.789-20.665c-13.402-17.125-33.072-26.311-56.882-26.563c-16.369-.184-30.199 4.005-32.88 5.183c-5.646-1.404-11.801-2.266-18.502-2.376c-12.288-.199-22.91 2.743-31.704 8.74c-3.82-1.422-13.692-4.811-25.765-6.756c-20.872-3.36-37.458-.814-49.294 7.571c-14.123 10.006-20.643 27.892-19.38 53.16c.425 8.501 5.269 34.653 12.913 59.698c10.062 32.964 21 51.625 32.508 55.464c1.347.449 2.9.763 4.613.763c4.198 0 9.345-1.892 14.7-8.33a530 530 0 0 1 20.261-22.926c4.524 2.428 9.494 3.784 14.577 3.92q.016.2.035.398a118 118 0 0 0-2.57 3.175c-3.522 4.471-4.255 5.402-15.592 7.736c-3.225.666-11.79 2.431-11.916 8.435c-.136 6.56 10.125 9.315 11.294 9.607c4.074 1.02 7.999 1.523 11.742 1.523c9.103 0 17.114-2.992 23.516-8.781c-.197 23.386.778 46.43 3.586 53.451c2.3 5.748 7.918 19.795 25.664 19.794c2.604 0 5.47-.303 8.623-.979c18.521-3.97 26.564-12.156 29.675-30.203c1.665-9.645 4.522-32.676 5.866-45.03c2.836.885 6.487 1.29 10.434 1.289c8.232 0 17.731-1.749 23.688-4.514c6.692-3.108 18.768-10.734 16.578-17.36m-44.106-83.48c-.061 3.647-.563 6.958-1.095 10.414c-.573 3.717-1.165 7.56-1.314 12.225c-.147 4.54.42 9.26.968 13.825c1.108 9.22 2.245 18.712-2.156 28.078a37 37 0 0 1-1.95-4.009c-.547-1.326-1.735-3.456-3.38-6.404c-6.399-11.476-21.384-38.35-13.713-49.316c2.285-3.264 8.084-6.62 22.64-4.813m-17.644-61.787c21.334.471 38.21 8.452 50.158 23.72c9.164 11.711-.927 64.998-30.14 110.969a171 171 0 0 0-.886-1.117l-.37-.462c7.549-12.467 6.073-24.802 4.759-35.738c-.54-4.488-1.05-8.727-.92-12.709c.134-4.22.692-7.84 1.232-11.34c.663-4.313 1.338-8.776 1.152-14.037c.139-.552.195-1.204.122-1.978c-.475-5.045-6.235-20.144-17.975-33.81c-6.422-7.475-15.787-15.84-28.574-21.482c5.5-1.14 13.021-2.203 21.442-2.016M66.674 175.778c-5.9 7.094-9.974 5.734-11.314 5.288c-8.73-2.912-18.86-21.364-27.791-50.624c-7.728-25.318-12.244-50.777-12.602-57.916c-1.128-22.578 4.345-38.313 16.268-46.769c19.404-13.76 51.306-5.524 64.125-1.347c-.184.182-.376.352-.558.537c-21.036 21.244-20.537 57.54-20.485 59.759c-.002.856.07 2.068.168 3.735c.362 6.105 1.036 17.467-.764 30.334c-1.672 11.957 2.014 23.66 10.111 32.109a36 36 0 0 0 2.617 2.468c-3.604 3.86-11.437 12.396-19.775 22.426m22.479-29.993c-6.526-6.81-9.49-16.282-8.133-25.99c1.9-13.592 1.199-25.43.822-31.79c-.053-.89-.1-1.67-.127-2.285c3.073-2.725 17.314-10.355 27.47-8.028c4.634 1.061 7.458 4.217 8.632 9.645c6.076 28.103.804 39.816-3.432 49.229c-.873 1.939-1.698 3.772-2.402 5.668l-.546 1.466c-1.382 3.706-2.668 7.152-3.465 10.424c-6.938-.02-13.687-2.984-18.819-8.34m1.065 37.9c-2.026-.506-3.848-1.385-4.917-2.114c.893-.42 2.482-.992 5.238-1.56c13.337-2.745 15.397-4.683 19.895-10.394c1.031-1.31 2.2-2.794 3.819-4.602l.002-.002c2.411-2.7 3.514-2.242 5.514-1.412c1.621.67 3.2 2.702 3.84 4.938c.303 1.056.643 3.06-.47 4.62c-9.396 13.156-23.088 12.987-32.921 10.526m69.799 64.952c-16.316 3.496-22.093-4.829-25.9-14.346c-2.457-6.144-3.665-33.85-2.808-64.447c.011-.407-.047-.8-.159-1.17a15.4 15.4 0 0 0-.456-2.162c-1.274-4.452-4.379-8.176-8.104-9.72c-1.48-.613-4.196-1.738-7.46-.903c.696-2.868 1.903-6.107 3.212-9.614l.549-1.475c.618-1.663 1.394-3.386 2.214-5.21c4.433-9.848 10.504-23.337 3.915-53.81c-2.468-11.414-10.71-16.988-23.204-15.693c-7.49.775-14.343 3.797-17.761 5.53c-.735.372-1.407.732-2.035 1.082c.954-11.5 4.558-32.992 18.04-46.59c8.489-8.56 19.794-12.788 33.568-12.56c27.14.444 44.544 14.372 54.366 25.979c8.464 10.001 13.047 20.076 14.876 25.51c-13.755-1.399-23.11 1.316-27.852 8.096c-10.317 14.748 5.644 43.372 13.315 57.129c1.407 2.521 2.621 4.7 3.003 5.626c2.498 6.054 5.732 10.096 8.093 13.046c.724.904 1.426 1.781 1.96 2.547c-4.166 1.201-11.649 3.976-10.967 17.847c-.55 6.96-4.461 39.546-6.448 51.059c-2.623 15.21-8.22 20.875-23.957 24.25m68.104-77.936c-4.26 1.977-11.389 3.46-18.161 3.779c-7.48.35-11.288-.838-12.184-1.569c-.42-8.644 2.797-9.547 6.202-10.503c.535-.15 1.057-.297 1.561-.473q.469.383 1.032.756c6.012 3.968 16.735 4.396 31.874 1.271l.166-.033c-2.042 1.909-5.536 4.471-10.49 6.772"/>
</svg>
  <text x="1629" y="713" text-anchor="middle" font-family="DejaVu Sans, sans-serif" font-size="16" font-weight="700" fill="#242424">Persist Owned Result</text>
  <text x="1629" y="737" text-anchor="middle" font-family="DejaVu Sans, sans-serif" font-size="12" font-weight="400" fill="#667085"><tspan x="1629" dy="0">encrypted answer · sources · verification</tspan><tspan x="1629" dy="17">rolling summary + vector</tspan></text>
</g>
<g>
  <path d="M 405 295 L 455 295" fill="none" stroke="#4B5563" stroke-width="1.6" marker-end="url(#arrow-ink)"/>
  
</g>
<g>
  <path d="M 545 345 L 545 415 L 220 415 L 220 545" fill="none" stroke="#4B5563" stroke-width="1.6" marker-end="url(#arrow-ink)"/>
  <g>
  <rect x="493" y="392" width="54" height="22" rx="2" fill="#F7F6EF" fill-opacity="0.96"/>
  <text x="520" y="408" text-anchor="middle" font-family="DejaVu Sans, sans-serif" font-size="11" font-weight="500" fill="#667085">No</text>
</g>
</g>
<g>
  <path d="M 635 295 L 925 295 L 925 325 L 1000 325" fill="none" stroke="#069A8E" stroke-width="1.6" marker-end="url(#arrow-data)"/>
  <g>
  <rect x="873" y="267" width="54" height="22" rx="2" fill="#F7F6EF" fill-opacity="0.96"/>
  <text x="900" y="283" text-anchor="middle" font-family="DejaVu Sans, sans-serif" font-size="11" font-weight="500" fill="#667085">Yes</text>
</g>
</g>
<g>
  <path d="M 310 587 L 345 587" fill="none" stroke="#069A8E" stroke-width="1.6" marker-end="url(#arrow-data)"/>
  
</g>
<g>
  <path d="M 530 587 L 565 587" fill="none" stroke="#069A8E" stroke-width="1.6" marker-end="url(#arrow-data)"/>
  
</g>
<g>
  <path d="M 750 587 L 790 587 L 790 700" fill="none" stroke="#069A8E" stroke-width="1.6" marker-end="url(#arrow-data)"/>
  <g>
  <rect x="759.6" y="627" width="80.8" height="22" rx="2" fill="#F7F6EF" fill-opacity="0.96"/>
  <text x="800" y="643" text-anchor="middle" font-family="DejaVu Sans, sans-serif" font-size="11" font-weight="500" fill="#667085">HybridRAG</text>
</g>
</g>
<g>
  <path d="M 1090 325 L 1165 337" fill="none" stroke="#069A8E" stroke-width="1.6" marker-end="url(#arrow-data)"/>
  
</g>
<g>
  <path d="M 1375 337 L 1430 337" fill="none" stroke="#069A8E" stroke-width="1.6" marker-end="url(#arrow-data)"/>
  
</g>
<g>
  <path d="M 1520 390 L 1520 430 L 1085 430 L 1085 465" fill="none" stroke="#4B5563" stroke-width="1.6" marker-end="url(#arrow-ink)"/>
  
</g>
<g>
  <path d="M 1520 430 L 1298 430 L 1298 465" fill="none" stroke="#4B5563" stroke-width="1.6" marker-end="url(#arrow-ink)"/>
  
</g>
<g>
  <path d="M 1520 430 L 1508 430 L 1508 465" fill="none" stroke="#4B5563" stroke-width="1.6" marker-end="url(#arrow-ink)"/>
  
</g>
<g>
  <path d="M 1520 430 L 1708 430 L 1708 465" fill="none" stroke="#4B5563" stroke-width="1.6" marker-end="url(#arrow-ink)"/>
  
</g>
<g>
  <path d="M 1085 555 L 1085 685" fill="none" stroke="#069A8E" stroke-width="1.6" marker-end="url(#arrow-data)"/>
  
</g>
<g>
  <path d="M 1298 555 L 1298 630 L 1120 630 L 1120 685" fill="none" stroke="#069A8E" stroke-width="1.6" marker-end="url(#arrow-data)"/>
  
</g>
<g>
  <path d="M 1508 555 L 1508 630 L 1348 630 L 1348 685" fill="none" stroke="#069A8E" stroke-width="1.6" marker-end="url(#arrow-data)"/>
  
</g>
<g>
  <path d="M 1708 555 L 1708 685" fill="none" stroke="#069A8E" stroke-width="1.6" marker-end="url(#arrow-data)"/>
  
</g>
<g>
  <path d="M 1220 727 L 1250 727" fill="none" stroke="#069A8E" stroke-width="1.6" marker-end="url(#arrow-data)"/>
  
</g>
<g>
  <path d="M 1445 727 L 1475 727" fill="none" stroke="#069A8E" stroke-width="1.6" marker-end="url(#arrow-data)"/>
  
</g>
</svg>