<svg xmlns="http://www.w3.org/2000/svg" viewBox="0 0 1920 1080" width="1920" height="1080">
<title>Legal data pipeline</title>
<desc>VLegalAI · deterministic bootstrap plus freshness-driven incremental legal indexing</desc>
<defs>
  <pattern id="minor-grid" width="12" height="12" patternUnits="userSpaceOnUse">
    <path d="M 12 0 L 0 0 0 12" fill="none" stroke="#E7E6DF" stroke-width="0.65"/>
  </pattern>
  <pattern id="major-grid" width="60" height="60" patternUnits="userSpaceOnUse">
    <rect width="60" height="60" fill="url(#minor-grid)"/>
    <path d="M 60 0 L 0 0 0 60" fill="none" stroke="#D8D7D0" stroke-width="0.9"/>
  </pattern>
  <marker id="arrow-ink" markerWidth="9" markerHeight="7" refX="8" refY="3.5" orient="auto"><path d="M0,0 L9,3.5 L0,7 Z" fill="#4B5563"/></marker>
  <marker id="arrow-data" markerWidth="9" markerHeight="7" refX="8" refY="3.5" orient="auto"><path d="M0,0 L9,3.5 L0,7 Z" fill="#069A8E"/></marker>
  <marker id="arrow-async" markerWidth="9" markerHeight="7" refX="8" refY="3.5" orient="auto"><path d="M0,0 L9,3.5 L0,7 Z" fill="#8B69D4"/></marker>
  <marker id="arrow-subtle" markerWidth="9" markerHeight="7" refX="8" refY="3.5" orient="auto"><path d="M0,0 L9,3.5 L0,7 Z" fill="#89919D"/></marker>
</defs>
<rect x="0" y="0" width="1920" height="1080" fill="#F7F6EF"/>
<text x="42" y="96" text-anchor="start" font-family="DejaVu Serif, serif" font-size="76" font-weight="400" fill="#242424">Legal data pipeline</text>
<text x="46" y="128" text-anchor="start" font-family="DejaVu Sans, sans-serif" font-size="14" font-weight="400" fill="#667085">VLegalAI · deterministic bootstrap plus freshness-driven incremental legal indexing</text>
<rect x="70" y="150" width="1800" height="895" fill="url(#major-grid)" stroke="#D8D7D0" stroke-width="1"/>
<g>
  <rect x="90" y="195" width="1740" height="310" fill="none" stroke="#6F8FF7" stroke-width="2" stroke-dasharray="9 7"/>
  <rect x="803.2" y="182" width="313.59999999999997" height="26" fill="#F7F6EF"/>
  <text x="960" y="201" text-anchor="middle" font-family="DejaVu Sans, sans-serif" font-size="18" font-weight="700" fill="#242424">Bootstrap / Reindex Pipeline</text>
</g>
<g>
  <circle cx="130" cy="245" r="18" fill="#6F8FF7"/>
  <text x="130" y="251" text-anchor="middle" font-family="DejaVu Sans, sans-serif" font-size="15" font-weight="800" fill="#FFFFFF">1</text>
  <text x="158" y="251" text-anchor="start" font-family="DejaVu Sans, sans-serif" font-size="18" font-weight="700" fill="#242424">Build a deterministic legal corpus</text>
</g>
<g>
  <rect x="120" y="315" width="180" height="90" rx="3" fill="#FFFFFF" stroke="#6F8FF7" stroke-width="1.6"/>
  <svg x="132" y="346" width="28" height="28" viewBox="0 0 24 24" preserveAspectRatio="xMidYMid meet" overflow="visible" aria-hidden="true">

<g fill="none" stroke="#242424" stroke-linecap="round" stroke-linejoin="round" stroke-width="2"><path d="M6 22a2 2 0 0 1-2-2V4a2 2 0 0 1 2-2h8a2.4 2.4 0 0 1 1.704.706l3.588 3.588A2.4 2.4 0 0 1 20 8v12a2 2 0 0 1-2 2z"/><path d="M14 2v5a1 1 0 0 0 1 1h5M10 9H8m8 4H8m8 4H8"/></g>
</svg>
  <text x="224" y="343" text-anchor="middle" font-family="DejaVu Sans, sans-serif" font-size="16" font-weight="700" fill="#242424">Curated DOCX</text>
  <text x="224" y="367" text-anchor="middle" font-family="DejaVu Sans, sans-serif" font-size="12" font-weight="400" fill="#667085"><tspan x="224" dy="0">Vietnamese legal corpus</tspan><tspan x="224" dy="17">source-controlled input</tspan></text>
</g>
<g>
  <rect x="345" y="315" width="190" height="90" rx="3" fill="#FFFFFF" stroke="#6F8FF7" stroke-width="1.6"/>
  <svg x="357" y="346" width="28" height="28" viewBox="0 0 24 24" preserveAspectRatio="xMidYMid meet" overflow="visible" aria-hidden="true">

<g fill="none" stroke="#242424" stroke-linecap="round" stroke-linejoin="round" stroke-width="2"><rect width="8" height="8" x="3" y="3" rx="2"/><path d="M7 11v4a2 2 0 0 0 2 2h4"/><rect width="8" height="8" x="13" y="13" rx="2"/></g>
</svg>
  <text x="454" y="343" text-anchor="middle" font-family="DejaVu Sans, sans-serif" font-size="16" font-weight="700" fill="#242424">Hierarchy Parser</text>
  <text x="454" y="367" text-anchor="middle" font-family="DejaVu Sans, sans-serif" font-size="12" font-weight="400" fill="#667085"><tspan x="454" dy="0">document → chapter → section</tspan><tspan x="454" dy="17">article → clause → point</tspan></text>
</g>
<g>
  <rect x="580" y="315" width="190" height="90" rx="3" fill="#FFFFFF" stroke="#8B69D4" stroke-width="1.6"/>
  <svg x="592" y="346" width="28" height="28" viewBox="0 0 24 24" preserveAspectRatio="xMidYMid meet" overflow="visible" aria-hidden="true">

<g fill="none" stroke="#8B69D4" stroke-linecap="round" stroke-linejoin="round" stroke-width="2"><rect width="6" height="6" x="16" y="16" rx="1"/><rect width="6" height="6" x="2" y="16" rx="1"/><rect width="6" height="6" x="9" y="2" rx="1"/><path d="M5 16v-3a1 1 0 0 1 1-1h12a1 1 0 0 1 1 1v3m-7-4V8"/></g>
</svg>
  <text x="689" y="343" text-anchor="middle" font-family="DejaVu Sans, sans-serif" font-size="16" font-weight="700" fill="#242424">Graph Extraction</text>
  <text x="689" y="367" text-anchor="middle" font-family="DejaVu Sans, sans-serif" font-size="12" font-weight="400" fill="#667085"><tspan x="689" dy="0">structure · terminology · domain</tspan><tspan x="689" dy="17">time · risk · precedent</tspan></text>
</g>
<g>
  <rect x="815" y="315" width="185" height="90" rx="3" fill="#FFFFFF" stroke="#6F8FF7" stroke-width="1.6"/>
  <svg x="827" y="346" width="28" height="28" viewBox="0 0 24 24" preserveAspectRatio="xMidYMid meet" overflow="visible" aria-hidden="true">

<g fill="none" stroke="#242424" stroke-linecap="round" stroke-linejoin="round" stroke-width="2"><path d="M15 2h-4a2 2 0 0 0-2 2v11a2 2 0 0 0 2 2h8a2 2 0 0 0 2-2V8"/><path d="M16.706 2.706A2.4 2.4 0 0 0 15 2v5a1 1 0 0 0 1 1h5a2.4 2.4 0 0 0-.706-1.706zM5 7a2 2 0 0 0-2 2v11a2 2 0 0 0 2 2h8a2 2 0 0 0 1.732-1"/></g>
</svg>
  <text x="921.5" y="343" text-anchor="middle" font-family="DejaVu Sans, sans-serif" font-size="16" font-weight="700" fill="#242424">Chunk Builder</text>
  <text x="921.5" y="367" text-anchor="middle" font-family="DejaVu Sans, sans-serif" font-size="12" font-weight="400" fill="#667085"><tspan x="921.5" dy="0">article · clause · point</tspan><tspan x="921.5" dy="17">sliding · semantic</tspan></text>
</g>
<g>
  <rect x="1045" y="315" width="180" height="90" rx="3" fill="#FFFFFF" stroke="#8B69D4" stroke-width="1.6"/>
  <svg x="1057" y="346" width="28" height="28" viewBox="0 0 24 24" preserveAspectRatio="xMidYMid meet" overflow="visible" aria-hidden="true">

<path fill="#FF9D00" d="M12.025 1.13c-5.77 0-10.449 4.647-10.449 10.378c0 1.112.178 2.181.503 3.185c.064-.222.203-.444.416-.577a.96.96 0 0 1 .524-.15c.293 0 .584.124.84.284c.278.173.48.408.71.694c.226.282.458.611.684.951v-.014c.017-.324.106-.622.264-.874s.403-.487.762-.543c.3-.047.596.06.787.203s.31.313.4.467c.15.257.212.468.233.542c.01.026.653 1.552 1.657 2.54c.616.605 1.01 1.223 1.082 1.912c.055.537-.096 1.059-.38 1.572c.637.121 1.294.187 1.967.187c.657 0 1.298-.063 1.921-.178c-.287-.517-.44-1.041-.384-1.581c.07-.69.465-1.307 1.081-1.913c1.004-.987 1.647-2.513 1.657-2.539c.021-.074.083-.285.233-.542c.09-.154.208-.323.4-.467a1.08 1.08 0 0 1 .787-.203c.359.056.604.29.762.543s.247.55.265.874v.015c.225-.34.457-.67.683-.952c.23-.286.432-.52.71-.694c.257-.16.547-.284.84-.285a.97.97 0 0 1 .524.151c.228.143.373.388.43.625l.006.04a10.3 10.3 0 0 0 .534-3.273c0-5.731-4.678-10.378-10.449-10.378M8.327 6.583a1.5 1.5 0 0 1 .713.174a1.487 1.487 0 0 1 .617 2.013c-.183.343-.762-.214-1.102-.094c-.38.134-.532.914-.917.71a1.487 1.487 0 0 1 .69-2.803m7.486 0a1.487 1.487 0 0 1 .689 2.803c-.385.204-.536-.576-.916-.71c-.34-.12-.92.437-1.103.094a1.487 1.487 0 0 1 .617-2.013a1.5 1.5 0 0 1 .713-.174m-10.68 1.55a.96.96 0 1 1 0 1.921a.96.96 0 0 1 0-1.92m13.838 0a.96.96 0 1 1 0 1.92a.96.96 0 0 1 0-1.92M8.489 11.458c.588.01 1.965 1.157 3.572 1.164c1.607-.007 2.984-1.155 3.572-1.164c.196-.003.305.12.305.454c0 .886-.424 2.328-1.563 3.202c-.22-.756-1.396-1.366-1.63-1.32q-.011.001-.02.006l-.044.026l-.01.008l-.03.024q-.018.017-.035.036l-.032.04a1 1 0 0 0-.058.09l-.014.025q-.049.088-.11.19a1 1 0 0 1-.083.116a1.2 1.2 0 0 1-.173.18q-.035.029-.075.058a1.3 1.3 0 0 1-.251-.243a1 1 0 0 1-.076-.107c-.124-.193-.177-.363-.337-.444c-.034-.016-.104-.008-.2.022q-.094.03-.216.087q-.06.028-.125.063l-.13.074q-.067.04-.136.086a3 3 0 0 0-.135.096a3 3 0 0 0-.26.219a2 2 0 0 0-.12.121a2 2 0 0 0-.106.128l-.002.002a2 2 0 0 0-.09.132l-.001.001a1.2 1.2 0 0 0-.105.212q-.013.036-.024.073c-1.139-.875-1.563-2.317-1.563-3.203c0-.334.109-.457.305-.454m.836 10.354c.824-1.19.766-2.082-.365-3.194c-1.13-1.112-1.789-2.738-1.789-2.738s-.246-.945-.806-.858s-.97 1.499.202 2.362c1.173.864-.233 1.45-.685.64c-.45-.812-1.683-2.896-2.322-3.295s-1.089-.175-.938.647s2.822 2.813 2.562 3.244s-1.176-.506-1.176-.506s-2.866-2.567-3.49-1.898s.473 1.23 2.037 2.16c1.564.932 1.686 1.178 1.464 1.53s-3.675-2.511-4-1.297c-.323 1.214 3.524 1.567 3.287 2.405c-.238.839-2.71-1.587-3.216-.642c-.506.946 3.49 2.056 3.522 2.064c1.29.33 4.568 1.028 5.713-.624m5.349 0c-.824-1.19-.766-2.082.365-3.194c1.13-1.112 1.789-2.738 1.789-2.738s.246-.945.806-.858s.97 1.499-.202 2.362c-1.173.864.233 1.45.685.64c.451-.812 1.683-2.896 2.322-3.295s1.089-.175.938.647s-2.822 2.813-2.562 3.244s1.176-.506 1.176-.506s2.866-2.567 3.49-1.898s-.473 1.23-2.037 2.16c-1.564.932-1.686 1.178-1.464 1.53s3.675-2.511 4-1.297c.323 1.214-3.524 1.567-3.287 2.405c.238.839 2.71-1.587 3.216-.642c.506.946-3.49 2.056-3.522 2.064c-1.29.33-4.568 1.028-5.713-.624"/>
</svg>
  <text x="1149" y="343" text-anchor="middle" font-family="DejaVu Sans, sans-serif" font-size="16" font-weight="700" fill="#242424">BGE-M3 Embed</text>
  <text x="1149" y="367" text-anchor="middle" font-family="DejaVu Sans, sans-serif" font-size="12" font-weight="400" fill="#667085"><tspan x="1149" dy="0">normalized vector(1024)</tspan><tspan x="1149" dy="17">pinned checkpoint</tspan></text>
</g>
<g>
  <rect x="1270" y="308" width="170" height="104" fill="#FFFFFF" stroke="#4B5563" stroke-width="1.7"/>
  <ellipse cx="1355" cy="308" rx="85" ry="18" fill="#FFFFFF" stroke="#4B5563" stroke-width="1.7"/>
  <ellipse cx="1355" cy="412" rx="85" ry="18" fill="#FFFFFF" stroke="#4B5563" stroke-width="1.7"/>
  <svg x="1328" y="325" width="54" height="54" viewBox="0 0 24 24" preserveAspectRatio="xMidYMid meet" overflow="visible" aria-hidden="true">

<path fill="#0F80CC" d="M21.678.521c-1.032-.92-2.28-.55-3.513.544a9 9 0 0 0-.547.535c-2.109 2.237-4.066 6.38-4.674 9.544c.237.48.422 1.093.544 1.561a13 13 0 0 1 .164.703s-.019-.071-.096-.296l-.05-.146l-.033-.08c-.138-.32-.518-.995-.686-1.289c-.143.423-.27.818-.376 1.176c.484.884.778 2.4.778 2.4s-.025-.099-.147-.442c-.107-.303-.644-1.244-.772-1.464c-.217.804-.304 1.346-.226 1.478c.152.256.296.698.422 1.186c.286 1.1.485 2.44.485 2.44l.017.224a22 22 0 0 0 .056 2.748c.095 1.146.273 2.13.5 2.657l.155-.084c-.334-1.038-.47-2.399-.41-3.967c.09-2.398.642-5.29 1.661-8.304c1.723-4.55 4.113-8.201 6.3-9.945c-1.993 1.8-4.692 7.63-5.5 9.788c-.904 2.416-1.545 4.684-1.931 6.857c.666-2.037 2.821-2.912 2.821-2.912s1.057-1.304 2.292-3.166c-.74.169-1.955.458-2.362.629c-.6.251-.762.337-.762.337s1.945-1.184 3.613-1.72C21.695 7.9 24.195 2.767 21.678.521m-18.573.543A1.84 1.84 0 0 0 1.27 2.9v16.608a1.84 1.84 0 0 0 1.835 1.834h9.418a23 23 0 0 1-.052-2.707c-.006-.062-.011-.141-.016-.2a27 27 0 0 0-.473-2.378c-.121-.47-.275-.898-.369-1.057c-.116-.197-.098-.31-.097-.432c0-.12.015-.245.037-.386a10 10 0 0 1 .234-1.045l.217-.028c-.017-.035-.014-.065-.031-.097l-.041-.381a33 33 0 0 1 .382-1.194l.2-.019c-.008-.016-.01-.038-.018-.053l-.043-.316c.63-3.28 2.587-7.443 4.8-9.791c.066-.069.133-.128.198-.194Z"/>
</svg>
  <text x="1355" y="395" text-anchor="middle" font-family="DejaVu Sans, sans-serif" font-size="16" font-weight="700" fill="#242424">SQLite + FTS5</text>
  <text x="1355" y="414" text-anchor="middle" font-family="DejaVu Sans, sans-serif" font-size="11" font-weight="400" fill="#667085"><tspan x="1355" dy="0">staging + JSONL</tspan></text>
</g>
<g>
  <rect x="1490" y="285" width="145" height="75" rx="3" fill="#FFFFFF" stroke="#069A8E" stroke-width="1.6"/>
  <svg x="1502" y="308.5" width="28" height="28" viewBox="0 0 256 264" preserveAspectRatio="xMidYMid meet" overflow="visible" aria-hidden="true">

<path d="M255.008 158.086c-1.535-4.649-5.556-7.887-10.756-8.664c-2.452-.366-5.26-.21-8.583.475c-5.792 1.195-10.089 1.65-13.225 1.738c11.837-19.985 21.462-42.775 27.003-64.228c8.96-34.689 4.172-50.492-1.423-57.64C233.217 10.847 211.614.683 185.552.372c-13.903-.17-26.108 2.575-32.475 4.549c-5.928-1.046-12.302-1.63-18.99-1.738c-12.537-.2-23.614 2.533-33.079 8.15c-5.24-1.772-13.65-4.27-23.362-5.864c-22.842-3.75-41.252-.828-54.718 8.685C6.622 25.672-.937 45.684.461 73.634c.444 8.874 5.408 35.874 13.224 61.48c4.492 14.718 9.282 26.94 14.237 36.33c7.027 13.315 14.546 21.156 22.987 23.972c4.731 1.576 13.327 2.68 22.368-4.85c1.146 1.388 2.675 2.767 4.704 4.048c2.577 1.625 5.728 2.953 8.875 3.74c11.341 2.835 21.964 2.126 31.027-1.848c.056 1.612.099 3.152.135 4.482c.06 2.157.12 4.272.199 6.25c.537 13.374 1.447 23.773 4.143 31.049c.148.4.347 1.01.557 1.657c1.345 4.118 3.594 11.012 9.316 16.411c5.925 5.593 13.092 7.308 19.656 7.308c3.292 0 6.433-.432 9.188-1.022c9.82-2.105 20.973-5.311 29.041-16.799c7.628-10.86 11.336-27.217 12.007-52.99q.13-1.094.244-2.088l.16-1.362l1.797.158l.463.031c10.002.456 22.232-1.665 29.743-5.154c5.935-2.754 24.954-12.795 20.476-26.351"/><path fill="#336791" d="M237.906 160.722c-29.74 6.135-31.785-3.934-31.785-3.934c31.4-46.593 44.527-105.736 33.2-120.211c-30.904-39.485-84.399-20.811-85.292-20.327l-.287.052c-5.876-1.22-12.451-1.946-19.842-2.067c-13.456-.22-23.664 3.528-31.41 9.402c0 0-95.43-39.314-90.991 49.444c.944 18.882 27.064 142.873 58.218 105.422c11.387-13.695 22.39-25.274 22.39-25.274c5.464 3.63 12.006 5.482 18.864 4.817l.533-.452c-.166 1.7-.09 3.363.213 5.332c-8.026 8.967-5.667 10.541-21.711 13.844c-16.235 3.346-6.698 9.302-.471 10.86c7.549 1.887 25.013 4.561 36.813-11.958l-.47 1.885c3.144 2.519 5.352 16.383 4.982 28.952c-.37 12.568-.617 21.197 1.86 27.937c2.479 6.74 4.948 21.905 26.04 17.386c17.623-3.777 26.756-13.564 28.027-29.89c.901-11.606 2.942-9.89 3.07-20.267l1.637-4.912c1.887-15.733.3-20.809 11.157-18.448l2.64.232c7.99.363 18.45-1.286 24.589-4.139c13.218-6.134 21.058-16.377 8.024-13.686z"/><path fill="#FFF" d="M108.076 81.525c-2.68-.373-5.107-.028-6.335.902c-.69.523-.904 1.129-.962 1.546c-.154 1.105.62 2.327 1.096 2.957c1.346 1.784 3.312 3.01 5.258 3.28q.423.059.842.058c3.245 0 6.196-2.527 6.456-4.392c.325-2.336-3.066-3.893-6.355-4.35m88.784.073c-.256-1.831-3.514-2.353-6.606-1.923c-3.088.43-6.082 1.824-5.832 3.659c.2 1.427 2.777 3.863 5.827 3.863q.387 0 .78-.054c2.036-.282 3.53-1.575 4.24-2.32c1.08-1.136 1.706-2.402 1.591-3.225"/><path fill="#FFF" d="M247.802 160.025c-1.134-3.429-4.784-4.532-10.848-3.28c-18.005 3.716-24.453 1.142-26.57-.417c13.995-21.32 25.508-47.092 31.719-71.137c2.942-11.39 4.567-21.968 4.7-30.59c.147-9.463-1.465-16.417-4.789-20.665c-13.402-17.125-33.072-26.311-56.882-26.563c-16.369-.184-30.199 4.005-32.88 5.183c-5.646-1.404-11.801-2.266-18.502-2.376c-12.288-.199-22.91 2.743-31.704 8.74c-3.82-1.422-13.692-4.811-25.765-6.756c-20.872-3.36-37.458-.814-49.294 7.571c-14.123 10.006-20.643 27.892-19.38 53.16c.425 8.501 5.269 34.653 12.913 59.698c10.062 32.964 21 51.625 32.508 55.464c1.347.449 2.9.763 4.613.763c4.198 0 9.345-1.892 14.7-8.33a530 530 0 0 1 20.261-22.926c4.524 2.428 9.494 3.784 14.577 3.92q.016.2.035.398a118 118 0 0 0-2.57 3.175c-3.522 4.471-4.255 5.402-15.592 7.736c-3.225.666-11.79 2.431-11.916 8.435c-.136 6.56 10.125 9.315 11.294 9.607c4.074 1.02 7.999 1.523 11.742 1.523c9.103 0 17.114-2.992 23.516-8.781c-.197 23.386.778 46.43 3.586 53.451c2.3 5.748 7.918 19.795 25.664 19.794c2.604 0 5.47-.303 8.623-.979c18.521-3.97 26.564-12.156 29.675-30.203c1.665-9.645 4.522-32.676 5.866-45.03c2.836.885 6.487 1.29 10.434 1.289c8.232 0 17.731-1.749 23.688-4.514c6.692-3.108 18.768-10.734 16.578-17.36m-44.106-83.48c-.061 3.647-.563 6.958-1.095 10.414c-.573 3.717-1.165 7.56-1.314 12.225c-.147 4.54.42 9.26.968 13.825c1.108 9.22 2.245 18.712-2.156 28.078a37 37 0 0 1-1.95-4.009c-.547-1.326-1.735-3.456-3.38-6.404c-6.399-11.476-21.384-38.35-13.713-49.316c2.285-3.264 8.084-6.62 22.64-4.813m-17.644-61.787c21.334.471 38.21 8.452 50.158 23.72c9.164 11.711-.927 64.998-30.14 110.969a171 171 0 0 0-.886-1.117l-.37-.462c7.549-12.467 6.073-24.802 4.759-35.738c-.54-4.488-1.05-8.727-.92-12.709c.134-4.22.692-7.84 1.232-11.34c.663-4.313 1.338-8.776 1.152-14.037c.139-.552.195-1.204.122-1.978c-.475-5.045-6.235-20.144-17.975-33.81c-6.422-7.475-15.787-15.84-28.574-21.482c5.5-1.14 13.021-2.203 21.442-2.016M66.674 175.778c-5.9 7.094-9.974 5.734-11.314 5.288c-8.73-2.912-18.86-21.364-27.791-50.624c-7.728-25.318-12.244-50.777-12.602-57.916c-1.128-22.578 4.345-38.313 16.268-46.769c19.404-13.76 51.306-5.524 64.125-1.347c-.184.182-.376.352-.558.537c-21.036 21.244-20.537 57.54-20.485 59.759c-.002.856.07 2.068.168 3.735c.362 6.105 1.036 17.467-.764 30.334c-1.672 11.957 2.014 23.66 10.111 32.109a36 36 0 0 0 2.617 2.468c-3.604 3.86-11.437 12.396-19.775 22.426m22.479-29.993c-6.526-6.81-9.49-16.282-8.133-25.99c1.9-13.592 1.199-25.43.822-31.79c-.053-.89-.1-1.67-.127-2.285c3.073-2.725 17.314-10.355 27.47-8.028c4.634 1.061 7.458 4.217 8.632 9.645c6.076 28.103.804 39.816-3.432 49.229c-.873 1.939-1.698 3.772-2.402 5.668l-.546 1.466c-1.382 3.706-2.668 7.152-3.465 10.424c-6.938-.02-13.687-2.984-18.819-8.34m1.065 37.9c-2.026-.506-3.848-1.385-4.917-2.114c.893-.42 2.482-.992 5.238-1.56c13.337-2.745 15.397-4.683 19.895-10.394c1.031-1.31 2.2-2.794 3.819-4.602l.002-.002c2.411-2.7 3.514-2.242 5.514-1.412c1.621.67 3.2 2.702 3.84 4.938c.303 1.056.643 3.06-.47 4.62c-9.396 13.156-23.088 12.987-32.921 10.526m69.799 64.952c-16.316 3.496-22.093-4.829-25.9-14.346c-2.457-6.144-3.665-33.85-2.808-64.447c.011-.407-.047-.8-.159-1.17a15.4 15.4 0 0 0-.456-2.162c-1.274-4.452-4.379-8.176-8.104-9.72c-1.48-.613-4.196-1.738-7.46-.903c.696-2.868 1.903-6.107 3.212-9.614l.549-1.475c.618-1.663 1.394-3.386 2.214-5.21c4.433-9.848 10.504-23.337 3.915-53.81c-2.468-11.414-10.71-16.988-23.204-15.693c-7.49.775-14.343 3.797-17.761 5.53c-.735.372-1.407.732-2.035 1.082c.954-11.5 4.558-32.992 18.04-46.59c8.489-8.56 19.794-12.788 33.568-12.56c27.14.444 44.544 14.372 54.366 25.979c8.464 10.001 13.047 20.076 14.876 25.51c-13.755-1.399-23.11 1.316-27.852 8.096c-10.317 14.748 5.644 43.372 13.315 57.129c1.407 2.521 2.621 4.7 3.003 5.626c2.498 6.054 5.732 10.096 8.093 13.046c.724.904 1.426 1.781 1.96 2.547c-4.166 1.201-11.649 3.976-10.967 17.847c-.55 6.96-4.461 39.546-6.448 51.059c-2.623 15.21-8.22 20.875-23.957 24.25m68.104-77.936c-4.26 1.977-11.389 3.46-18.161 3.779c-7.48.35-11.288-.838-12.184-1.569c-.42-8.644 2.797-9.547 6.202-10.503c.535-.15 1.057-.297 1.561-.473q.469.383 1.032.756c6.012 3.968 16.735 4.396 31.874 1.271l.166-.033c-2.042 1.909-5.536 4.471-10.49 6.772"/>
</svg>
  <text x="1576.5" y="313" text-anchor="middle" font-family="DejaVu Sans, sans-serif" font-size="16" font-weight="700" fill="#242424">PostgreSQL</text>
  <text x="1576.5" y="337" text-anchor="middle" font-family="DejaVu Sans, sans-serif" font-size="12" font-weight="400" fill="#667085"><tspan x="1576.5" dy="0">graphrag_chunk</tspan><tspan x="1576.5" dy="17">HNSW + GIN</tspan></text>
</g>
<g>
  <rect x="1655" y="285" width="145" height="75" rx="3" fill="#FFFFFF" stroke="#8B69D4" stroke-width="1.6"/>
  <svg x="1667" y="308.5" width="28" height="28" viewBox="0 0 512 170" preserveAspectRatio="xMidYMid meet" overflow="visible" aria-hidden="true">

<path d="M95.217 35.541h.235c-27.905 0-46.665 16.074-46.665 47.703v19.278a26 26 0 0 1 9.097-2.12a17.7 17.7 0 0 1 9.145 2.12V83.244c0-20.364 11.266-31.11 28.282-31.11s28.282 10.746 28.282 31.11v49.305h18.242V83.244c0-31.63-18.855-47.703-46.618-47.703m56.705 49.824h-.188c0-28.942 20.881-49.824 50.907-49.824c30.027 0 50.39 21.023 50.39 49.824v6.457h-82.018c2.133 15.633 15.87 27.036 31.628 26.256c12.35 0 20.93-3.724 26.303-11.785h19.986c-7.495 17.677-24.653 28.942-46.619 28.942c-29.507 0-50.389-20.881-50.389-49.87m82.537-9.428c-3.446-14.478-16.77-24.406-31.629-23.568c-14.729-.81-27.877 9.166-31.063 23.568zm28.612 9.428c0-28.336 20.396-49.144 49.65-49.808l1.446-.016a49.02 49.02 0 0 1 50.955 49.824c0 28.989-20.929 49.87-50.955 49.87s-51.096-20.881-51.096-49.87m83.055 0a30.922 30.922 0 0 0-32.666-32.666a31.487 31.487 0 0 0-32.713 32.666a30.97 30.97 0 0 0 32.713 32.713c19.845.565 32.666-13.387 32.666-32.713m159.463-43.413v90.03c0 23.57-9.144 35.4-32.713 35.4h-3.77v-15.507h2.168c11.784 0 16.073-5.374 16.073-18.855V41.952zm-61.136-18.384a22.39 22.39 0 0 1 15.555 21.448v58.072h10.7v16.074h-10.7v22.531h-18.242v-22.531h-46.1a22.72 22.72 0 0 1-20.928-11.784a19.75 19.75 0 0 1 2.687-21.448l41.197-54.16a22.63 22.63 0 0 1 25.831-8.202m-5.986 17.3h-1.603a4.71 4.71 0 0 0-3.77 2.168L392.46 96.112a3.9 3.9 0 0 0-1.084 2.687a4.714 4.714 0 0 0 4.714 4.713h45.58V45.157c0-3.205-2.12-4.29-3.204-4.29"/><path fill="#018BFF" d="M496.445 0c-8.591 0-15.555 6.964-15.555 15.555s6.964 15.555 15.555 15.555S512 24.146 512 15.555S505.036 0 496.445 0M56.847 109.499a12.77 12.77 0 0 0-9.144 3.205l-17.158-11.219a11.4 11.4 0 0 0 .566-4.289a15.555 15.555 0 1 0-15.555 15.508a12.5 12.5 0 0 0 9.097-3.205l17.158 11.784c-.425 1.388-.6 2.84-.519 4.29c-.086 1.449.09 2.902.519 4.289l-17.158 11.831a14.47 14.47 0 0 0-9.097-3.252a15.555 15.555 0 1 0 15.555 15.555c.091-1.453-.1-2.91-.566-4.29l17.158-11.784a14.42 14.42 0 0 0 9.144 3.205a15.51 15.51 0 0 0 15.509-15.555c.054-8.68-6.831-15.817-15.509-16.073"/>
</svg>
  <text x="1741.5" y="313" text-anchor="middle" font-family="DejaVu Sans, sans-serif" font-size="16" font-weight="700" fill="#242424">Neo4j</text>
  <text x="1741.5" y="337" text-anchor="middle" font-family="DejaVu Sans, sans-serif" font-size="12" font-weight="400" fill="#667085"><tspan x="1741.5" dy="0">nodes · chunks</tspan><tspan x="1741.5" dy="17">typed relations</tspan></text>
</g>
<g>
  <rect x="1490" y="390" width="310" height="75" rx="3" fill="#F7F6EF" stroke="#4A9B73" stroke-width="1.5" stroke-dasharray="5 4"/>
  <svg x="1504" y="404" width="28" height="28" viewBox="0 0 24 24" preserveAspectRatio="xMidYMid meet" overflow="visible" aria-hidden="true">

<g fill="none" stroke="#4A9B73" stroke-linecap="round" stroke-linejoin="round" stroke-width="2"><circle cx="12" cy="12" r="10"/><path d="m9 12l2 2l4-4"/></g>
</svg>
  <text x="1542" y="418" text-anchor="start" font-family="DejaVu Sans, sans-serif" font-size="14" font-weight="700" fill="#242424">Projection sync</text>
  <text x="1508" y="444" text-anchor="start" font-family="DejaVu Sans, sans-serif" font-size="11" font-weight="400" fill="#667085"><tspan x="1508" dy="0">Stable doc_id · node_id · chunk_id preserve cross-store identity.</tspan></text>
</g>
<g>
  <path d="M 300 360 L 345 360" fill="none" stroke="#069A8E" stroke-width="1.6" marker-end="url(#arrow-data)"/>
  
</g>
<g>
  <path d="M 535 360 L 580 360" fill="none" stroke="#069A8E" stroke-width="1.6" marker-end="url(#arrow-data)"/>
  
</g>
<g>
  <path d="M 770 360 L 815 360" fill="none" stroke="#069A8E" stroke-width="1.6" marker-end="url(#arrow-data)"/>
  
</g>
<g>
  <path d="M 1000 360 L 1045 360" fill="none" stroke="#069A8E" stroke-width="1.6" marker-end="url(#arrow-data)"/>
  
</g>
<g>
  <path d="M 1225 360 L 1270 360" fill="none" stroke="#069A8E" stroke-width="1.6" marker-end="url(#arrow-data)"/>
  
</g>
<g>
  <path d="M 1440 335 L 1490 335" fill="none" stroke="#069A8E" stroke-width="1.6" marker-end="url(#arrow-data)"/>
  <g>
  <rect x="1435.4" y="305" width="59.2" height="22" rx="2" fill="#F7F6EF" fill-opacity="0.96"/>
  <text x="1465" y="321" text-anchor="middle" font-family="DejaVu Sans, sans-serif" font-size="11" font-weight="500" fill="#667085">upsert</text>
</g>
</g>
<g>
  <path d="M 1440 380 L 1465 380 L 1465 380 L 1655 330" fill="none" stroke="#8B69D4" stroke-width="1.6" stroke-dasharray="7 6" marker-end="url(#arrow-async)"/>
  <g>
  <rect x="1518" y="357" width="54" height="22" rx="2" fill="#F7F6EF" fill-opacity="0.96"/>
  <text x="1545" y="373" text-anchor="middle" font-family="DejaVu Sans, sans-serif" font-size="11" font-weight="500" fill="#667085">MERGE</text>
</g>
</g>
<g>
  <rect x="90" y="565" width="1740" height="405" fill="none" stroke="#E58A3A" stroke-width="2" stroke-dasharray="9 7"/>
  <rect x="752.8" y="552" width="414.4" height="26" fill="#F7F6EF"/>
  <text x="960" y="571" text-anchor="middle" font-family="DejaVu Sans, sans-serif" font-size="18" font-weight="700" fill="#242424">Freshness-Driven Incremental Pipeline</text>
</g>
<g>
  <circle cx="130" cy="615" r="18" fill="#E58A3A"/>
  <text x="130" y="621" text-anchor="middle" font-family="DejaVu Sans, sans-serif" font-size="15" font-weight="800" fill="#FFFFFF">2</text>
  <text x="158" y="621" text-anchor="start" font-family="DejaVu Sans, sans-serif" font-size="18" font-weight="700" fill="#242424">Verify, version and re-project changed laws</text>
</g>
<g>
  <rect x="120" y="675" width="165" height="80" rx="3" fill="#FFFFFF" stroke="#E58A3A" stroke-width="1.6"/>
  <svg x="132" y="701" width="28" height="28" viewBox="0 0 24 24" preserveAspectRatio="xMidYMid meet" overflow="visible" aria-hidden="true">

<g fill="none" stroke="#E58A3A" stroke-linecap="round" stroke-linejoin="round" stroke-width="2"><path d="M12 6v6h4"/><circle cx="12" cy="12" r="10"/></g>
</svg>
  <text x="216.5" y="703" text-anchor="middle" font-family="DejaVu Sans, sans-serif" font-size="16" font-weight="700" fill="#242424">Trigger</text>
  <text x="216.5" y="727" text-anchor="middle" font-family="DejaVu Sans, sans-serif" font-size="12" font-weight="400" fill="#667085"><tspan x="216.5" dy="0">query-time check</tspan><tspan x="216.5" dy="17">or nightly Celery</tspan></text>
</g>
<g>
  <rect x="325" y="675" width="170" height="80" rx="3" fill="#FFFFFF" stroke="#E58A3A" stroke-width="1.6"/>
  <svg x="337" y="701" width="28" height="28" viewBox="0 0 24 24" preserveAspectRatio="xMidYMid meet" overflow="visible" aria-hidden="true">

<g fill="none" stroke="#069A8E" stroke-linecap="round" stroke-linejoin="round" stroke-width="2"><path d="m21 21l-4.34-4.34"/><circle cx="11" cy="11" r="8"/></g>
</svg>
  <text x="424" y="703" text-anchor="middle" font-family="DejaVu Sans, sans-serif" font-size="16" font-weight="700" fill="#242424">Candidates</text>
  <text x="424" y="727" text-anchor="middle" font-family="DejaVu Sans, sans-serif" font-size="12" font-weight="400" fill="#667085"><tspan x="424" dy="0">retrieve legal sources</tspan></text>
</g>
<g>
  <polygon points="617.5,665 700,715 617.5,765 535,715" fill="#FFFFFF" stroke="#E58A3A" stroke-width="1.6"/>
  <text x="617.5" y="709" text-anchor="middle" font-family="DejaVu Sans, sans-serif" font-size="15" font-weight="700" fill="#242424">verified_at</text>
  <text x="617.5" y="731" text-anchor="middle" font-family="DejaVu Sans, sans-serif" font-size="11" font-weight="400" fill="#667085"><tspan x="617.5" dy="0">within TTL?</tspan></text>
</g>
<g>
  <rect x="745" y="675" width="170" height="80" rx="3" fill="#FFFFFF" stroke="#E58A3A" stroke-width="1.6"/>
  <svg x="757" y="701" width="28" height="28" viewBox="0 0 24 24" preserveAspectRatio="xMidYMid meet" overflow="visible" aria-hidden="true">

<g fill="none" stroke="#6F8FF7" stroke-linecap="round" stroke-linejoin="round" stroke-width="2"><circle cx="12" cy="12" r="10"/><path d="M12 2a14.5 14.5 0 0 0 0 20a14.5 14.5 0 0 0 0-20M2 12h20"/></g>
</svg>
  <text x="844" y="703" text-anchor="middle" font-family="DejaVu Sans, sans-serif" font-size="16" font-weight="700" fill="#242424">Official Search</text>
  <text x="844" y="727" text-anchor="middle" font-family="DejaVu Sans, sans-serif" font-size="12" font-weight="400" fill="#667085"><tspan x="844" dy="0">Tavily allowlist</tspan><tspan x="844" dy="17">PDF · DOCX · HTML</tspan></text>
</g>
<g>
  <rect x="955" y="675" width="170" height="80" rx="3" fill="#FFFFFF" stroke="#E58A3A" stroke-width="1.6"/>
  <svg x="967" y="701" width="28" height="28" viewBox="0 0 24 24" preserveAspectRatio="xMidYMid meet" overflow="visible" aria-hidden="true">

<path fill="#FF6A00" d="M3.996 4.517h5.291L8.01 6.324L4.153 7.506a1.67 1.67 0 0 0-1.165 1.601v5.786a1.67 1.67 0 0 0 1.165 1.6l3.857 1.183l1.277 1.807H3.996A3.996 3.996 0 0 1 0 15.487V8.513a3.996 3.996 0 0 1 3.996-3.996m16.008 0h-5.291l1.277 1.807l3.857 1.182c.715.227 1.17.889 1.165 1.601v5.786a1.67 1.67 0 0 1-1.165 1.6l-3.857 1.183l-1.277 1.807h5.291A3.996 3.996 0 0 0 24 15.487V8.513a3.996 3.996 0 0 0-3.996-3.996m-4.007 8.345H8.002v-1.804h7.995Z"/>
</svg>
  <text x="1054" y="703" text-anchor="middle" font-family="DejaVu Sans, sans-serif" font-size="16" font-weight="700" fill="#242424">Qwen Verdict</text>
  <text x="1054" y="727" text-anchor="middle" font-family="DejaVu Sans, sans-serif" font-size="12" font-weight="400" fill="#667085"><tspan x="1054" dy="0">in force · amended</tspan><tspan x="1054" dy="17">expired · replaced</tspan></text>
</g>
<g>
  <polygon points="1250,665 1335,715 1250,765 1165,715" fill="#FFFFFF" stroke="#E58A3A" stroke-width="1.6"/>
  <text x="1250" y="709" text-anchor="middle" font-family="DejaVu Sans, sans-serif" font-size="15" font-weight="700" fill="#242424">Source</text>
  <text x="1250" y="731" text-anchor="middle" font-family="DejaVu Sans, sans-serif" font-size="11" font-weight="400" fill="#667085"><tspan x="1250" dy="0">changed?</tspan></text>
</g>
<g>
  <rect x="555" y="835" width="180" height="75" rx="3" fill="#FFFFFF" stroke="#4A9B73" stroke-width="1.6"/>
  <svg x="567" y="858.5" width="28" height="28" viewBox="0 0 24 24" preserveAspectRatio="xMidYMid meet" overflow="visible" aria-hidden="true">

<g fill="none" stroke="#4A9B73" stroke-linecap="round" stroke-linejoin="round" stroke-width="2"><circle cx="12" cy="12" r="10"/><path d="m9 12l2 2l4-4"/></g>
</svg>
  <text x="659" y="863" text-anchor="middle" font-family="DejaVu Sans, sans-serif" font-size="16" font-weight="700" fill="#242424">Reuse Metadata</text>
  <text x="659" y="887" text-anchor="middle" font-family="DejaVu Sans, sans-serif" font-size="12" font-weight="400" fill="#667085"><tspan x="659" dy="0">current status + evidence</tspan></text>
</g>
<g>
  <rect x="955" y="835" width="180" height="75" rx="3" fill="#FFFFFF" stroke="#4A9B73" stroke-width="1.6"/>
  <svg x="967" y="858.5" width="28" height="28" viewBox="0 0 24 24" preserveAspectRatio="xMidYMid meet" overflow="visible" aria-hidden="true">

<g fill="none" stroke="#069A8E" stroke-linecap="round" stroke-linejoin="round" stroke-width="2"><path d="M3 12a9 9 0 0 1 9-9a9.75 9.75 0 0 1 6.74 2.74L21 8"/><path d="M21 3v5h-5m5 4a9 9 0 0 1-9 9a9.75 9.75 0 0 1-6.74-2.74L3 16"/><path d="M8 16H3v5"/></g>
</svg>
  <text x="1059" y="863" text-anchor="middle" font-family="DejaVu Sans, sans-serif" font-size="16" font-weight="700" fill="#242424">Metadata Update</text>
  <text x="1059" y="887" text-anchor="middle" font-family="DejaVu Sans, sans-serif" font-size="12" font-weight="400" fill="#667085"><tspan x="1059" dy="0">status · URL · verified_at</tspan><tspan x="1059" dy="17">evidence JSON</tspan></text>
</g>
<g>
  <rect x="1375" y="665" width="175" height="80" rx="3" fill="#FFFFFF" stroke="#E58A3A" stroke-width="1.6"/>
  <svg x="1387" y="691" width="28" height="28" viewBox="0 0 24 24" preserveAspectRatio="xMidYMid meet" overflow="visible" aria-hidden="true">

<g fill="none" stroke="#6F8FF7" stroke-linecap="round" stroke-linejoin="round" stroke-width="2"><path d="M12 15V3m9 12v4a2 2 0 0 1-2 2H5a2 2 0 0 1-2-2v-4"/><path d="m7 10l5 5l5-5"/></g>
</svg>
  <text x="1476.5" y="693" text-anchor="middle" font-family="DejaVu Sans, sans-serif" font-size="16" font-weight="700" fill="#242424">Download &amp; Clean</text>
  <text x="1476.5" y="717" text-anchor="middle" font-family="DejaVu Sans, sans-serif" font-size="12" font-weight="400" fill="#667085"><tspan x="1476.5" dy="0">checksum · version</tspan><tspan x="1476.5" dy="17">normalized text</tspan></text>
</g>
<g>
  <rect x="1585" y="665" width="185" height="80" rx="3" fill="#FFFFFF" stroke="#E58A3A" stroke-width="1.6"/>
  <svg x="1597" y="691" width="28" height="28" viewBox="0 0 24 24" preserveAspectRatio="xMidYMid meet" overflow="visible" aria-hidden="true">

<g fill="none" stroke="#242424" stroke-linecap="round" stroke-linejoin="round" stroke-width="2"><path d="M15 2h-4a2 2 0 0 0-2 2v11a2 2 0 0 0 2 2h8a2 2 0 0 0 2-2V8"/><path d="M16.706 2.706A2.4 2.4 0 0 0 15 2v5a1 1 0 0 0 1 1h5a2.4 2.4 0 0 0-.706-1.706zM5 7a2 2 0 0 0-2 2v11a2 2 0 0 0 2 2h8a2 2 0 0 0 1.732-1"/></g>
</svg>
  <text x="1691.5" y="693" text-anchor="middle" font-family="DejaVu Sans, sans-serif" font-size="16" font-weight="700" fill="#242424">Article Split</text>
  <text x="1691.5" y="717" text-anchor="middle" font-family="DejaVu Sans, sans-serif" font-size="12" font-weight="400" fill="#667085"><tspan x="1691.5" dy="0">article / clause</tspan><tspan x="1691.5" dy="17">overlapping fallback</tspan></text>
</g>
<g>
  <rect x="1280" y="835" width="175" height="75" rx="3" fill="#FFFFFF" stroke="#069A8E" stroke-width="1.6"/>
  <svg x="1292" y="858.5" width="28" height="28" viewBox="0 0 256 264" preserveAspectRatio="xMidYMid meet" overflow="visible" aria-hidden="true">

<path d="M255.008 158.086c-1.535-4.649-5.556-7.887-10.756-8.664c-2.452-.366-5.26-.21-8.583.475c-5.792 1.195-10.089 1.65-13.225 1.738c11.837-19.985 21.462-42.775 27.003-64.228c8.96-34.689 4.172-50.492-1.423-57.64C233.217 10.847 211.614.683 185.552.372c-13.903-.17-26.108 2.575-32.475 4.549c-5.928-1.046-12.302-1.63-18.99-1.738c-12.537-.2-23.614 2.533-33.079 8.15c-5.24-1.772-13.65-4.27-23.362-5.864c-22.842-3.75-41.252-.828-54.718 8.685C6.622 25.672-.937 45.684.461 73.634c.444 8.874 5.408 35.874 13.224 61.48c4.492 14.718 9.282 26.94 14.237 36.33c7.027 13.315 14.546 21.156 22.987 23.972c4.731 1.576 13.327 2.68 22.368-4.85c1.146 1.388 2.675 2.767 4.704 4.048c2.577 1.625 5.728 2.953 8.875 3.74c11.341 2.835 21.964 2.126 31.027-1.848c.056 1.612.099 3.152.135 4.482c.06 2.157.12 4.272.199 6.25c.537 13.374 1.447 23.773 4.143 31.049c.148.4.347 1.01.557 1.657c1.345 4.118 3.594 11.012 9.316 16.411c5.925 5.593 13.092 7.308 19.656 7.308c3.292 0 6.433-.432 9.188-1.022c9.82-2.105 20.973-5.311 29.041-16.799c7.628-10.86 11.336-27.217 12.007-52.99q.13-1.094.244-2.088l.16-1.362l1.797.158l.463.031c10.002.456 22.232-1.665 29.743-5.154c5.935-2.754 24.954-12.795 20.476-26.351"/><path fill="#336791" d="M237.906 160.722c-29.74 6.135-31.785-3.934-31.785-3.934c31.4-46.593 44.527-105.736 33.2-120.211c-30.904-39.485-84.399-20.811-85.292-20.327l-.287.052c-5.876-1.22-12.451-1.946-19.842-2.067c-13.456-.22-23.664 3.528-31.41 9.402c0 0-95.43-39.314-90.991 49.444c.944 18.882 27.064 142.873 58.218 105.422c11.387-13.695 22.39-25.274 22.39-25.274c5.464 3.63 12.006 5.482 18.864 4.817l.533-.452c-.166 1.7-.09 3.363.213 5.332c-8.026 8.967-5.667 10.541-21.711 13.844c-16.235 3.346-6.698 9.302-.471 10.86c7.549 1.887 25.013 4.561 36.813-11.958l-.47 1.885c3.144 2.519 5.352 16.383 4.982 28.952c-.37 12.568-.617 21.197 1.86 27.937c2.479 6.74 4.948 21.905 26.04 17.386c17.623-3.777 26.756-13.564 28.027-29.89c.901-11.606 2.942-9.89 3.07-20.267l1.637-4.912c1.887-15.733.3-20.809 11.157-18.448l2.64.232c7.99.363 18.45-1.286 24.589-4.139c13.218-6.134 21.058-16.377 8.024-13.686z"/><path fill="#FFF" d="M108.076 81.525c-2.68-.373-5.107-.028-6.335.902c-.69.523-.904 1.129-.962 1.546c-.154 1.105.62 2.327 1.096 2.957c1.346 1.784 3.312 3.01 5.258 3.28q.423.059.842.058c3.245 0 6.196-2.527 6.456-4.392c.325-2.336-3.066-3.893-6.355-4.35m88.784.073c-.256-1.831-3.514-2.353-6.606-1.923c-3.088.43-6.082 1.824-5.832 3.659c.2 1.427 2.777 3.863 5.827 3.863q.387 0 .78-.054c2.036-.282 3.53-1.575 4.24-2.32c1.08-1.136 1.706-2.402 1.591-3.225"/><path fill="#FFF" d="M247.802 160.025c-1.134-3.429-4.784-4.532-10.848-3.28c-18.005 3.716-24.453 1.142-26.57-.417c13.995-21.32 25.508-47.092 31.719-71.137c2.942-11.39 4.567-21.968 4.7-30.59c.147-9.463-1.465-16.417-4.789-20.665c-13.402-17.125-33.072-26.311-56.882-26.563c-16.369-.184-30.199 4.005-32.88 5.183c-5.646-1.404-11.801-2.266-18.502-2.376c-12.288-.199-22.91 2.743-31.704 8.74c-3.82-1.422-13.692-4.811-25.765-6.756c-20.872-3.36-37.458-.814-49.294 7.571c-14.123 10.006-20.643 27.892-19.38 53.16c.425 8.501 5.269 34.653 12.913 59.698c10.062 32.964 21 51.625 32.508 55.464c1.347.449 2.9.763 4.613.763c4.198 0 9.345-1.892 14.7-8.33a530 530 0 0 1 20.261-22.926c4.524 2.428 9.494 3.784 14.577 3.92q.016.2.035.398a118 118 0 0 0-2.57 3.175c-3.522 4.471-4.255 5.402-15.592 7.736c-3.225.666-11.79 2.431-11.916 8.435c-.136 6.56 10.125 9.315 11.294 9.607c4.074 1.02 7.999 1.523 11.742 1.523c9.103 0 17.114-2.992 23.516-8.781c-.197 23.386.778 46.43 3.586 53.451c2.3 5.748 7.918 19.795 25.664 19.794c2.604 0 5.47-.303 8.623-.979c18.521-3.97 26.564-12.156 29.675-30.203c1.665-9.645 4.522-32.676 5.866-45.03c2.836.885 6.487 1.29 10.434 1.289c8.232 0 17.731-1.749 23.688-4.514c6.692-3.108 18.768-10.734 16.578-17.36m-44.106-83.48c-.061 3.647-.563 6.958-1.095 10.414c-.573 3.717-1.165 7.56-1.314 12.225c-.147 4.54.42 9.26.968 13.825c1.108 9.22 2.245 18.712-2.156 28.078a37 37 0 0 1-1.95-4.009c-.547-1.326-1.735-3.456-3.38-6.404c-6.399-11.476-21.384-38.35-13.713-49.316c2.285-3.264 8.084-6.62 22.64-4.813m-17.644-61.787c21.334.471 38.21 8.452 50.158 23.72c9.164 11.711-.927 64.998-30.14 110.969a171 171 0 0 0-.886-1.117l-.37-.462c7.549-12.467 6.073-24.802 4.759-35.738c-.54-4.488-1.05-8.727-.92-12.709c.134-4.22.692-7.84 1.232-11.34c.663-4.313 1.338-8.776 1.152-14.037c.139-.552.195-1.204.122-1.978c-.475-5.045-6.235-20.144-17.975-33.81c-6.422-7.475-15.787-15.84-28.574-21.482c5.5-1.14 13.021-2.203 21.442-2.016M66.674 175.778c-5.9 7.094-9.974 5.734-11.314 5.288c-8.73-2.912-18.86-21.364-27.791-50.624c-7.728-25.318-12.244-50.777-12.602-57.916c-1.128-22.578 4.345-38.313 16.268-46.769c19.404-13.76 51.306-5.524 64.125-1.347c-.184.182-.376.352-.558.537c-21.036 21.244-20.537 57.54-20.485 59.759c-.002.856.07 2.068.168 3.735c.362 6.105 1.036 17.467-.764 30.334c-1.672 11.957 2.014 23.66 10.111 32.109a36 36 0 0 0 2.617 2.468c-3.604 3.86-11.437 12.396-19.775 22.426m22.479-29.993c-6.526-6.81-9.49-16.282-8.133-25.99c1.9-13.592 1.199-25.43.822-31.79c-.053-.89-.1-1.67-.127-2.285c3.073-2.725 17.314-10.355 27.47-8.028c4.634 1.061 7.458 4.217 8.632 9.645c6.076 28.103.804 39.816-3.432 49.229c-.873 1.939-1.698 3.772-2.402 5.668l-.546 1.466c-1.382 3.706-2.668 7.152-3.465 10.424c-6.938-.02-13.687-2.984-18.819-8.34m1.065 37.9c-2.026-.506-3.848-1.385-4.917-2.114c.893-.42 2.482-.992 5.238-1.56c13.337-2.745 15.397-4.683 19.895-10.394c1.031-1.31 2.2-2.794 3.819-4.602l.002-.002c2.411-2.7 3.514-2.242 5.514-1.412c1.621.67 3.2 2.702 3.84 4.938c.303 1.056.643 3.06-.47 4.62c-9.396 13.156-23.088 12.987-32.921 10.526m69.799 64.952c-16.316 3.496-22.093-4.829-25.9-14.346c-2.457-6.144-3.665-33.85-2.808-64.447c.011-.407-.047-.8-.159-1.17a15.4 15.4 0 0 0-.456-2.162c-1.274-4.452-4.379-8.176-8.104-9.72c-1.48-.613-4.196-1.738-7.46-.903c.696-2.868 1.903-6.107 3.212-9.614l.549-1.475c.618-1.663 1.394-3.386 2.214-5.21c4.433-9.848 10.504-23.337 3.915-53.81c-2.468-11.414-10.71-16.988-23.204-15.693c-7.49.775-14.343 3.797-17.761 5.53c-.735.372-1.407.732-2.035 1.082c.954-11.5 4.558-32.992 18.04-46.59c8.489-8.56 19.794-12.788 33.568-12.56c27.14.444 44.544 14.372 54.366 25.979c8.464 10.001 13.047 20.076 14.876 25.51c-13.755-1.399-23.11 1.316-27.852 8.096c-10.317 14.748 5.644 43.372 13.315 57.129c1.407 2.521 2.621 4.7 3.003 5.626c2.498 6.054 5.732 10.096 8.093 13.046c.724.904 1.426 1.781 1.96 2.547c-4.166 1.201-11.649 3.976-10.967 17.847c-.55 6.96-4.461 39.546-6.448 51.059c-2.623 15.21-8.22 20.875-23.957 24.25m68.104-77.936c-4.26 1.977-11.389 3.46-18.161 3.779c-7.48.35-11.288-.838-12.184-1.569c-.42-8.644 2.797-9.547 6.202-10.503c.535-.15 1.057-.297 1.561-.473q.469.383 1.032.756c6.012 3.968 16.735 4.396 31.874 1.271l.166-.033c-2.042 1.909-5.536 4.471-10.49 6.772"/>
</svg>
  <text x="1381.5" y="863" text-anchor="middle" font-family="DejaVu Sans, sans-serif" font-size="16" font-weight="700" fill="#242424">PostgreSQL Upsert</text>
  <text x="1381.5" y="887" text-anchor="middle" font-family="DejaVu Sans, sans-serif" font-size="12" font-weight="400" fill="#667085"><tspan x="1381.5" dy="0">document · chunks</tspan><tspan x="1381.5" dy="17">vectors + indexes</tspan></text>
</g>
<g>
  <rect x="1490" y="835" width="150" height="75" rx="3" fill="#FFFFFF" stroke="#8B69D4" stroke-width="1.6"/>
  <svg x="1502" y="858.5" width="28" height="28" viewBox="0 0 512 170" preserveAspectRatio="xMidYMid meet" overflow="visible" aria-hidden="true">

<path d="M95.217 35.541h.235c-27.905 0-46.665 16.074-46.665 47.703v19.278a26 26 0 0 1 9.097-2.12a17.7 17.7 0 0 1 9.145 2.12V83.244c0-20.364 11.266-31.11 28.282-31.11s28.282 10.746 28.282 31.11v49.305h18.242V83.244c0-31.63-18.855-47.703-46.618-47.703m56.705 49.824h-.188c0-28.942 20.881-49.824 50.907-49.824c30.027 0 50.39 21.023 50.39 49.824v6.457h-82.018c2.133 15.633 15.87 27.036 31.628 26.256c12.35 0 20.93-3.724 26.303-11.785h19.986c-7.495 17.677-24.653 28.942-46.619 28.942c-29.507 0-50.389-20.881-50.389-49.87m82.537-9.428c-3.446-14.478-16.77-24.406-31.629-23.568c-14.729-.81-27.877 9.166-31.063 23.568zm28.612 9.428c0-28.336 20.396-49.144 49.65-49.808l1.446-.016a49.02 49.02 0 0 1 50.955 49.824c0 28.989-20.929 49.87-50.955 49.87s-51.096-20.881-51.096-49.87m83.055 0a30.922 30.922 0 0 0-32.666-32.666a31.487 31.487 0 0 0-32.713 32.666a30.97 30.97 0 0 0 32.713 32.713c19.845.565 32.666-13.387 32.666-32.713m159.463-43.413v90.03c0 23.57-9.144 35.4-32.713 35.4h-3.77v-15.507h2.168c11.784 0 16.073-5.374 16.073-18.855V41.952zm-61.136-18.384a22.39 22.39 0 0 1 15.555 21.448v58.072h10.7v16.074h-10.7v22.531h-18.242v-22.531h-46.1a22.72 22.72 0 0 1-20.928-11.784a19.75 19.75 0 0 1 2.687-21.448l41.197-54.16a22.63 22.63 0 0 1 25.831-8.202m-5.986 17.3h-1.603a4.71 4.71 0 0 0-3.77 2.168L392.46 96.112a3.9 3.9 0 0 0-1.084 2.687a4.714 4.714 0 0 0 4.714 4.713h45.58V45.157c0-3.205-2.12-4.29-3.204-4.29"/><path fill="#018BFF" d="M496.445 0c-8.591 0-15.555 6.964-15.555 15.555s6.964 15.555 15.555 15.555S512 24.146 512 15.555S505.036 0 496.445 0M56.847 109.499a12.77 12.77 0 0 0-9.144 3.205l-17.158-11.219a11.4 11.4 0 0 0 .566-4.289a15.555 15.555 0 1 0-15.555 15.508a12.5 12.5 0 0 0 9.097-3.205l17.158 11.784c-.425 1.388-.6 2.84-.519 4.29c-.086 1.449.09 2.902.519 4.289l-17.158 11.831a14.47 14.47 0 0 0-9.097-3.252a15.555 15.555 0 1 0 15.555 15.555c.091-1.453-.1-2.91-.566-4.29l17.158-11.784a14.42 14.42 0 0 0 9.144 3.205a15.51 15.51 0 0 0 15.509-15.555c.054-8.68-6.831-15.817-15.509-16.073"/>
</svg>
  <text x="1579" y="863" text-anchor="middle" font-family="DejaVu Sans, sans-serif" font-size="16" font-weight="700" fill="#242424">Neo4j MERGE</text>
  <text x="1579" y="887" text-anchor="middle" font-family="DejaVu Sans, sans-serif" font-size="12" font-weight="400" fill="#667085"><tspan x="1579" dy="0">nodes · relations</tspan></text>
</g>
<g>
  <rect x="1675" y="835" width="120" height="75" rx="3" fill="#FFFFFF" stroke="#8B69D4" stroke-width="1.6"/>
  <svg x="1687" y="858.5" width="28" height="28" viewBox="0 0 24 24" preserveAspectRatio="xMidYMid meet" overflow="visible" aria-hidden="true">

<g fill="none" stroke="#069A8E" stroke-linecap="round" stroke-linejoin="round" stroke-width="2"><path d="M3 12a9 9 0 0 1 9-9a9.75 9.75 0 0 1 6.74 2.74L21 8"/><path d="M21 3v5h-5m5 4a9 9 0 0 1-9 9a9.75 9.75 0 0 1-6.74-2.74L3 16"/><path d="M8 16H3v5"/></g>
</svg>
  <text x="1749" y="863" text-anchor="middle" font-family="DejaVu Sans, sans-serif" font-size="16" font-weight="700" fill="#242424">Re-run</text>
  <text x="1749" y="887" text-anchor="middle" font-family="DejaVu Sans, sans-serif" font-size="12" font-weight="400" fill="#667085"><tspan x="1749" dy="0">invalidate</tspan><tspan x="1749" dy="17">retrieve again</tspan></text>
</g>
<g>
  <path d="M 285 715 L 325 715" fill="none" stroke="#069A8E" stroke-width="1.6" marker-end="url(#arrow-data)"/>
  
</g>
<g>
  <path d="M 495 715 L 535 715" fill="none" stroke="#069A8E" stroke-width="1.6" marker-end="url(#arrow-data)"/>
  
</g>
<g>
  <path d="M 700 715 L 745 715" fill="none" stroke="#069A8E" stroke-width="1.6" marker-end="url(#arrow-data)"/>
  <g>
  <rect x="695" y="684" width="54" height="22" rx="2" fill="#F7F6EF" fill-opacity="0.96"/>
  <text x="722" y="700" text-anchor="middle" font-family="DejaVu Sans, sans-serif" font-size="11" font-weight="500" fill="#667085">No</text>
</g>
</g>
<g>
  <path d="M 915 715 L 955 715" fill="none" stroke="#069A8E" stroke-width="1.6" marker-end="url(#arrow-data)"/>
  
</g>
<g>
  <path d="M 1125 715 L 1165 715" fill="none" stroke="#069A8E" stroke-width="1.6" marker-end="url(#arrow-data)"/>
  
</g>
<g>
  <path d="M 615 765 L 615 835" fill="none" stroke="#4B5563" stroke-width="1.6" marker-end="url(#arrow-ink)"/>
  <g>
  <rect x="613" y="792" width="54" height="22" rx="2" fill="#F7F6EF" fill-opacity="0.96"/>
  <text x="640" y="808" text-anchor="middle" font-family="DejaVu Sans, sans-serif" font-size="11" font-weight="500" fill="#667085">Yes</text>
</g>
</g>
<g>
  <path d="M 1250 765 L 1250 872 L 955 872" fill="none" stroke="#4B5563" stroke-width="1.6" marker-end="url(#arrow-ink)"/>
  <g>
  <rect x="1060.8" y="844" width="138.4" height="22" rx="2" fill="#F7F6EF" fill-opacity="0.96"/>
  <text x="1130" y="860" text-anchor="middle" font-family="DejaVu Sans, sans-serif" font-size="11" font-weight="500" fill="#667085">No content change</text>
</g>
</g>
<g>
  <path d="M 1335 715 L 1375 705" fill="none" stroke="#069A8E" stroke-width="1.6" marker-end="url(#arrow-data)"/>
  <g>
  <rect x="1321.8" y="677" width="66.4" height="22" rx="2" fill="#F7F6EF" fill-opacity="0.96"/>
  <text x="1355" y="693" text-anchor="middle" font-family="DejaVu Sans, sans-serif" font-size="11" font-weight="500" fill="#667085">Changed</text>
</g>
</g>
<g>
  <path d="M 1550 705 L 1585 705" fill="none" stroke="#069A8E" stroke-width="1.6" marker-end="url(#arrow-data)"/>
  
</g>
<g>
  <path d="M 1675 745 L 1675 800 L 1368 800 L 1368 835" fill="none" stroke="#069A8E" stroke-width="1.6" marker-end="url(#arrow-data)"/>
  
</g>
<g>
  <path d="M 1455 872 L 1490 872" fill="none" stroke="#8B69D4" stroke-width="1.6" stroke-dasharray="7 6" marker-end="url(#arrow-async)"/>
  
</g>
<g>
  <path d="M 1640 872 L 1675 872" fill="none" stroke="#8B69D4" stroke-width="1.6" stroke-dasharray="7 6" marker-end="url(#arrow-async)"/>
  
</g>
</svg>