<svg xmlns="http://www.w3.org/2000/svg" viewBox="0 0 1920 1080" width="1920" height="1080">
<title>Legal query flow</title>
<desc>VLegalAI · request routing, semantic cache safety, HybridRAG, legal freshness and durable response handling</desc>
<defs>
  <pattern id="minor-grid" width="12" height="12" patternUnits="userSpaceOnUse">
    <path d="M 12 0 L 0 0 0 12" fill="none" stroke="#E7E6DF" stroke-width="0.65"/>
  </pattern>
  <pattern id="major-grid" width="60" height="60" patternUnits="userSpaceOnUse">
    <rect width="60" height="60" fill="url(#minor-grid)"/>
    <path d="M 60 0 L 0 0 0 60" fill="none" stroke="#D8D7D0" stroke-width="0.9"/>
  </pattern>
  <marker id="arrow-ink" markerWidth="9" markerHeight="7" refX="8" refY="3.5" orient="auto"><path d="M0,0 L9,3.5 L0,7 Z" fill="#4B5563"/></marker>
  <marker id="arrow-data" markerWidth="9" markerHeight="7" refX="8" refY="3.5" orient="auto"><path d="M0,0 L9,3.5 L0,7 Z" fill="#069A8E"/></marker>
  <marker id="arrow-async" markerWidth="9" markerHeight="7" refX="8" refY="3.5" orient="auto"><path d="M0,0 L9,3.5 L0,7 Z" fill="#8B69D4"/></marker>
  <marker id="arrow-subtle" markerWidth="9" markerHeight="7" refX="8" refY="3.5" orient="auto"><path d="M0,0 L9,3.5 L0,7 Z" fill="#89919D"/></marker>
</defs>
<rect x="0" y="0" width="1920" height="1080" fill="#F7F6EF"/>
<text x="42" y="96" text-anchor="start" font-family="DejaVu Serif, serif" font-size="76" font-weight="400" fill="#242424">Legal query flow</text>
<text x="46" y="128" text-anchor="start" font-family="DejaVu Sans, sans-serif" font-size="14" font-weight="400" fill="#667085">VLegalAI · request routing, semantic cache safety, HybridRAG, legal freshness and durable response handling</text>
<rect x="70" y="150" width="1800" height="895" fill="url(#major-grid)" stroke="#D8D7D0" stroke-width="1"/>
<g>
  <rect x="90" y="195" width="390" height="770" fill="none" stroke="#6F8FF7" stroke-width="2" stroke-dasharray="9 7"/>
  <rect x="195.4" y="182" width="179.2" height="26" fill="#F7F6EF"/>
  <text x="285" y="201" text-anchor="middle" font-family="DejaVu Sans, sans-serif" font-size="18" font-weight="700" fill="#242424">Request &amp; Memory</text>
</g>
<g>
  <rect x="515" y="195" width="455" height="770" fill="none" stroke="#069A8E" stroke-width="2" stroke-dasharray="9 7"/>
  <rect x="647.3" y="182" width="190.39999999999998" height="26" fill="#F7F6EF"/>
  <text x="742.5" y="201" text-anchor="middle" font-family="DejaVu Sans, sans-serif" font-size="18" font-weight="700" fill="#242424">Cache &amp; Retrieval</text>
</g>
<g>
  <rect x="1005" y="195" width="465" height="770" fill="none" stroke="#E58A3A" stroke-width="2" stroke-dasharray="9 7"/>
  <rect x="1097.5" y="182" width="280" height="26" fill="#F7F6EF"/>
  <text x="1237.5" y="201" text-anchor="middle" font-family="DejaVu Sans, sans-serif" font-size="18" font-weight="700" fill="#242424">Verification &amp; Generation</text>
</g>
<g>
  <rect x="1505" y="195" width="325" height="770" fill="none" stroke="#8B69D4" stroke-width="2" stroke-dasharray="9 7"/>
  <rect x="1544.3" y="182" width="246.39999999999998" height="26" fill="#F7F6EF"/>
  <text x="1667.5" y="201" text-anchor="middle" font-family="DejaVu Sans, sans-serif" font-size="18" font-weight="700" fill="#242424">Persistence &amp; Response</text>
</g>
<g>
  <circle cx="130" cy="245" r="18" fill="#6F8FF7"/>
  <text x="130" y="251" text-anchor="middle" font-family="DejaVu Sans, sans-serif" font-size="15" font-weight="800" fill="#FFFFFF">1</text>
  <text x="158" y="251" text-anchor="start" font-family="DejaVu Sans, sans-serif" font-size="18" font-weight="700" fill="#242424">Resolve context</text>
</g>
<g>
  <rect x="125" y="310" width="320" height="75" rx="3" fill="#FFFFFF" stroke="#6F8FF7" stroke-width="1.6"/>
  <svg x="137" y="333.5" width="28" height="28" viewBox="0 0 256 256" preserveAspectRatio="xMidYMid meet" overflow="visible" aria-hidden="true">

<path fill="#009688" d="M128 0C57.33 0 0 57.33 0 128s57.33 128 128 128s128-57.33 128-128S198.67 0 128 0m-6.67 230.605v-80.288H76.699l64.128-124.922v80.288h42.966z"/>
</svg>
  <text x="299" y="338" text-anchor="middle" font-family="DejaVu Sans, sans-serif" font-size="16" font-weight="700" fill="#242424">POST /api/chat</text>
  <text x="299" y="362" text-anchor="middle" font-family="DejaVu Sans, sans-serif" font-size="12" font-weight="400" fill="#667085"><tspan x="299" dy="0">question · optional conversation_id</tspan></text>
</g>
<g>
  <polygon points="285,435 380,487.5 285,540 190,487.5" fill="#FFFFFF" stroke="#6F8FF7" stroke-width="1.6"/>
  <text x="285" y="481.5" text-anchor="middle" font-family="DejaVu Sans, sans-serif" font-size="15" font-weight="700" fill="#242424">Authenticated</text>
  <text x="285" y="503.5" text-anchor="middle" font-family="DejaVu Sans, sans-serif" font-size="11" font-weight="400" fill="#667085"><tspan x="285" dy="0">session?</tspan></text>
</g>
<g>
  <rect x="120" y="600" width="155" height="90" rx="3" fill="#FFFFFF" stroke="#6F8FF7" stroke-width="1.6"/>
  <svg x="132" y="631" width="28" height="28" viewBox="0 0 24 24" preserveAspectRatio="xMidYMid meet" overflow="visible" aria-hidden="true">

<g fill="none" stroke="#242424" stroke-linecap="round" stroke-linejoin="round" stroke-width="2"><rect width="18" height="18" x="3" y="3" rx="2"/><path d="M3 9h18"/></g>
</svg>
  <text x="211.5" y="628" text-anchor="middle" font-family="DejaVu Sans, sans-serif" font-size="16" font-weight="700" fill="#242424">Guest Context</text>
  <text x="211.5" y="652" text-anchor="middle" font-family="DejaVu Sans, sans-serif" font-size="12" font-weight="400" fill="#667085"><tspan x="211.5" dy="0">rate limits</tspan><tspan x="211.5" dy="17">browser history</tspan></text>
</g>
<g>
  <rect x="300" y="600" width="155" height="90" rx="3" fill="#FFFFFF" stroke="#6F8FF7" stroke-width="1.6"/>
  <svg x="312" y="631" width="28" height="28" viewBox="0 0 24 24" preserveAspectRatio="xMidYMid meet" overflow="visible" aria-hidden="true">

<g fill="none" stroke="#6F8FF7" stroke-linecap="round" stroke-linejoin="round" stroke-width="2"><path d="M3 12a9 9 0 1 0 9-9a9.75 9.75 0 0 0-6.74 2.74L3 8"/><path d="M3 3v5h5m4-1v5l4 2"/></g>
</svg>
  <text x="391.5" y="628" text-anchor="middle" font-family="DejaVu Sans, sans-serif" font-size="16" font-weight="700" fill="#242424">Owned Context</text>
  <text x="391.5" y="652" text-anchor="middle" font-family="DejaVu Sans, sans-serif" font-size="12" font-weight="400" fill="#667085"><tspan x="391.5" dy="0">summary + last 12</tspan><tspan x="391.5" dy="17">commit USER</tspan></text>
</g>
<g>
  <rect x="120" y="775" width="335" height="115" rx="3" fill="#F7F6EF" stroke="#6F8FF7" stroke-width="1.5" stroke-dasharray="5 4"/>
  <svg x="134" y="789" width="28" height="28" viewBox="0 0 24 24" preserveAspectRatio="xMidYMid meet" overflow="visible" aria-hidden="true">

<path fill="none" stroke="#6F8FF7" stroke-linecap="round" stroke-linejoin="round" stroke-width="2" d="M22 17a2 2 0 0 1-2 2H6.828a2 2 0 0 0-1.414.586l-2.202 2.202A.71.71 0 0 1 2 21.286V5a2 2 0 0 1 2-2h16a2 2 0 0 1 2 2zM7 11h10M7 15h6M7 7h8"/>
</svg>
  <text x="172" y="803" text-anchor="start" font-family="DejaVu Sans, sans-serif" font-size="14" font-weight="700" fill="#242424">New-user example</text>
  <text x="138" y="829" text-anchor="start" font-family="DejaVu Sans, sans-serif" font-size="11" font-weight="400" fill="#667085"><tspan x="138" dy="0">&quot;How much is pay for working on a public holiday?&quot;</tspan><tspan x="138" dy="16">No personal conversation exists yet; retrieval starts from legal corpus.</tspan></text>
</g>
<g>
  <circle cx="555" cy="245" r="18" fill="#069A8E"/>
  <text x="555" y="251" text-anchor="middle" font-family="DejaVu Sans, sans-serif" font-size="15" font-weight="800" fill="#FFFFFF">2</text>
  <text x="583" y="251" text-anchor="start" font-family="DejaVu Sans, sans-serif" font-size="18" font-weight="700" fill="#242424">Reuse safely or retrieve</text>
</g>
<g>
  <polygon points="642.5,315 730,367.5 642.5,420 555,367.5" fill="#FFFFFF" stroke="#069A8E" stroke-width="1.6"/>
  <text x="642.5" y="361.5" text-anchor="middle" font-family="DejaVu Sans, sans-serif" font-size="15" font-weight="700" fill="#242424">Public &amp;</text>
  <text x="642.5" y="383.5" text-anchor="middle" font-family="DejaVu Sans, sans-serif" font-size="11" font-weight="400" fill="#667085"><tspan x="642.5" dy="0">context-free?</tspan></text>
</g>
<g>
  <rect x="765" y="310" width="175" height="90" rx="3" fill="#FFFFFF" stroke="#069A8E" stroke-width="1.6"/>
  <svg x="777" y="341" width="28" height="28" viewBox="0 0 24 24" preserveAspectRatio="xMidYMid meet" overflow="visible" aria-hidden="true">

<g fill="none" stroke="#069A8E" stroke-linecap="round" stroke-linejoin="round" stroke-width="2"><path d="M3 12a9 9 0 0 1 9-9a9.75 9.75 0 0 1 6.74 2.74L21 8"/><path d="M21 3v5h-5m5 4a9 9 0 0 1-9 9a9.75 9.75 0 0 1-6.74-2.74L3 16"/><path d="M8 16H3v5"/></g>
</svg>
  <text x="866.5" y="338" text-anchor="middle" font-family="DejaVu Sans, sans-serif" font-size="16" font-weight="700" fill="#242424">Answer Cache</text>
  <text x="866.5" y="362" text-anchor="middle" font-family="DejaVu Sans, sans-serif" font-size="12" font-weight="400" fill="#667085"><tspan x="866.5" dy="0">exact query_hash</tspan><tspan x="866.5" dy="17">semantic ≥ 0.96</tspan></text>
</g>
<g>
  <polygon points="852.5,455 945,507.5 852.5,560 760,507.5" fill="#FFFFFF" stroke="#069A8E" stroke-width="1.6"/>
  <text x="852.5" y="501.5" text-anchor="middle" font-family="DejaVu Sans, sans-serif" font-size="15" font-weight="700" fill="#242424">Current &amp;</text>
  <text x="852.5" y="523.5" text-anchor="middle" font-family="DejaVu Sans, sans-serif" font-size="11" font-weight="400" fill="#667085"><tspan x="852.5" dy="0">fingerprint equal?</tspan></text>
</g>
<g>
  <rect x="550" y="610" width="175" height="90" rx="3" fill="#FFFFFF" stroke="#069A8E" stroke-width="1.6"/>
  <svg x="562" y="641" width="28" height="28" viewBox="0 0 256 264" preserveAspectRatio="xMidYMid meet" overflow="visible" aria-hidden="true">

<path d="M255.008 158.086c-1.535-4.649-5.556-7.887-10.756-8.664c-2.452-.366-5.26-.21-8.583.475c-5.792 1.195-10.089 1.65-13.225 1.738c11.837-19.985 21.462-42.775 27.003-64.228c8.96-34.689 4.172-50.492-1.423-57.64C233.217 10.847 211.614.683 185.552.372c-13.903-.17-26.108 2.575-32.475 4.549c-5.928-1.046-12.302-1.63-18.99-1.738c-12.537-.2-23.614 2.533-33.079 8.15c-5.24-1.772-13.65-4.27-23.362-5.864c-22.842-3.75-41.252-.828-54.718 8.685C6.622 25.672-.937 45.684.461 73.634c.444 8.874 5.408 35.874 13.224 61.48c4.492 14.718 9.282 26.94 14.237 36.33c7.027 13.315 14.546 21.156 22.987 23.972c4.731 1.576 13.327 2.68 22.368-4.85c1.146 1.388 2.675 2.767 4.704 4.048c2.577 1.625 5.728 2.953 8.875 3.74c11.341 2.835 21.964 2.126 31.027-1.848c.056 1.612.099 3.152.135 4.482c.06 2.157.12 4.272.199 6.25c.537 13.374 1.447 23.773 4.143 31.049c.148.4.347 1.01.557 1.657c1.345 4.118 3.594 11.012 9.316 16.411c5.925 5.593 13.092 7.308 19.656 7.308c3.292 0 6.433-.432 9.188-1.022c9.82-2.105 20.973-5.311 29.041-16.799c7.628-10.86 11.336-27.217 12.007-52.99q.13-1.094.244-2.088l.16-1.362l1.797.158l.463.031c10.002.456 22.232-1.665 29.743-5.154c5.935-2.754 24.954-12.795 20.476-26.351"/><path fill="#336791" d="M237.906 160.722c-29.74 6.135-31.785-3.934-31.785-3.934c31.4-46.593 44.527-105.736 33.2-120.211c-30.904-39.485-84.399-20.811-85.292-20.327l-.287.052c-5.876-1.22-12.451-1.946-19.842-2.067c-13.456-.22-23.664 3.528-31.41 9.402c0 0-95.43-39.314-90.991 49.444c.944 18.882 27.064 142.873 58.218 105.422c11.387-13.695 22.39-25.274 22.39-25.274c5.464 3.63 12.006 5.482 18.864 4.817l.533-.452c-.166 1.7-.09 3.363.213 5.332c-8.026 8.967-5.667 10.541-21.711 13.844c-16.235 3.346-6.698 9.302-.471 10.86c7.549 1.887 25.013 4.561 36.813-11.958l-.47 1.885c3.144 2.519 5.352 16.383 4.982 28.952c-.37 12.568-.617 21.197 1.86 27.937c2.479 6.74 4.948 21.905 26.04 17.386c17.623-3.777 26.756-13.564 28.027-29.89c.901-11.606 2.942-9.89 3.07-20.267l1.637-4.912c1.887-15.733.3-20.809 11.157-18.448l2.64.232c7.99.363 18.45-1.286 24.589-4.139c13.218-6.134 21.058-16.377 8.024-13.686z"/><path fill="#FFF" d="M108.076 81.525c-2.68-.373-5.107-.028-6.335.902c-.69.523-.904 1.129-.962 1.546c-.154 1.105.62 2.327 1.096 2.957c1.346 1.784 3.312 3.01 5.258 3.28q.423.059.842.058c3.245 0 6.196-2.527 6.456-4.392c.325-2.336-3.066-3.893-6.355-4.35m88.784.073c-.256-1.831-3.514-2.353-6.606-1.923c-3.088.43-6.082 1.824-5.832 3.659c.2 1.427 2.777 3.863 5.827 3.863q.387 0 .78-.054c2.036-.282 3.53-1.575 4.24-2.32c1.08-1.136 1.706-2.402 1.591-3.225"/><path fill="#FFF" d="M247.802 160.025c-1.134-3.429-4.784-4.532-10.848-3.28c-18.005 3.716-24.453 1.142-26.57-.417c13.995-21.32 25.508-47.092 31.719-71.137c2.942-11.39 4.567-21.968 4.7-30.59c.147-9.463-1.465-16.417-4.789-20.665c-13.402-17.125-33.072-26.311-56.882-26.563c-16.369-.184-30.199 4.005-32.88 5.183c-5.646-1.404-11.801-2.266-18.502-2.376c-12.288-.199-22.91 2.743-31.704 8.74c-3.82-1.422-13.692-4.811-25.765-6.756c-20.872-3.36-37.458-.814-49.294 7.571c-14.123 10.006-20.643 27.892-19.38 53.16c.425 8.501 5.269 34.653 12.913 59.698c10.062 32.964 21 51.625 32.508 55.464c1.347.449 2.9.763 4.613.763c4.198 0 9.345-1.892 14.7-8.33a530 530 0 0 1 20.261-22.926c4.524 2.428 9.494 3.784 14.577 3.92q.016.2.035.398a118 118 0 0 0-2.57 3.175c-3.522 4.471-4.255 5.402-15.592 7.736c-3.225.666-11.79 2.431-11.916 8.435c-.136 6.56 10.125 9.315 11.294 9.607c4.074 1.02 7.999 1.523 11.742 1.523c9.103 0 17.114-2.992 23.516-8.781c-.197 23.386.778 46.43 3.586 53.451c2.3 5.748 7.918 19.795 25.664 19.794c2.604 0 5.47-.303 8.623-.979c18.521-3.97 26.564-12.156 29.675-30.203c1.665-9.645 4.522-32.676 5.866-45.03c2.836.885 6.487 1.29 10.434 1.289c8.232 0 17.731-1.749 23.688-4.514c6.692-3.108 18.768-10.734 16.578-17.36m-44.106-83.48c-.061 3.647-.563 6.958-1.095 10.414c-.573 3.717-1.165 7.56-1.314 12.225c-.147 4.54.42 9.26.968 13.825c1.108 9.22 2.245 18.712-2.156 28.078a37 37 0 0 1-1.95-4.009c-.547-1.326-1.735-3.456-3.38-6.404c-6.399-11.476-21.384-38.35-13.713-49.316c2.285-3.264 8.084-6.62 22.64-4.813m-17.644-61.787c21.334.471 38.21 8.452 50.158 23.72c9.164 11.711-.927 64.998-30.14 110.969a171 171 0 0 0-.886-1.117l-.37-.462c7.549-12.467 6.073-24.802 4.759-35.738c-.54-4.488-1.05-8.727-.92-12.709c.134-4.22.692-7.84 1.232-11.34c.663-4.313 1.338-8.776 1.152-14.037c.139-.552.195-1.204.122-1.978c-.475-5.045-6.235-20.144-17.975-33.81c-6.422-7.475-15.787-15.84-28.574-21.482c5.5-1.14 13.021-2.203 21.442-2.016M66.674 175.778c-5.9 7.094-9.974 5.734-11.314 5.288c-8.73-2.912-18.86-21.364-27.791-50.624c-7.728-25.318-12.244-50.777-12.602-57.916c-1.128-22.578 4.345-38.313 16.268-46.769c19.404-13.76 51.306-5.524 64.125-1.347c-.184.182-.376.352-.558.537c-21.036 21.244-20.537 57.54-20.485 59.759c-.002.856.07 2.068.168 3.735c.362 6.105 1.036 17.467-.764 30.334c-1.672 11.957 2.014 23.66 10.111 32.109a36 36 0 0 0 2.617 2.468c-3.604 3.86-11.437 12.396-19.775 22.426m22.479-29.993c-6.526-6.81-9.49-16.282-8.133-25.99c1.9-13.592 1.199-25.43.822-31.79c-.053-.89-.1-1.67-.127-2.285c3.073-2.725 17.314-10.355 27.47-8.028c4.634 1.061 7.458 4.217 8.632 9.645c6.076 28.103.804 39.816-3.432 49.229c-.873 1.939-1.698 3.772-2.402 5.668l-.546 1.466c-1.382 3.706-2.668 7.152-3.465 10.424c-6.938-.02-13.687-2.984-18.819-8.34m1.065 37.9c-2.026-.506-3.848-1.385-4.917-2.114c.893-.42 2.482-.992 5.238-1.56c13.337-2.745 15.397-4.683 19.895-10.394c1.031-1.31 2.2-2.794 3.819-4.602l.002-.002c2.411-2.7 3.514-2.242 5.514-1.412c1.621.67 3.2 2.702 3.84 4.938c.303 1.056.643 3.06-.47 4.62c-9.396 13.156-23.088 12.987-32.921 10.526m69.799 64.952c-16.316 3.496-22.093-4.829-25.9-14.346c-2.457-6.144-3.665-33.85-2.808-64.447c.011-.407-.047-.8-.159-1.17a15.4 15.4 0 0 0-.456-2.162c-1.274-4.452-4.379-8.176-8.104-9.72c-1.48-.613-4.196-1.738-7.46-.903c.696-2.868 1.903-6.107 3.212-9.614l.549-1.475c.618-1.663 1.394-3.386 2.214-5.21c4.433-9.848 10.504-23.337 3.915-53.81c-2.468-11.414-10.71-16.988-23.204-15.693c-7.49.775-14.343 3.797-17.761 5.53c-.735.372-1.407.732-2.035 1.082c.954-11.5 4.558-32.992 18.04-46.59c8.489-8.56 19.794-12.788 33.568-12.56c27.14.444 44.544 14.372 54.366 25.979c8.464 10.001 13.047 20.076 14.876 25.51c-13.755-1.399-23.11 1.316-27.852 8.096c-10.317 14.748 5.644 43.372 13.315 57.129c1.407 2.521 2.621 4.7 3.003 5.626c2.498 6.054 5.732 10.096 8.093 13.046c.724.904 1.426 1.781 1.96 2.547c-4.166 1.201-11.649 3.976-10.967 17.847c-.55 6.96-4.461 39.546-6.448 51.059c-2.623 15.21-8.22 20.875-23.957 24.25m68.104-77.936c-4.26 1.977-11.389 3.46-18.161 3.779c-7.48.35-11.288-.838-12.184-1.569c-.42-8.644 2.797-9.547 6.202-10.503c.535-.15 1.057-.297 1.561-.473q.469.383 1.032.756c6.012 3.968 16.735 4.396 31.874 1.271l.166-.033c-2.042 1.909-5.536 4.471-10.49 6.772"/>
</svg>
  <text x="651.5" y="638" text-anchor="middle" font-family="DejaVu Sans, sans-serif" font-size="16" font-weight="700" fill="#242424">Retrieval Service</text>
  <text x="651.5" y="662" text-anchor="middle" font-family="DejaVu Sans, sans-serif" font-size="12" font-weight="400" fill="#667085"><tspan x="651.5" dy="0">PostgreSQL dense + BM25</tspan><tspan x="651.5" dy="17">RRF</tspan></text>
</g>
<g>
  <rect x="765" y="610" width="175" height="90" rx="3" fill="#FFFFFF" stroke="#8B69D4" stroke-width="1.6"/>
  <svg x="777" y="641" width="28" height="28" viewBox="0 0 512 170" preserveAspectRatio="xMidYMid meet" overflow="visible" aria-hidden="true">

<path d="M95.217 35.541h.235c-27.905 0-46.665 16.074-46.665 47.703v19.278a26 26 0 0 1 9.097-2.12a17.7 17.7 0 0 1 9.145 2.12V83.244c0-20.364 11.266-31.11 28.282-31.11s28.282 10.746 28.282 31.11v49.305h18.242V83.244c0-31.63-18.855-47.703-46.618-47.703m56.705 49.824h-.188c0-28.942 20.881-49.824 50.907-49.824c30.027 0 50.39 21.023 50.39 49.824v6.457h-82.018c2.133 15.633 15.87 27.036 31.628 26.256c12.35 0 20.93-3.724 26.303-11.785h19.986c-7.495 17.677-24.653 28.942-46.619 28.942c-29.507 0-50.389-20.881-50.389-49.87m82.537-9.428c-3.446-14.478-16.77-24.406-31.629-23.568c-14.729-.81-27.877 9.166-31.063 23.568zm28.612 9.428c0-28.336 20.396-49.144 49.65-49.808l1.446-.016a49.02 49.02 0 0 1 50.955 49.824c0 28.989-20.929 49.87-50.955 49.87s-51.096-20.881-51.096-49.87m83.055 0a30.922 30.922 0 0 0-32.666-32.666a31.487 31.487 0 0 0-32.713 32.666a30.97 30.97 0 0 0 32.713 32.713c19.845.565 32.666-13.387 32.666-32.713m159.463-43.413v90.03c0 23.57-9.144 35.4-32.713 35.4h-3.77v-15.507h2.168c11.784 0 16.073-5.374 16.073-18.855V41.952zm-61.136-18.384a22.39 22.39 0 0 1 15.555 21.448v58.072h10.7v16.074h-10.7v22.531h-18.242v-22.531h-46.1a22.72 22.72 0 0 1-20.928-11.784a19.75 19.75 0 0 1 2.687-21.448l41.197-54.16a22.63 22.63 0 0 1 25.831-8.202m-5.986 17.3h-1.603a4.71 4.71 0 0 0-3.77 2.168L392.46 96.112a3.9 3.9 0 0 0-1.084 2.687a4.714 4.714 0 0 0 4.714 4.713h45.58V45.157c0-3.205-2.12-4.29-3.204-4.29"/><path fill="#018BFF" d="M496.445 0c-8.591 0-15.555 6.964-15.555 15.555s6.964 15.555 15.555 15.555S512 24.146 512 15.555S505.036 0 496.445 0M56.847 109.499a12.77 12.77 0 0 0-9.144 3.205l-17.158-11.219a11.4 11.4 0 0 0 .566-4.289a15.555 15.555 0 1 0-15.555 15.508a12.5 12.5 0 0 0 9.097-3.205l17.158 11.784c-.425 1.388-.6 2.84-.519 4.29c-.086 1.449.09 2.902.519 4.289l-17.158 11.831a14.47 14.47 0 0 0-9.097-3.252a15.555 15.555 0 1 0 15.555 15.555c.091-1.453-.1-2.91-.566-4.29l17.158-11.784a14.42 14.42 0 0 0 9.144 3.205a15.51 15.51 0 0 0 15.509-15.555c.054-8.68-6.831-15.817-15.509-16.073"/>
</svg>
  <text x="866.5" y="638" text-anchor="middle" font-family="DejaVu Sans, sans-serif" font-size="16" font-weight="700" fill="#242424">Graph Expansion</text>
  <text x="866.5" y="662" text-anchor="middle" font-family="DejaVu Sans, sans-serif" font-size="12" font-weight="400" fill="#667085"><tspan x="866.5" dy="0">Neo4j ancestors</tspan><tspan x="866.5" dy="17">typed relations</tspan></text>
</g>
<g>
  <rect x="630" y="800" width="230" height="75" rx="3" fill="#FFFFFF" stroke="#069A8E" stroke-width="1.6"/>
  <svg x="642" y="823.5" width="28" height="28" viewBox="0 0 24 24" preserveAspectRatio="xMidYMid meet" overflow="visible" aria-hidden="true">

<g fill="none" stroke="#242424" stroke-linecap="round" stroke-linejoin="round" stroke-width="2"><path d="M15 2h-4a2 2 0 0 0-2 2v11a2 2 0 0 0 2 2h8a2 2 0 0 0 2-2V8"/><path d="M16.706 2.706A2.4 2.4 0 0 0 15 2v5a1 1 0 0 0 1 1h5a2.4 2.4 0 0 0-.706-1.706zM5 7a2 2 0 0 0-2 2v11a2 2 0 0 0 2 2h8a2 2 0 0 0 1.732-1"/></g>
</svg>
  <text x="759" y="828" text-anchor="middle" font-family="DejaVu Sans, sans-serif" font-size="16" font-weight="700" fill="#242424">Ranked Legal Chunks</text>
  <text x="759" y="852" text-anchor="middle" font-family="DejaVu Sans, sans-serif" font-size="12" font-weight="400" fill="#667085"><tspan x="759" dy="0">merged by chunk_id · sources S1..Sn</tspan></text>
</g>
<g>
  <circle cx="1045" cy="245" r="18" fill="#E58A3A"/>
  <text x="1045" y="251" text-anchor="middle" font-family="DejaVu Sans, sans-serif" font-size="15" font-weight="800" fill="#FFFFFF">3</text>
  <text x="1073" y="251" text-anchor="start" font-family="DejaVu Sans, sans-serif" font-size="18" font-weight="700" fill="#242424">Verify before answering</text>
</g>
<g>
  <rect x="1040" y="315" width="190" height="90" rx="3" fill="#FFFFFF" stroke="#E58A3A" stroke-width="1.6"/>
  <svg x="1052" y="346" width="28" height="28" viewBox="0 0 24 24" preserveAspectRatio="xMidYMid meet" overflow="visible" aria-hidden="true">

<g fill="none" stroke="#4A9B73" stroke-linecap="round" stroke-linejoin="round" stroke-width="2"><path d="M20 13c0 5-3.5 7.5-7.66 8.95a1 1 0 0 1-.67-.01C7.5 20.5 4 18 4 13V6a1 1 0 0 1 1-1c2 0 4.5-1.2 6.24-2.72a1.17 1.17 0 0 1 1.52 0C14.51 3.81 17 5 19 5a1 1 0 0 1 1 1z"/><path d="m9 12l2 2l4-4"/></g>
</svg>
  <text x="1149" y="343" text-anchor="middle" font-family="DejaVu Sans, sans-serif" font-size="16" font-weight="700" fill="#242424">Freshness Service</text>
  <text x="1149" y="367" text-anchor="middle" font-family="DejaVu Sans, sans-serif" font-size="12" font-weight="400" fill="#667085"><tspan x="1149" dy="0">verified_at TTL</tspan><tspan x="1149" dy="17">official-domain evidence</tspan></text>
</g>
<g>
  <polygon points="1350,310 1440,362.5 1350,415 1260,362.5" fill="#FFFFFF" stroke="#E58A3A" stroke-width="1.6"/>
  <text x="1350" y="356.5" text-anchor="middle" font-family="DejaVu Sans, sans-serif" font-size="15" font-weight="700" fill="#242424">Index</text>
  <text x="1350" y="378.5" text-anchor="middle" font-family="DejaVu Sans, sans-serif" font-size="11" font-weight="400" fill="#667085"><tspan x="1350" dy="0">updated?</tspan></text>
</g>
<g>
  <rect x="1040" y="480" width="190" height="90" rx="3" fill="#FFFFFF" stroke="#E58A3A" stroke-width="1.6"/>
  <svg x="1052" y="511" width="28" height="28" viewBox="0 0 24 24" preserveAspectRatio="xMidYMid meet" overflow="visible" aria-hidden="true">

<path fill="none" stroke="#069A8E" stroke-linecap="round" stroke-linejoin="round" stroke-width="2" d="M2 5h20M6 12h12m-9 7h6"/>
</svg>
  <text x="1149" y="508" text-anchor="middle" font-family="DejaVu Sans, sans-serif" font-size="16" font-weight="700" fill="#242424">Filter Status</text>
  <text x="1149" y="532" text-anchor="middle" font-family="DejaVu Sans, sans-serif" font-size="12" font-weight="400" fill="#667085"><tspan x="1149" dy="0">remove expired</tspan><tspan x="1149" dy="17">replaced · unknown</tspan></text>
</g>
<g>
  <rect x="1260" y="480" width="180" height="90" rx="3" fill="#FFFFFF" stroke="#E58A3A" stroke-width="1.6"/>
  <svg x="1272" y="511" width="28" height="28" viewBox="0 0 24 24" preserveAspectRatio="xMidYMid meet" overflow="visible" aria-hidden="true">

<g fill="none" stroke="#069A8E" stroke-linecap="round" stroke-linejoin="round" stroke-width="2"><path d="M3 12a9 9 0 0 1 9-9a9.75 9.75 0 0 1 6.74 2.74L21 8"/><path d="M21 3v5h-5m5 4a9 9 0 0 1-9 9a9.75 9.75 0 0 1-6.74-2.74L3 16"/><path d="M8 16H3v5"/></g>
</svg>
  <text x="1364" y="508" text-anchor="middle" font-family="DejaVu Sans, sans-serif" font-size="16" font-weight="700" fill="#242424">Re-retrieve</text>
  <text x="1364" y="532" text-anchor="middle" font-family="DejaVu Sans, sans-serif" font-size="12" font-weight="400" fill="#667085"><tspan x="1364" dy="0">invalidate handle</tspan><tspan x="1364" dy="17">rank again</tspan></text>
</g>
<g>
  <rect x="1040" y="645" width="400" height="95" rx="3" fill="#FFFFFF" stroke="#E58A3A" stroke-width="1.6"/>
  <svg x="1052" y="678.5" width="28" height="28" viewBox="0 0 24 24" preserveAspectRatio="xMidYMid meet" overflow="visible" aria-hidden="true">

<g fill="none" stroke="#242424" stroke-linecap="round" stroke-linejoin="round" stroke-width="2"><path d="M6 22a2 2 0 0 1-2-2V4a2 2 0 0 1 2-2h8a2.4 2.4 0 0 1 1.704.706l3.588 3.588A2.4 2.4 0 0 1 20 8v12a2 2 0 0 1-2 2z"/><path d="M14 2v5a1 1 0 0 0 1 1h5M10 9H8m8 4H8m8 4H8"/></g>
</svg>
  <text x="1254" y="673" text-anchor="middle" font-family="DejaVu Sans, sans-serif" font-size="16" font-weight="700" fill="#242424">Grounded Prompt</text>
  <text x="1254" y="697" text-anchor="middle" font-family="DejaVu Sans, sans-serif" font-size="12" font-weight="400" fill="#667085"><tspan x="1254" dy="0">summary · recent history · verification · sources</tspan><tspan x="1254" dy="17">current question · optional cache draft</tspan></text>
</g>
<g>
  <rect x="1100" y="815" width="280" height="75" rx="3" fill="#FFFFFF" stroke="#E58A3A" stroke-width="1.6"/>
  <svg x="1112" y="838.5" width="28" height="28" viewBox="0 0 24 24" preserveAspectRatio="xMidYMid meet" overflow="visible" aria-hidden="true">

<path fill="#FF6A00" d="M3.996 4.517h5.291L8.01 6.324L4.153 7.506a1.67 1.67 0 0 0-1.165 1.601v5.786a1.67 1.67 0 0 0 1.165 1.6l3.857 1.183l1.277 1.807H3.996A3.996 3.996 0 0 1 0 15.487V8.513a3.996 3.996 0 0 1 3.996-3.996m16.008 0h-5.291l1.277 1.807l3.857 1.182c.715.227 1.17.889 1.165 1.601v5.786a1.67 1.67 0 0 1-1.165 1.6l-3.857 1.183l-1.277 1.807h5.291A3.996 3.996 0 0 0 24 15.487V8.513a3.996 3.996 0 0 0-3.996-3.996m-4.007 8.345H8.002v-1.804h7.995Z"/>
</svg>
  <text x="1254" y="843" text-anchor="middle" font-family="DejaVu Sans, sans-serif" font-size="16" font-weight="700" fill="#242424">Local Qwen3-14B</text>
  <text x="1254" y="867" text-anchor="middle" font-family="DejaVu Sans, sans-serif" font-size="12" font-weight="400" fill="#667085"><tspan x="1254" dy="0">answer with citations [S1], [S2], ...</tspan></text>
</g>
<g>
  <circle cx="1545" cy="245" r="18" fill="#8B69D4"/>
  <text x="1545" y="251" text-anchor="middle" font-family="DejaVu Sans, sans-serif" font-size="15" font-weight="800" fill="#FFFFFF">4</text>
  <text x="1573" y="251" text-anchor="start" font-family="DejaVu Sans, sans-serif" font-size="18" font-weight="700" fill="#242424">Persist and return</text>
</g>
<g>
  <polygon points="1667.5,320 1760,372.5 1667.5,425 1575,372.5" fill="#FFFFFF" stroke="#8B69D4" stroke-width="1.6"/>
  <text x="1667.5" y="366.5" text-anchor="middle" font-family="DejaVu Sans, sans-serif" font-size="15" font-weight="700" fill="#242424">Authenticated</text>
  <text x="1667.5" y="388.5" text-anchor="middle" font-family="DejaVu Sans, sans-serif" font-size="11" font-weight="400" fill="#667085"><tspan x="1667.5" dy="0">result?</tspan></text>
</g>
<g>
  <rect x="1540" y="500" width="255" height="90" rx="3" fill="#FFFFFF" stroke="#8B69D4" stroke-width="1.6"/>
  <svg x="1552" y="531" width="28" height="28" viewBox="0 0 256 264" preserveAspectRatio="xMidYMid meet" overflow="visible" aria-hidden="true">

<path d="M255.008 158.086c-1.535-4.649-5.556-7.887-10.756-8.664c-2.452-.366-5.26-.21-8.583.475c-5.792 1.195-10.089 1.65-13.225 1.738c11.837-19.985 21.462-42.775 27.003-64.228c8.96-34.689 4.172-50.492-1.423-57.64C233.217 10.847 211.614.683 185.552.372c-13.903-.17-26.108 2.575-32.475 4.549c-5.928-1.046-12.302-1.63-18.99-1.738c-12.537-.2-23.614 2.533-33.079 8.15c-5.24-1.772-13.65-4.27-23.362-5.864c-22.842-3.75-41.252-.828-54.718 8.685C6.622 25.672-.937 45.684.461 73.634c.444 8.874 5.408 35.874 13.224 61.48c4.492 14.718 9.282 26.94 14.237 36.33c7.027 13.315 14.546 21.156 22.987 23.972c4.731 1.576 13.327 2.68 22.368-4.85c1.146 1.388 2.675 2.767 4.704 4.048c2.577 1.625 5.728 2.953 8.875 3.74c11.341 2.835 21.964 2.126 31.027-1.848c.056 1.612.099 3.152.135 4.482c.06 2.157.12 4.272.199 6.25c.537 13.374 1.447 23.773 4.143 31.049c.148.4.347 1.01.557 1.657c1.345 4.118 3.594 11.012 9.316 16.411c5.925 5.593 13.092 7.308 19.656 7.308c3.292 0 6.433-.432 9.188-1.022c9.82-2.105 20.973-5.311 29.041-16.799c7.628-10.86 11.336-27.217 12.007-52.99q.13-1.094.244-2.088l.16-1.362l1.797.158l.463.031c10.002.456 22.232-1.665 29.743-5.154c5.935-2.754 24.954-12.795 20.476-26.351"/><path fill="#336791" d="M237.906 160.722c-29.74 6.135-31.785-3.934-31.785-3.934c31.4-46.593 44.527-105.736 33.2-120.211c-30.904-39.485-84.399-20.811-85.292-20.327l-.287.052c-5.876-1.22-12.451-1.946-19.842-2.067c-13.456-.22-23.664 3.528-31.41 9.402c0 0-95.43-39.314-90.991 49.444c.944 18.882 27.064 142.873 58.218 105.422c11.387-13.695 22.39-25.274 22.39-25.274c5.464 3.63 12.006 5.482 18.864 4.817l.533-.452c-.166 1.7-.09 3.363.213 5.332c-8.026 8.967-5.667 10.541-21.711 13.844c-16.235 3.346-6.698 9.302-.471 10.86c7.549 1.887 25.013 4.561 36.813-11.958l-.47 1.885c3.144 2.519 5.352 16.383 4.982 28.952c-.37 12.568-.617 21.197 1.86 27.937c2.479 6.74 4.948 21.905 26.04 17.386c17.623-3.777 26.756-13.564 28.027-29.89c.901-11.606 2.942-9.89 3.07-20.267l1.637-4.912c1.887-15.733.3-20.809 11.157-18.448l2.64.232c7.99.363 18.45-1.286 24.589-4.139c13.218-6.134 21.058-16.377 8.024-13.686z"/><path fill="#FFF" d="M108.076 81.525c-2.68-.373-5.107-.028-6.335.902c-.69.523-.904 1.129-.962 1.546c-.154 1.105.62 2.327 1.096 2.957c1.346 1.784 3.312 3.01 5.258 3.28q.423.059.842.058c3.245 0 6.196-2.527 6.456-4.392c.325-2.336-3.066-3.893-6.355-4.35m88.784.073c-.256-1.831-3.514-2.353-6.606-1.923c-3.088.43-6.082 1.824-5.832 3.659c.2 1.427 2.777 3.863 5.827 3.863q.387 0 .78-.054c2.036-.282 3.53-1.575 4.24-2.32c1.08-1.136 1.706-2.402 1.591-3.225"/><path fill="#FFF" d="M247.802 160.025c-1.134-3.429-4.784-4.532-10.848-3.28c-18.005 3.716-24.453 1.142-26.57-.417c13.995-21.32 25.508-47.092 31.719-71.137c2.942-11.39 4.567-21.968 4.7-30.59c.147-9.463-1.465-16.417-4.789-20.665c-13.402-17.125-33.072-26.311-56.882-26.563c-16.369-.184-30.199 4.005-32.88 5.183c-5.646-1.404-11.801-2.266-18.502-2.376c-12.288-.199-22.91 2.743-31.704 8.74c-3.82-1.422-13.692-4.811-25.765-6.756c-20.872-3.36-37.458-.814-49.294 7.571c-14.123 10.006-20.643 27.892-19.38 53.16c.425 8.501 5.269 34.653 12.913 59.698c10.062 32.964 21 51.625 32.508 55.464c1.347.449 2.9.763 4.613.763c4.198 0 9.345-1.892 14.7-8.33a530 530 0 0 1 20.261-22.926c4.524 2.428 9.494 3.784 14.577 3.92q.016.2.035.398a118 118 0 0 0-2.57 3.175c-3.522 4.471-4.255 5.402-15.592 7.736c-3.225.666-11.79 2.431-11.916 8.435c-.136 6.56 10.125 9.315 11.294 9.607c4.074 1.02 7.999 1.523 11.742 1.523c9.103 0 17.114-2.992 23.516-8.781c-.197 23.386.778 46.43 3.586 53.451c2.3 5.748 7.918 19.795 25.664 19.794c2.604 0 5.47-.303 8.623-.979c18.521-3.97 26.564-12.156 29.675-30.203c1.665-9.645 4.522-32.676 5.866-45.03c2.836.885 6.487 1.29 10.434 1.289c8.232 0 17.731-1.749 23.688-4.514c6.692-3.108 18.768-10.734 16.578-17.36m-44.106-83.48c-.061 3.647-.563 6.958-1.095 10.414c-.573 3.717-1.165 7.56-1.314 12.225c-.147 4.54.42 9.26.968 13.825c1.108 9.22 2.245 18.712-2.156 28.078a37 37 0 0 1-1.95-4.009c-.547-1.326-1.735-3.456-3.38-6.404c-6.399-11.476-21.384-38.35-13.713-49.316c2.285-3.264 8.084-6.62 22.64-4.813m-17.644-61.787c21.334.471 38.21 8.452 50.158 23.72c9.164 11.711-.927 64.998-30.14 110.969a171 171 0 0 0-.886-1.117l-.37-.462c7.549-12.467 6.073-24.802 4.759-35.738c-.54-4.488-1.05-8.727-.92-12.709c.134-4.22.692-7.84 1.232-11.34c.663-4.313 1.338-8.776 1.152-14.037c.139-.552.195-1.204.122-1.978c-.475-5.045-6.235-20.144-17.975-33.81c-6.422-7.475-15.787-15.84-28.574-21.482c5.5-1.14 13.021-2.203 21.442-2.016M66.674 175.778c-5.9 7.094-9.974 5.734-11.314 5.288c-8.73-2.912-18.86-21.364-27.791-50.624c-7.728-25.318-12.244-50.777-12.602-57.916c-1.128-22.578 4.345-38.313 16.268-46.769c19.404-13.76 51.306-5.524 64.125-1.347c-.184.182-.376.352-.558.537c-21.036 21.244-20.537 57.54-20.485 59.759c-.002.856.07 2.068.168 3.735c.362 6.105 1.036 17.467-.764 30.334c-1.672 11.957 2.014 23.66 10.111 32.109a36 36 0 0 0 2.617 2.468c-3.604 3.86-11.437 12.396-19.775 22.426m22.479-29.993c-6.526-6.81-9.49-16.282-8.133-25.99c1.9-13.592 1.199-25.43.822-31.79c-.053-.89-.1-1.67-.127-2.285c3.073-2.725 17.314-10.355 27.47-8.028c4.634 1.061 7.458 4.217 8.632 9.645c6.076 28.103.804 39.816-3.432 49.229c-.873 1.939-1.698 3.772-2.402 5.668l-.546 1.466c-1.382 3.706-2.668 7.152-3.465 10.424c-6.938-.02-13.687-2.984-18.819-8.34m1.065 37.9c-2.026-.506-3.848-1.385-4.917-2.114c.893-.42 2.482-.992 5.238-1.56c13.337-2.745 15.397-4.683 19.895-10.394c1.031-1.31 2.2-2.794 3.819-4.602l.002-.002c2.411-2.7 3.514-2.242 5.514-1.412c1.621.67 3.2 2.702 3.84 4.938c.303 1.056.643 3.06-.47 4.62c-9.396 13.156-23.088 12.987-32.921 10.526m69.799 64.952c-16.316 3.496-22.093-4.829-25.9-14.346c-2.457-6.144-3.665-33.85-2.808-64.447c.011-.407-.047-.8-.159-1.17a15.4 15.4 0 0 0-.456-2.162c-1.274-4.452-4.379-8.176-8.104-9.72c-1.48-.613-4.196-1.738-7.46-.903c.696-2.868 1.903-6.107 3.212-9.614l.549-1.475c.618-1.663 1.394-3.386 2.214-5.21c4.433-9.848 10.504-23.337 3.915-53.81c-2.468-11.414-10.71-16.988-23.204-15.693c-7.49.775-14.343 3.797-17.761 5.53c-.735.372-1.407.732-2.035 1.082c.954-11.5 4.558-32.992 18.04-46.59c8.489-8.56 19.794-12.788 33.568-12.56c27.14.444 44.544 14.372 54.366 25.979c8.464 10.001 13.047 20.076 14.876 25.51c-13.755-1.399-23.11 1.316-27.852 8.096c-10.317 14.748 5.644 43.372 13.315 57.129c1.407 2.521 2.621 4.7 3.003 5.626c2.498 6.054 5.732 10.096 8.093 13.046c.724.904 1.426 1.781 1.96 2.547c-4.166 1.201-11.649 3.976-10.967 17.847c-.55 6.96-4.461 39.546-6.448 51.059c-2.623 15.21-8.22 20.875-23.957 24.25m68.104-77.936c-4.26 1.977-11.389 3.46-18.161 3.779c-7.48.35-11.288-.838-12.184-1.569c-.42-8.644 2.797-9.547 6.202-10.503c.535-.15 1.057-.297 1.561-.473q.469.383 1.032.756c6.012 3.968 16.735 4.396 31.874 1.271l.166-.033c-2.042 1.909-5.536 4.471-10.49 6.772"/>
</svg>
  <text x="1681.5" y="528" text-anchor="middle" font-family="DejaVu Sans, sans-serif" font-size="16" font-weight="700" fill="#242424">Durable Chat Write</text>
  <text x="1681.5" y="552" text-anchor="middle" font-family="DejaVu Sans, sans-serif" font-size="12" font-weight="400" fill="#667085"><tspan x="1681.5" dy="0">encrypted ASSISTANT message</tspan><tspan x="1681.5" dy="17">sources + verification</tspan></text>
</g>
<g>
  <rect x="1540" y="640" width="255" height="90" rx="3" fill="#FFFFFF" stroke="#8B69D4" stroke-width="1.6"/>
  <svg x="1552" y="671" width="28" height="28" viewBox="0 0 24 24" preserveAspectRatio="xMidYMid meet" overflow="visible" aria-hidden="true">

<g fill="none" stroke="#8B69D4" stroke-linecap="round" stroke-linejoin="round" stroke-width="2"><path d="M12 5a3 3 0 1 0-5.997.125a4 4 0 0 0-2.526 5.77a4 4 0 0 0 .556 6.588A4 4 0 1 0 12 18Z"/><path d="M9 13a4.5 4.5 0 0 0 3-4M6.003 5.125A3 3 0 0 0 6.401 6.5m-2.924 4.396a4 4 0 0 1 .585-.396M6 18a4 4 0 0 1-1.967-.516M12 13h4m-4 5h6a2 2 0 0 1 2 2v1M12 8h8m-4 0V5a2 2 0 0 1 2-2"/><circle cx="16" cy="13" r=".5"/><circle cx="18" cy="3" r=".5"/><circle cx="20" cy="21" r=".5"/><circle cx="20" cy="8" r=".5"/></g>
</svg>
  <text x="1681.5" y="668" text-anchor="middle" font-family="DejaVu Sans, sans-serif" font-size="16" font-weight="700" fill="#242424">Rolling Memory</text>
  <text x="1681.5" y="692" text-anchor="middle" font-family="DejaVu Sans, sans-serif" font-size="12" font-weight="400" fill="#667085"><tspan x="1681.5" dy="0">encrypted summary</tspan><tspan x="1681.5" dy="17">BGE-M3 vector</tspan></text>
</g>
<g>
  <rect x="1540" y="780" width="255" height="90" rx="3" fill="#FFFFFF" stroke="#8B69D4" stroke-width="1.6"/>
  <svg x="1552" y="811" width="28" height="28" viewBox="0 0 24 24" preserveAspectRatio="xMidYMid meet" overflow="visible" aria-hidden="true">

<g fill="none" stroke="#4A9B73" stroke-linecap="round" stroke-linejoin="round" stroke-width="2"><circle cx="12" cy="12" r="10"/><path d="m9 12l2 2l4-4"/></g>
</svg>
  <text x="1681.5" y="808" text-anchor="middle" font-family="DejaVu Sans, sans-serif" font-size="16" font-weight="700" fill="#242424">ChatResponse</text>
  <text x="1681.5" y="832" text-anchor="middle" font-family="DejaVu Sans, sans-serif" font-size="12" font-weight="400" fill="#667085"><tspan x="1681.5" dy="0">temporary for guest</tspan><tspan x="1681.5" dy="17">durable for authenticated</tspan></text>
</g>
<g>
  <rect x="1518" y="905" width="300" height="45" rx="3" fill="#F7F6EF" stroke="#8B69D4" stroke-width="1.5" stroke-dasharray="5 4"/>
  <svg x="1532" y="919" width="28" height="28" viewBox="0 0 24 24" preserveAspectRatio="xMidYMid meet" overflow="visible" aria-hidden="true">

<g fill="none" stroke="#069A8E" stroke-linecap="round" stroke-linejoin="round" stroke-width="2"><path d="M3 12a9 9 0 0 1 9-9a9.75 9.75 0 0 1 6.74 2.74L21 8"/><path d="M21 3v5h-5m5 4a9 9 0 0 1-9 9a9.75 9.75 0 0 1-6.74-2.74L3 16"/><path d="M8 16H3v5"/></g>
</svg>
  <text x="1570" y="933" text-anchor="start" font-family="DejaVu Sans, sans-serif" font-size="14" font-weight="700" fill="#242424">Eligible current answers may refresh the semantic cache.</text>
  <text x="1536" y="959" text-anchor="start" font-family="DejaVu Sans, sans-serif" font-size="11" font-weight="400" fill="#667085"></text>
</g>
<g>
  <path d="M 285 385 L 285 435" fill="none" stroke="#4B5563" stroke-width="1.6" marker-end="url(#arrow-ink)"/>
  
</g>
<g>
  <path d="M 240 540 L 198 600" fill="none" stroke="#4B5563" stroke-width="1.6" marker-end="url(#arrow-ink)"/>
  <g>
  <rect x="178" y="552" width="54" height="22" rx="2" fill="#F7F6EF" fill-opacity="0.96"/>
  <text x="205" y="568" text-anchor="middle" font-family="DejaVu Sans, sans-serif" font-size="11" font-weight="500" fill="#667085">No</text>
</g>
</g>
<g>
  <path d="M 330 540 L 378 600" fill="none" stroke="#069A8E" stroke-width="1.6" marker-end="url(#arrow-data)"/>
  <g>
  <rect x="333" y="552" width="54" height="22" rx="2" fill="#F7F6EF" fill-opacity="0.96"/>
  <text x="360" y="568" text-anchor="middle" font-family="DejaVu Sans, sans-serif" font-size="11" font-weight="500" fill="#667085">Yes</text>
</g>
</g>
<g>
  <path d="M 275 645 L 490 645 L 490 367 L 555 367" fill="none" stroke="#069A8E" stroke-width="1.6" marker-end="url(#arrow-data)"/>
  
</g>
<g>
  <path d="M 455 645 L 490 645 L 490 367 L 555 367" fill="none" stroke="#069A8E" stroke-width="1.6" marker-end="url(#arrow-data)"/>
  
</g>
<g>
  <path d="M 730 367 L 765 355" fill="none" stroke="#069A8E" stroke-width="1.6" marker-end="url(#arrow-data)"/>
  <g>
  <rect x="721" y="327" width="54" height="22" rx="2" fill="#F7F6EF" fill-opacity="0.96"/>
  <text x="748" y="343" text-anchor="middle" font-family="DejaVu Sans, sans-serif" font-size="11" font-weight="500" fill="#667085">Yes</text>
</g>
</g>
<g>
  <path d="M 642 420 L 642 610" fill="none" stroke="#4B5563" stroke-width="1.6" marker-end="url(#arrow-ink)"/>
  <g>
  <rect x="633" y="502" width="54" height="22" rx="2" fill="#F7F6EF" fill-opacity="0.96"/>
  <text x="660" y="518" text-anchor="middle" font-family="DejaVu Sans, sans-serif" font-size="11" font-weight="500" fill="#667085">No</text>
</g>
</g>
<g>
  <path d="M 852 400 L 852 455" fill="none" stroke="#4B5563" stroke-width="1.6" marker-end="url(#arrow-ink)"/>
  
</g>
<g>
  <path d="M 760 507 L 735 507 L 735 655 L 725 655" fill="none" stroke="#4B5563" stroke-width="1.6" marker-end="url(#arrow-ink)"/>
  <g>
  <rect x="696" y="577" width="88" height="22" rx="2" fill="#F7F6EF" fill-opacity="0.96"/>
  <text x="740" y="593" text-anchor="middle" font-family="DejaVu Sans, sans-serif" font-size="11" font-weight="500" fill="#667085">No / draft</text>
</g>
</g>
<g>
  <path d="M 945 507 L 985 507 L 985 830 L 1380 830" fill="none" stroke="#069A8E" stroke-width="1.6" marker-end="url(#arrow-data)"/>
  <g>
  <rect x="910.8" y="477" width="138.4" height="22" rx="2" fill="#F7F6EF" fill-opacity="0.96"/>
  <text x="980" y="493" text-anchor="middle" font-family="DejaVu Sans, sans-serif" font-size="11" font-weight="500" fill="#667085">Exact current hit</text>
</g>
</g>
<g>
  <path d="M 725 655 L 765 655" fill="none" stroke="#069A8E" stroke-width="1.6" marker-end="url(#arrow-data)"/>
  
</g>
<g>
  <path d="M 850 700 L 850 800" fill="none" stroke="#069A8E" stroke-width="1.6" marker-end="url(#arrow-data)"/>
  
</g>
<g>
  <path d="M 860 837 L 980 837 L 980 360 L 1040 360" fill="none" stroke="#069A8E" stroke-width="1.6" marker-end="url(#arrow-data)"/>
  
</g>
<g>
  <path d="M 1230 360 L 1260 362" fill="none" stroke="#069A8E" stroke-width="1.6" marker-end="url(#arrow-data)"/>
  
</g>
<g>
  <path d="M 1350 415 L 1350 480" fill="none" stroke="#4B5563" stroke-width="1.6" marker-end="url(#arrow-ink)"/>
  <g>
  <rect x="1343" y="437" width="54" height="22" rx="2" fill="#F7F6EF" fill-opacity="0.96"/>
  <text x="1370" y="453" text-anchor="middle" font-family="DejaVu Sans, sans-serif" font-size="11" font-weight="500" fill="#667085">Yes</text>
</g>
</g>
<g>
  <path d="M 1260 532 L 1230 532" fill="none" stroke="#069A8E" stroke-width="1.6" marker-end="url(#arrow-data)"/>
  
</g>
<g>
  <path d="M 1135 405 L 1135 480" fill="none" stroke="#069A8E" stroke-width="1.6" marker-end="url(#arrow-data)"/>
  <g>
  <rect x="1128" y="437" width="54" height="22" rx="2" fill="#F7F6EF" fill-opacity="0.96"/>
  <text x="1155" y="453" text-anchor="middle" font-family="DejaVu Sans, sans-serif" font-size="11" font-weight="500" fill="#667085">No</text>
</g>
</g>
<g>
  <path d="M 1135 570 L 1135 645" fill="none" stroke="#069A8E" stroke-width="1.6" marker-end="url(#arrow-data)"/>
  
</g>
<g>
  <path d="M 1240 740 L 1240 815" fill="none" stroke="#069A8E" stroke-width="1.6" marker-end="url(#arrow-data)"/>
  
</g>
<g>
  <path d="M 1380 852 L 1490 852 L 1490 372 L 1575 372" fill="none" stroke="#069A8E" stroke-width="1.6" marker-end="url(#arrow-data)"/>
  
</g>
<g>
  <path d="M 1668 425 L 1668 500" fill="none" stroke="#069A8E" stroke-width="1.6" marker-end="url(#arrow-data)"/>
  <g>
  <rect x="1663" y="452" width="54" height="22" rx="2" fill="#F7F6EF" fill-opacity="0.96"/>
  <text x="1690" y="468" text-anchor="middle" font-family="DejaVu Sans, sans-serif" font-size="11" font-weight="500" fill="#667085">Yes</text>
</g>
</g>
<g>
  <path d="M 1575 372 L 1515 372 L 1515 825 L 1540 825" fill="none" stroke="#4B5563" stroke-width="1.6" marker-end="url(#arrow-ink)"/>
  <g>
  <rect x="1498" y="747" width="54" height="22" rx="2" fill="#F7F6EF" fill-opacity="0.96"/>
  <text x="1525" y="763" text-anchor="middle" font-family="DejaVu Sans, sans-serif" font-size="11" font-weight="500" fill="#667085">No</text>
</g>
</g>
<g>
  <path d="M 1668 590 L 1668 640" fill="none" stroke="#069A8E" stroke-width="1.6" marker-end="url(#arrow-data)"/>
  
</g>
<g>
  <path d="M 1668 730 L 1668 780" fill="none" stroke="#069A8E" stroke-width="1.6" marker-end="url(#arrow-data)"/>
  
</g>
</svg>